<svg width="2690" height="1503" xmlns="http://www.w3.org/2000/svg" xmlns:xlink="http://www.w3.org/1999/xlink" xml:space="preserve" overflow="hidden"><defs><clipPath id="clip0"><rect x="998" y="422" width="2690" height="1503"/></clipPath></defs><g clip-path="url(#clip0)" transform="translate(-998 -422)"><rect x="998" y="422" width="2690" height="1503" fill="#FFFFFF"/><path d="M1110.5 1223.5 1255.5 1223.5 1255.5 1387.5 1110.5 1387.5" stroke="#000000" stroke-width="4.58333" stroke-linecap="round" stroke-linejoin="round" stroke-miterlimit="10" fill="none" fill-rule="evenodd"/><path d="M2.29167-5.96818e-06 2.29203 138.576C2.29203 139.841 1.26602 140.867 0.000366861 140.867-1.26529 140.867-2.2913 139.841-2.29131 138.576L-2.29167 5.96818e-06C-2.29167-1.26565-1.26566-2.29166-5.96818e-06-2.29167 1.26565-2.29167 2.29166-1.26566 2.29167-5.96818e-06ZM-13.75 3.58091e-05C-13.75-7.59388-7.59395-13.75-3.58091e-05-13.75 7.59388-13.75 13.75-7.59395 13.75-3.58091e-05 13.75 7.59388 7.59395 13.75 3.58091e-05 13.75-7.59388 13.75-13.75 7.59395-13.75 3.58091e-05Z" transform="matrix(-1 0 0 1 2194.5 743.5)"/><rect x="0" y="0" width="542" height="606" stroke="#000000" stroke-width="4.58333" stroke-linecap="round" stroke-linejoin="round" stroke-miterlimit="10" fill="#F2F2F2" transform="matrix(-1 0 0 1 2358.5 1017.5)"/><path d="M0 0 90.1412 0.000360892" stroke="#000000" stroke-width="4.58333" stroke-linecap="round" stroke-linejoin="round" stroke-miterlimit="10" stroke-dasharray="13.75 18.3333" fill="none" fill-rule="evenodd" transform="matrix(-1 0 0 1 2197.64 1228.5)"/><path d="M0 0 90.1412 0.000360892" stroke="#000000" stroke-width="4.58333" stroke-linecap="round" stroke-linejoin="round" stroke-miterlimit="10" stroke-dasharray="13.75 18.3333" fill="none" fill-rule="evenodd" transform="matrix(-1 0 0 1 2197.64 1392.5)"/><path d="M2.29167-5.1536e-06 2.29203 160.479C2.29203 161.745 1.26602 162.771 0.000366046 162.771-1.26529 162.771-2.2913 161.745-2.29131 160.479L-2.29167 5.1536e-06C-2.29167-1.26565-1.26566-2.29166-5.1536e-06-2.29167 1.26565-2.29167 2.29166-1.26566 2.29167-5.1536e-06ZM-13.75 3.09216e-05C-13.75-7.59388-7.59395-13.75-3.09216e-05-13.75 7.59388-13.75 13.75-7.59395 13.75-3.09216e-05 13.75 7.59388 7.59395 13.75 3.09216e-05 13.75-7.59388 13.75-13.75 7.59395-13.75 3.09216e-05ZM13.7504 160.479C13.7504 168.073 7.59431 174.229 0.000391814 174.229-7.59352 174.229-13.7496 168.073-13.7496 160.479-13.7497 152.885-7.59359 146.729 0.000329971 146.729 7.59425 146.729 13.7503 152.885 13.7504 160.479Z" transform="matrix(-1 0 0 1 2030.5 1392.5)"/><path d="M2005 1492 2030 1450 2055 1492Z" fill-rule="evenodd"/><path d="M0 0 0.000360892 52.412" stroke="#000000" stroke-width="9.16667" stroke-miterlimit="8" fill="none" fill-rule="evenodd" transform="matrix(-1.83697e-16 -1 -1 1.83697e-16 2056.91 1451.5)"/><path d="M2.29167-2.54504e-06 2.29203 324.963C2.29203 326.229 1.26602 327.255 0.000363437 327.255-1.26529 327.255-2.2913 326.229-2.29131 324.963L-2.29167 2.54504e-06C-2.29167-1.26565-1.26566-2.29167-2.54504e-06-2.29167 1.26565-2.29167 2.29167-1.26566 2.29167-2.54504e-06ZM-13.75 1.52702e-05C-13.75-7.5939-7.59393-13.75-1.52702e-05-13.75 7.5939-13.75 13.75-7.59393 13.75-1.52702e-05 13.75 7.5939 7.59393 13.75 1.52702e-05 13.75-7.5939 13.75-13.75 7.59393-13.75 1.52702e-05ZM13.7504 324.963C13.7504 332.557 7.59429 338.713 0.000376163 338.713-7.59354 338.713-13.7496 332.557-13.7496 324.963-13.7496 317.369-7.59357 311.213 0.000345622 311.213 7.59426 311.213 13.7504 317.369 13.7504 324.963Z" transform="matrix(-1 0 0 1 1931.5 1228.5)"/><path d="M1929.21 1228.61 1929.21 1080.5C1929.21 1079.23 1930.23 1078.21 1931.5 1078.21 1932.77 1078.21 1933.79 1079.23 1933.79 1080.5L1933.79 1228.61C1933.79 1229.87 1932.77 1230.9 1931.5 1230.9 1930.23 1230.9 1929.21 1229.87 1929.21 1228.61ZM1945.25 1228.61C1945.25 1236.2 1939.09 1242.36 1931.5 1242.36 1923.91 1242.36 1917.75 1236.2 1917.75 1228.61 1917.75 1221.01 1923.91 1214.86 1931.5 1214.86 1939.09 1214.86 1945.25 1221.01 1945.25 1228.61ZM1917.75 1080.5C1917.75 1072.91 1923.91 1066.75 1931.5 1066.75 1939.09 1066.75 1945.25 1072.91 1945.25 1080.5 1945.25 1088.09 1939.09 1094.25 1931.5 1094.25 1923.91 1094.25 1917.75 1088.09 1917.75 1080.5Z"/><path d="M2028.21 1392.71 2028.21 1080.5C2028.21 1079.23 2029.23 1078.21 2030.5 1078.21 2031.77 1078.21 2032.79 1079.23 2032.79 1080.5L2032.79 1392.71C2032.79 1393.98 2031.77 1395 2030.5 1395 2029.23 1395 2028.21 1393.98 2028.21 1392.71ZM2044.25 1392.71C2044.25 1400.31 2038.09 1406.46 2030.5 1406.46 2022.91 1406.46 2016.75 1400.31 2016.75 1392.71 2016.75 1385.12 2022.91 1378.96 2030.5 1378.96 2038.09 1378.96 2044.25 1385.12 2044.25 1392.71ZM2016.75 1080.5C2016.75 1072.91 2022.91 1066.75 2030.5 1066.75 2038.09 1066.75 2044.25 1072.91 2044.25 1080.5 2044.25 1088.09 2038.09 1094.25 2030.5 1094.25 2022.91 1094.25 2016.75 1088.09 2016.75 1080.5Z"/><path d="M1907 1492 1932 1450 1957 1492Z" fill-rule="evenodd"/><path d="M0 0 0.000360892 52.412" stroke="#000000" stroke-width="9.16667" stroke-miterlimit="8" fill="none" fill-rule="evenodd" transform="matrix(-1.83697e-16 -1 -1 1.83697e-16 1958.91 1451.5)"/><path d="M2005 1175 2030 1133 2055 1175Z" fill-rule="evenodd"/><path d="M0 0 0.000360892 52.412" stroke="#000000" stroke-width="9.16667" stroke-miterlimit="8" fill="none" fill-rule="evenodd" transform="matrix(-1.83697e-16 -1 -1 1.83697e-16 2056.91 1134.5)"/><path d="M1907 1175 1932 1133 1957 1175Z" fill-rule="evenodd"/><path d="M0 0 0.000360892 52.412" stroke="#000000" stroke-width="9.16667" stroke-miterlimit="8" fill="none" fill-rule="evenodd" transform="matrix(-1.83697e-16 -1 -1 1.83697e-16 1958.91 1134.5)"/><path d="M0 0 277.26 0.000360892" stroke="#000000" stroke-width="4.58333" stroke-linecap="round" stroke-linejoin="round" stroke-miterlimit="10" fill="none" fill-rule="evenodd" transform="matrix(-1 0 0 1 2149.76 1080.5)"/><path d="M0 0 277.26 0.000360892" stroke="#000000" stroke-width="4.58333" stroke-linecap="round" stroke-linejoin="round" stroke-miterlimit="10" fill="none" fill-rule="evenodd" transform="matrix(-1 0 0 1 2149.76 1553.5)"/><path d="M0 0 97.8957 0.000360892" stroke="#000000" stroke-width="4.58333" stroke-linecap="round" stroke-linejoin="round" stroke-miterlimit="10" stroke-dasharray="13.75 18.3333" fill="none" fill-rule="evenodd" transform="matrix(-1 0 0 1 2247.4 1080.5)"/><path d="M0 0 97.8957 0.000360892" stroke="#000000" stroke-width="4.58333" stroke-linecap="round" stroke-linejoin="round" stroke-miterlimit="10" stroke-dasharray="13.75 18.3333" fill="none" fill-rule="evenodd" transform="matrix(-1 0 0 1 2247.4 1553.5)"/><path d="M0 0 601 0 601 164 0 164" stroke="#000000" stroke-width="4.58333" stroke-linecap="round" stroke-linejoin="round" stroke-miterlimit="10" fill="none" fill-rule="evenodd" transform="matrix(-1 0 0 1 2099.5 1228.5)"/><rect x="0" y="0" width="51.0002" height="57.0001" fill="#FFFFFF" transform="matrix(-1 0 0 1 1520 1276)"/><rect x="0" y="0" width="50.9999" height="23" stroke="#000000" stroke-width="4.58333" stroke-linecap="round" stroke-linejoin="round" stroke-miterlimit="10" fill="#FFFFFF" transform="matrix(-1 0 0 1 1520.5 1293.5)"/><path d="M0 0 51.0323 0.000360892" stroke="#000000" stroke-width="9.16667" stroke-miterlimit="8" fill="none" fill-rule="evenodd" transform="matrix(-1 0 0 1 1520.53 1274.5)"/><path d="M0 0 51.0323 0.000360892" stroke="#000000" stroke-width="9.16667" stroke-miterlimit="8" fill="none" fill-rule="evenodd" transform="matrix(-1 0 0 1 1520.53 1333.5)"/><path d="M0 25.9998 14.96 0 73.04 0 88 25.9998Z" stroke="#000000" stroke-width="4.58333" stroke-linecap="round" stroke-linejoin="round" stroke-miterlimit="10" fill="#FFFFFF" fill-rule="evenodd" transform="matrix(-6.12323e-17 -1 -1 6.12323e-17 1455.5 1348.5)"/><path d="M0 35.0001 27.5 0 55 35.0001Z" stroke="#000000" stroke-width="4.58333" stroke-miterlimit="8" fill="#FFFFFF" fill-rule="evenodd" transform="matrix(1 -1.22465e-16 -1.22465e-16 -1 2166.5 920.5)"/><path d="M0 35.0001 27.5 0 55 35.0001Z" stroke="#000000" stroke-width="4.58333" stroke-miterlimit="8" fill="#FFFFFF" fill-rule="evenodd" transform="matrix(1 -1.22465e-16 -1.22465e-16 -1 2297.5 920.5)"/><rect x="0" y="0" width="34" height="66" fill="#FFFFFF" transform="matrix(-6.12323e-17 -1 -1 6.12323e-17 2227 835)"/><path d="M0 0 0.000360892 66.0209" stroke="#000000" stroke-width="6.875" stroke-miterlimit="8" fill="none" fill-rule="evenodd" transform="matrix(-6.12323e-17 -1 -1 6.12323e-17 2227.52 835.5)"/><path d="M0 0 0.000360892 66.0209" stroke="#000000" stroke-width="6.875" stroke-miterlimit="8" fill="none" fill-rule="evenodd" transform="matrix(-6.12323e-17 -1 -1 6.12323e-17 2227.52 801.5)"/><path d="M2.29167-5.96818e-06 2.29203 138.576C2.29203 139.841 1.26602 140.867 0.000366861 140.867-1.26529 140.867-2.2913 139.841-2.29131 138.576L-2.29167 5.96818e-06C-2.29167-1.26565-1.26566-2.29166-5.96818e-06-2.29167 1.26565-2.29167 2.29166-1.26566 2.29167-5.96818e-06ZM-13.75 3.58091e-05C-13.75-7.59388-7.59395-13.75-3.58091e-05-13.75 7.59388-13.75 13.75-7.59395 13.75-3.58091e-05 13.75 7.59388 7.59395 13.75 3.58091e-05 13.75-7.59388 13.75-13.75 7.59395-13.75 3.58091e-05Z" transform="matrix(-1 0 0 1 2323.5 743.5)"/><rect x="0" y="0" width="34" height="66" fill="#FFFFFF" transform="matrix(-6.12323e-17 -1 -1 6.12323e-17 2358 835)"/><path d="M0 0 0.000360892 66.0209" stroke="#000000" stroke-width="6.875" stroke-miterlimit="8" fill="none" fill-rule="evenodd" transform="matrix(-6.12323e-17 -1 -1 6.12323e-17 2358.52 835.5)"/><path d="M0 0 0.000360892 66.0209" stroke="#000000" stroke-width="6.875" stroke-miterlimit="8" fill="none" fill-rule="evenodd" transform="matrix(-6.12323e-17 -1 -1 6.12323e-17 2358.52 801.5)"/><path d="M0 0 14.0062 29.2294" stroke="#000000" stroke-width="4.58333" stroke-linecap="round" stroke-linejoin="round" stroke-miterlimit="10" fill="none" fill-rule="evenodd" transform="matrix(-1 0 0 1 2353.51 803.5)"/><path d="M0 0 14.0062 29.2294" stroke="#000000" stroke-width="4.58333" stroke-linecap="round" stroke-linejoin="round" stroke-miterlimit="10" fill="none" fill-rule="evenodd" transform="matrix(-1 0 0 1 2332.51 803.5)"/><path d="M0 0 14.0062 29.2294" stroke="#000000" stroke-width="4.58333" stroke-linecap="round" stroke-linejoin="round" stroke-miterlimit="10" fill="none" fill-rule="evenodd" transform="matrix(-1 0 0 1 2311.51 803.5)"/><path d="M0 0 29.604 0.000360892" stroke="#000000" stroke-width="4.58333" stroke-linecap="round" stroke-linejoin="round" stroke-miterlimit="10" fill="none" fill-rule="evenodd" transform="matrix(-1 0 0 1 2387.1 780.5)"/><path d="M0 0 29.6033 0.000360892" stroke="#000000" stroke-width="4.58333" stroke-linecap="round" stroke-linejoin="round" stroke-miterlimit="10" fill="none" fill-rule="evenodd" transform="matrix(-6.12323e-17 -1 -1 6.12323e-17 2372.5 795.103)"/><text font-family="Arial,Arial_MSFontService,sans-serif" font-weight="400" font-size="41" transform="matrix(1 0 0 1 2279.15 717)">100u</text><text font-family="Arial,Arial_MSFontService,sans-serif" font-weight="400" font-size="41" transform="matrix(1 0 0 1 2370.82 717)"> </text><text font-family="Arial,Arial_MSFontService,sans-serif" font-weight="400" font-size="41" transform="matrix(1 0 0 1 2149.39 717)">100n</text><text font-family="Arial,Arial_MSFontService,sans-serif" font-weight="400" font-size="41" transform="matrix(1 0 0 1 2241.05 717)"> </text><rect x="0" y="0" width="550" height="606" stroke="#000000" stroke-width="4.58333" stroke-linecap="round" stroke-linejoin="round" stroke-miterlimit="10" fill="#F2F2F2" transform="matrix(-1 0 0 1 3215.5 1017.5)"/><path d="M0 0 304.867 0.000360892" stroke="#000000" stroke-width="4.58333" stroke-linecap="round" stroke-linejoin="round" stroke-miterlimit="10" fill="none" fill-rule="evenodd" transform="matrix(-1 0 0 1 2664.37 1289.5)"/><path d="M0 0 304.867 0.000360892" stroke="#000000" stroke-width="4.58333" stroke-linecap="round" stroke-linejoin="round" stroke-miterlimit="10" fill="none" fill-rule="evenodd" transform="matrix(-1 0 0 1 2664.37 1392.5)"/><text font-family="Arial,Arial_MSFontService,sans-serif" font-weight="400" font-size="41" transform="matrix(1 0 0 1 2369 1278)">PA1</text><text font-family="Arial,Arial_MSFontService,sans-serif" font-weight="400" font-size="41" transform="matrix(1 0 0 1 2446.92 1278)"> </text><text font-family="Arial,Arial_MSFontService,sans-serif" font-weight="400" font-size="41" transform="matrix(1 0 0 1 2369 1383)">PA2</text><text font-family="Arial,Arial_MSFontService,sans-serif" font-weight="400" font-size="41" transform="matrix(1 0 0 1 2446.92 1383)"> </text><path d="M2107.79 1553.5 2107.79 1733.67C2107.79 1734.93 2106.77 1735.96 2105.5 1735.96 2104.23 1735.96 2103.21 1734.93 2103.21 1733.67L2103.21 1553.5C2103.21 1552.23 2104.23 1551.21 2105.5 1551.21 2106.77 1551.21 2107.79 1552.23 2107.79 1553.5ZM2091.75 1553.5C2091.75 1545.91 2097.91 1539.75 2105.5 1539.75 2113.09 1539.75 2119.25 1545.91 2119.25 1553.5 2119.25 1561.09 2113.09 1567.25 2105.5 1567.25 2097.91 1567.25 2091.75 1561.09 2091.75 1553.5Z"/><path d="M0 34.9997 27.5 0 55 34.9997Z" stroke="#000000" stroke-width="4.58333" stroke-miterlimit="8" fill="#FFFFFF" fill-rule="evenodd" transform="matrix(1 -1.22465e-16 -1.22465e-16 -1 2078.5 1771.5)"/><path d="M2.29167-1.51591e-06 2.29203 545.575C2.29203 546.841 1.26601 547.867 0.000362408 547.867-1.26529 547.867-2.2913 546.841-2.29131 545.575L-2.29167 1.51591e-06C-2.29167-1.26565-1.26565-2.29167-1.51591e-06-2.29167 1.26565-2.29167 2.29167-1.26565 2.29167-1.51591e-06ZM-13.75 9.09547e-06C-13.75-7.59391-7.59392-13.75-9.09547e-06-13.75 7.59391-13.75 13.75-7.59392 13.75-9.09547e-06 13.75 7.59391 7.59392 13.75 9.09547e-06 13.75-7.59391 13.75-13.75 7.59392-13.75 9.09547e-06ZM13.7504 545.575C13.7504 553.169 7.59429 559.325 0.000369988 559.325-7.59355 559.325-13.7496 553.169-13.7496 545.575-13.7496 537.982-7.59356 531.825 0.000351797 531.825 7.59427 531.825 13.7504 537.982 13.7504 545.575Z" transform="matrix(1 0 0 -1 2483.5 1289.08)"/><path d="M2.29167-1.2756e-06 2.29203 648.358C2.29203 649.624 1.26601 650.65 0.000362168 650.65-1.26529 650.65-2.29131 649.624-2.29131 648.358L-2.29167 1.2756e-06C-2.29167-1.26565-1.26565-2.29167-1.2756e-06-2.29167 1.26565-2.29167 2.29167-1.26565 2.29167-1.2756e-06ZM-13.75 7.65359e-06C-13.75-7.59391-7.59392-13.75-7.65359e-06-13.75 7.59391-13.75 13.75-7.59392 13.75-7.65359e-06 13.75 7.59391 7.59392 13.75 7.65359e-06 13.75-7.59391 13.75-13.75 7.59392-13.75 7.65359e-06ZM13.7504 648.358C13.7504 655.952 7.59428 662.108 0.000368546 662.108-7.59355 662.108-13.7496 655.952-13.7496 648.358-13.7496 640.764-7.59356 634.608 0.000353239 634.608 7.59427 634.608 13.7504 640.764 13.7504 648.358Z" transform="matrix(1 0 0 -1 2553.5 1391.86)"/><path d="M2727.5 1623.5 2727.5 1733.87" stroke="#000000" stroke-width="4.58333" stroke-linecap="round" stroke-linejoin="round" stroke-miterlimit="10" fill="none" fill-rule="evenodd"/><path d="M0 34.9997 27.5 0 55 34.9997Z" stroke="#000000" stroke-width="4.58333" stroke-miterlimit="8" fill="#FFFFFF" fill-rule="evenodd" transform="matrix(1 -1.22465e-16 -1.22465e-16 -1 2700.5 1771.5)"/><text font-family="Arial,Arial_MSFontService,sans-serif" font-weight="400" font-size="41" transform="matrix(1 0 0 1 2583.27 1158)">10k</text><text font-family="Arial,Arial_MSFontService,sans-serif" font-weight="400" font-size="41" transform="matrix(1 0 0 1 2649.73 1158)"> </text><path d="M3022 803 2996.5 846 2971 803Z" fill-rule="evenodd"/><path d="M0 0 0.000360892 53.2944" stroke="#000000" stroke-width="9.16667" stroke-miterlimit="8" fill="none" fill-rule="evenodd" transform="matrix(6.12323e-17 1 1 -6.12323e-17 2970.5 845.5)"/><path d="M2102.21 1079.5 2102.21 742.5C2102.21 741.234 2103.23 740.208 2104.5 740.208L2996.5 740.208C2997.77 740.208 2998.79 741.234 2998.79 742.5 2998.79 743.766 2997.77 744.792 2996.5 744.792L2104.5 744.792 2106.79 742.5 2106.79 1079.5C2106.79 1080.77 2105.77 1081.79 2104.5 1081.79 2103.23 1081.79 2102.21 1080.77 2102.21 1079.5ZM2118.25 1079.5C2118.25 1087.09 2112.09 1093.25 2104.5 1093.25 2096.91 1093.25 2090.75 1087.09 2090.75 1079.5 2090.75 1071.91 2096.91 1065.75 2104.5 1065.75 2112.09 1065.75 2118.25 1071.91 2118.25 1079.5Z"/><path d="M2729.79 742.5 2729.79 1013.31C2729.79 1014.58 2728.77 1015.6 2727.5 1015.6 2726.23 1015.6 2725.21 1014.58 2725.21 1013.31L2725.21 742.5C2725.21 741.234 2726.23 740.208 2727.5 740.208 2728.77 740.208 2729.79 741.234 2729.79 742.5ZM2713.75 742.5C2713.75 734.906 2719.91 728.75 2727.5 728.75 2735.09 728.75 2741.25 734.906 2741.25 742.5 2741.25 750.094 2735.09 756.25 2727.5 756.25 2719.91 756.25 2713.75 750.094 2713.75 742.5Z"/><path d="M2789.79 742.5 2789.79 1013.31C2789.79 1014.58 2788.77 1015.6 2787.5 1015.6 2786.23 1015.6 2785.21 1014.58 2785.21 1013.31L2785.21 742.5C2785.21 741.234 2786.23 740.208 2787.5 740.208 2788.77 740.208 2789.79 741.234 2789.79 742.5ZM2773.75 742.5C2773.75 734.906 2779.91 728.75 2787.5 728.75 2795.09 728.75 2801.25 734.906 2801.25 742.5 2801.25 750.094 2795.09 756.25 2787.5 756.25 2779.91 756.25 2773.75 750.094 2773.75 742.5Z"/><path d="M2996.5 742.5 2996.5 1733.34" stroke="#000000" stroke-width="4.58333" stroke-linecap="round" stroke-linejoin="round" stroke-miterlimit="10" fill="none" fill-rule="evenodd"/><text font-family="Arial,Arial_MSFontService,sans-serif" font-weight="400" font-size="41" transform="matrix(1 0 0 1 2626.81 992)">VCC</text><text font-family="Arial,Arial_MSFontService,sans-serif" font-weight="400" font-size="41" transform="matrix(1 0 0 1 2713.9 992)"> </text><text font-family="Arial,Arial_MSFontService,sans-serif" font-weight="400" font-size="41" transform="matrix(1 0 0 1 2810.53 992)">RST</text><text font-family="Arial,Arial_MSFontService,sans-serif" font-weight="400" font-size="41" transform="matrix(1 0 0 1 2893.03 992)"> </text><path d="M0 34.9997 27.5 0 55 34.9997Z" stroke="#000000" stroke-width="4.58333" stroke-miterlimit="8" fill="#FFFFFF" fill-rule="evenodd" transform="matrix(1 -1.22465e-16 -1.22465e-16 -1 2968.5 1771.5)"/><text font-family="Arial,Arial_MSFontService,sans-serif" font-weight="400" font-size="41" transform="matrix(1 0 0 1 2624.52 1676)">GND</text><text font-family="Arial,Arial_MSFontService,sans-serif" font-weight="400" font-size="41" transform="matrix(1 0 0 1 2716.19 1676)"> </text><text font-family="Arial,Arial_MSFontService,sans-serif" font-weight="400" font-size="41" transform="matrix(1 0 0 1 3011.22 1676)">BL(K)</text><text font-family="Arial,Arial_MSFontService,sans-serif" font-weight="400" font-size="41" transform="matrix(1 0 0 1 3116.64 1676)"> </text><text font-family="Arial,Arial_MSFontService,sans-serif" font-weight="400" font-size="41" transform="matrix(1 0 0 1 3011.22 992)">BL(A)</text><text font-family="Arial,Arial_MSFontService,sans-serif" font-weight="400" font-size="41" transform="matrix(1 0 0 1 3116.64 992)"> </text><text font-family="Arial,Arial_MSFontService,sans-serif" font-weight="400" font-size="41" transform="matrix(1 0 0 1 2730.15 1378)">Back</text><text font-family="Arial,Arial_MSFontService,sans-serif" font-weight="400" font-size="41" transform="matrix(1 0 0 1 2821.82 1378)"> </text><text font-family="Arial,Arial_MSFontService,sans-serif" font-weight="400" font-size="41" transform="matrix(1 0 0 1 2731.29 1428)">Light</text><text font-family="Arial,Arial_MSFontService,sans-serif" font-weight="400" font-size="41" transform="matrix(1 0 0 1 2820.67 1428)"> </text><text font-family="Arial,Arial_MSFontService,sans-serif" font-weight="400" font-size="41" transform="matrix(1 0 0 1 3057.4 839)">1N4148</text><text font-family="Arial,Arial_MSFontService,sans-serif" font-weight="400" font-size="41" transform="matrix(1 0 0 1 3201.77 839)"> </text><path d="M3036.5 742.5 3482.35 742.5" stroke="#000000" stroke-width="4.58333" stroke-linecap="round" stroke-linejoin="round" stroke-miterlimit="10" stroke-dasharray="13.75 18.3333" fill="none" fill-rule="evenodd"/><path d="M3036.5 907.5 3482.35 907.5" stroke="#000000" stroke-width="4.58333" stroke-linecap="round" stroke-linejoin="round" stroke-miterlimit="10" stroke-dasharray="13.75 18.3333" fill="none" fill-rule="evenodd"/><path d="M3036.5 1772.5 3482.35 1772.5" stroke="#000000" stroke-width="4.58333" stroke-linecap="round" stroke-linejoin="round" stroke-miterlimit="10" stroke-dasharray="13.75 18.3333" fill="none" fill-rule="evenodd"/><path d="M3419.79 765.417 3419.79 884.583C3419.79 885.849 3418.77 886.875 3417.5 886.875 3416.23 886.875 3415.21 885.849 3415.21 884.583L3415.21 765.417C3415.21 764.151 3416.23 763.125 3417.5 763.125 3418.77 763.125 3419.79 764.151 3419.79 765.417ZM3403.75 770 3417.5 742.5 3431.25 770ZM3431.25 880 3417.5 907.5 3403.75 880Z"/><path d="M3419.79 930.417 3419.79 1748.16C3419.79 1749.42 3418.77 1750.45 3417.5 1750.45 3416.23 1750.45 3415.21 1749.42 3415.21 1748.16L3415.21 930.417C3415.21 929.151 3416.23 928.125 3417.5 928.125 3418.77 928.125 3419.79 929.151 3419.79 930.417ZM3403.75 935 3417.5 907.5 3431.25 935ZM3431.25 1743.57 3417.5 1771.07 3403.75 1743.57Z"/><text font-family="Arial,Arial_MSFontService,sans-serif" font-weight="400" font-size="41" transform="matrix(1 0 0 1 3440.64 840)">0.6V</text><text font-family="Arial,Arial_MSFontService,sans-serif" font-weight="400" font-size="41" transform="matrix(1 0 0 1 3525.43 840)"> </text><text font-family="Arial,Arial_MSFontService,sans-serif" font-weight="400" font-size="41" transform="matrix(1 0 0 1 3440.64 1337)">approx.</text><text font-family="Arial,Arial_MSFontService,sans-serif" font-weight="400" font-size="41" transform="matrix(1 0 0 1 3578.14 1337)"> </text><text font-family="Arial,Arial_MSFontService,sans-serif" font-weight="400" font-size="41" transform="matrix(1 0 0 1 3440.64 1387)">2.5V</text><text font-family="Arial,Arial_MSFontService,sans-serif" font-weight="400" font-size="41" transform="matrix(1 0 0 1 3525.43 1387)"> </text><rect x="2908.5" y="1174.5" width="175" height="329" stroke="#000000" stroke-width="4.58333" stroke-linecap="round" stroke-linejoin="round" stroke-miterlimit="10" fill="#F2F2F2"/><rect x="3043.5" y="1304.5" width="85" height="169" stroke="#000000" stroke-width="4.58333" stroke-linecap="round" stroke-linejoin="round" stroke-miterlimit="10" fill="#F2F2F2"/><path d="M3150 1345 3129.5 1379 3109 1345Z" fill-rule="evenodd"/><path d="M0 0 0.000360892 42.5792" stroke="#000000" stroke-width="9.16667" stroke-miterlimit="8" fill="none" fill-rule="evenodd" transform="matrix(6.12323e-17 1 1 -6.12323e-17 3108.5 1379.5)"/><path d="M3161.78 1352.6 3175.84 1362.05 3173.28 1365.86 3159.22 1356.4ZM3175.87 1353.79 3185.97 1371.63 3165.64 1369Z"/><path d="M3161.78 1370.6 3175.84 1380.05 3173.28 1383.86 3159.22 1374.4ZM3175.87 1371.79 3185.97 1389.63 3165.64 1387Z"/><path d="M3065 1398 3044.5 1432 3024 1398Z" fill-rule="evenodd"/><path d="M0 0 0.000360892 42.5792" stroke="#000000" stroke-width="9.16667" stroke-miterlimit="8" fill="none" fill-rule="evenodd" transform="matrix(6.12323e-17 1 1 -6.12323e-17 3023.5 1431.5)"/><path d="M3076.78 1404.6 3090.84 1414.05 3088.28 1417.86 3074.22 1408.4ZM3090.87 1405.79 3100.97 1423.63 3080.64 1421Z"/><path d="M3076.78 1422.6 3090.84 1432.05 3088.28 1435.86 3074.22 1426.4ZM3090.87 1423.79 3100.97 1441.63 3080.64 1439Z"/><rect x="2862.5" y="1304.5" width="85.0002" height="169" stroke="#000000" stroke-width="4.58333" stroke-linecap="round" stroke-linejoin="round" stroke-miterlimit="10" fill="#F2F2F2"/><path d="M2968 1345 2948 1379 2928 1345Z" fill-rule="evenodd"/><path d="M0 0 0.000360892 42.5792" stroke="#000000" stroke-width="9.16667" stroke-miterlimit="8" fill="none" fill-rule="evenodd" transform="matrix(6.12323e-17 1 1 -6.12323e-17 2927.5 1379.5)"/><path d="M2980.78 1352.6 2994.84 1362.05 2992.28 1365.86 2978.22 1356.4ZM2994.87 1353.79 3004.97 1371.63 2984.64 1369Z"/><path d="M2980.78 1370.6 2994.84 1380.05 2992.28 1383.86 2978.22 1374.4ZM2994.87 1371.79 3004.97 1389.63 2984.64 1387Z"/><path d="M2882 1398 2861.5 1432 2841 1398Z" fill-rule="evenodd"/><path d="M0 0 0.000360892 42.5792" stroke="#000000" stroke-width="9.16667" stroke-miterlimit="8" fill="none" fill-rule="evenodd" transform="matrix(6.12323e-17 1 1 -6.12323e-17 2840.5 1431.5)"/><path d="M2893.78 1404.6 2907.84 1414.05 2905.28 1417.86 2891.22 1408.4ZM2907.87 1405.79 2917.97 1423.63 2897.64 1421Z"/><path d="M2893.78 1422.6 2907.84 1432.05 2905.28 1435.86 2891.22 1426.4ZM2907.87 1423.79 2917.97 1441.63 2897.64 1439Z"/><rect x="2463.5" y="1095.5" width="37.9998" height="82.9999" stroke="#000000" stroke-width="4.58333" stroke-linecap="round" stroke-linejoin="round" stroke-miterlimit="10" fill="#F2F2F2"/><rect x="2535.5" y="1095.5" width="38.0002" height="82.9999" stroke="#000000" stroke-width="4.58333" stroke-linecap="round" stroke-linejoin="round" stroke-miterlimit="10" fill="#F2F2F2"/><rect x="2894.5" y="1212.5" width="27.0002" height="59.0001" stroke="#000000" stroke-width="4.58333" stroke-linecap="round" stroke-linejoin="round" stroke-miterlimit="10" fill="#F2F2F2"/><rect x="3070.5" y="1212.5" width="27.0002" height="59.0001" stroke="#000000" stroke-width="4.58333" stroke-linecap="round" stroke-linejoin="round" stroke-miterlimit="10" fill="#F2F2F2"/><text font-family="Arial,Arial_MSFontService,sans-serif" font-weight="400" font-size="41" transform="matrix(1 0 0 1 1396 1453)">D27E40B</text><text font-family="Arial,Arial_MSFontService,sans-serif" font-weight="400" font-size="41" transform="matrix(1 0 0 1 1572.46 1453)"> </text><path d="M1213.5 1306C1213.5 1282.53 1232.53 1263.5 1256 1263.5 1279.47 1263.5 1298.5 1282.53 1298.5 1306 1298.5 1329.47 1279.47 1348.5 1256 1348.5 1232.53 1348.5 1213.5 1329.47 1213.5 1306Z" stroke="#000000" stroke-width="4.58333" stroke-linecap="round" stroke-linejoin="round" stroke-miterlimit="10" fill="#FFFFFF" fill-rule="evenodd"/><text font-family="Arial,Arial_MSFontService,sans-serif" font-weight="400" font-size="55" transform="matrix(1 0 0 1 1232.38 1325)">M</text><text font-family="Arial,Arial_MSFontService,sans-serif" font-weight="400" font-size="55" transform="matrix(1 0 0 1 1278.22 1325)"> </text><text font-family="Arial,Arial_MSFontService,sans-serif" font-weight="400" font-size="41" transform="matrix(1 0 0 1 1179.56 1453)">0716</text><text font-family="Arial,Arial_MSFontService,sans-serif" font-weight="400" font-size="41" transform="matrix(1 0 0 1 1271.22 1453)">-</text><text font-family="Arial,Arial_MSFontService,sans-serif" font-weight="400" font-size="41" transform="matrix(1 0 0 1 1284.97 1453)">5V</text><text font-family="Arial,Arial_MSFontService,sans-serif" font-weight="400" font-size="41" transform="matrix(1 0 0 1 1335.39 1453)"> </text><path d="M1323 1297.12 1375.4 1297.13 1375.4 1310.88 1323 1310.87ZM1368.53 1283.38 1409.78 1304 1368.53 1324.63Z"/><text font-family="Arial,Arial_MSFontService,sans-serif" font-weight="400" font-size="41" transform="matrix(1 0 0 1 1885.37 950)">Protection</text><text font-family="Arial,Arial_MSFontService,sans-serif" font-weight="400" font-size="41" transform="matrix(1 0 0 1 2071 950)"> </text><text font-family="Arial,Arial_MSFontService,sans-serif" font-weight="400" font-size="41" transform="matrix(1 0 0 1 1914.02 1000)">Diodes</text><text font-family="Arial,Arial_MSFontService,sans-serif" font-weight="400" font-size="41" transform="matrix(1 0 0 1 2042.35 1000)"> </text><path d="M1895.27 649.5 2050.31 649.5 2094.34 649.5 2363.59 649.5C2390.6 649.5 2412.5 672.299 2412.5 700.422L2412.5 904.108C2412.5 932.232 2390.6 955.031 2363.59 955.031L2144.11 955.031 2144.11 1549.68C2144.11 1578.3 2121.83 1601.5 2094.34 1601.5L1895.27 1601.5C1867.78 1601.5 1845.5 1578.3 1845.5 1549.68L1845.5 701.32C1845.5 672.7 1867.78 649.5 1895.27 649.5Z" stroke="#0070C0" stroke-width="9.16667" stroke-linecap="square" stroke-linejoin="round" stroke-miterlimit="10" stroke-dasharray="27.5 9.16667" fill="none" fill-rule="evenodd"/><text fill="#0070C0" font-family="Arial,Arial_MSFontService,sans-serif" font-weight="700" font-size="55" transform="matrix(1 0 0 1 1886.88 601)">Full</text><text fill="#0070C0" font-family="Arial,Arial_MSFontService,sans-serif" font-weight="700" font-size="55" transform="matrix(1 0 0 1 1985.43 601)">-</text><text fill="#0070C0" font-family="Arial,Arial_MSFontService,sans-serif" font-weight="700" font-size="55" transform="matrix(1 0 0 1 2003.76 601)">Wave </text><text fill="#0070C0" font-family="Arial,Arial_MSFontService,sans-serif" font-weight="700" font-size="55" transform="matrix(1 0 0 1 2160.17 601)">Rectifier</text><text fill="#0070C0" font-family="Arial,Arial_MSFontService,sans-serif" font-weight="700" font-size="55" transform="matrix(1 0 0 1 2379.59 601)"> </text><text font-family="Arial,Arial_MSFontService,sans-serif" font-weight="400" font-size="55" transform="matrix(1 0 0 1 1660.98 1056)">MCU</text><text font-family="Arial,Arial_MSFontService,sans-serif" font-weight="400" font-size="55" transform="matrix(1 0 0 1 1785.87 1056)"> </text><text font-family="Arial,Arial_MSFontService,sans-serif" font-weight="400" font-size="55" transform="matrix(1 0 0 1 1542.96 1122)">ATtiny402</text><text font-family="Arial,Arial_MSFontService,sans-serif" font-weight="400" font-size="55" transform="matrix(1 0 0 1 1785.87 1122)"> </text><rect x="0" y="0" width="145" height="73.9999" fill="#FFFFFF" transform="matrix(-1 0 0 1 3517 1067)"/><text font-family="Arial,Arial_MSFontService,sans-serif" font-weight="400" font-size="55" transform="matrix(1 0 0 1 3246.93 1056)">LCD</text><text font-family="Arial,Arial_MSFontService,sans-serif" font-weight="400" font-size="55" transform="matrix(1 0 0 1 3356.35 1056)"> </text><text font-family="Arial,Arial_MSFontService,sans-serif" font-weight="400" font-size="55" transform="matrix(1 0 0 1 3246.93 1122)">AQM0802</text><text font-family="Arial,Arial_MSFontService,sans-serif" font-weight="400" font-size="55" transform="matrix(1 0 0 1 3493.85 1122)"> </text><text font-family="Arial,Arial_MSFontService,sans-serif" font-weight="400" font-size="41" transform="matrix(1 0 0 1 2383.59 1158)">10k</text><text font-family="Arial,Arial_MSFontService,sans-serif" font-weight="400" font-size="41" transform="matrix(1 0 0 1 2450.05 1158)"> </text><text font-family="Arial,Arial_MSFontService,sans-serif" font-weight="400" font-size="41" transform="matrix(1 0 0 1 2574.34 1278)">SDA</text><text font-family="Arial,Arial_MSFontService,sans-serif" font-weight="400" font-size="41" transform="matrix(1 0 0 1 2659.14 1278)"> </text><text font-family="Arial,Arial_MSFontService,sans-serif" font-weight="400" font-size="41" transform="matrix(1 0 0 1 2576.64 1383)">SCL</text><text font-family="Arial,Arial_MSFontService,sans-serif" font-weight="400" font-size="41" transform="matrix(1 0 0 1 2656.84 1383)"> </text><text font-family="Arial,Arial_MSFontService,sans-serif" font-weight="400" font-size="41" transform="matrix(1 0 0 1 1729.84 1219)">PA6</text><text font-family="Arial,Arial_MSFontService,sans-serif" font-weight="400" font-size="41" transform="matrix(1 0 0 1 1807.76 1219)"> </text><text font-family="Arial,Arial_MSFontService,sans-serif" font-weight="400" font-size="41" transform="matrix(1 0 0 1 1729.84 1381)">PA7</text><text font-family="Arial,Arial_MSFontService,sans-serif" font-weight="400" font-size="41" transform="matrix(1 0 0 1 1807.76 1381)"> </text><text font-family="Arial,Arial_MSFontService,sans-serif" font-weight="400" font-size="41" transform="matrix(1 0 0 1 1280.38 1244)">Vibration</text><text font-family="Arial,Arial_MSFontService,sans-serif" font-weight="400" font-size="41" transform="matrix(1 0 0 1 1443.09 1244)"> </text><text fill="#BFBFBF" font-family="Arial,Arial_MSFontService,sans-serif" font-weight="400" font-size="41" transform="matrix(1 0 0 1 1050.51 1877)">Shapoco</text><text fill="#BFBFBF" font-family="Arial,Arial_MSFontService,sans-serif" font-weight="400" font-size="41" transform="matrix(1 0 0 1 1213.22 1877)"> </text><text fill="#BFBFBF" font-family="Arial,Arial_MSFontService,sans-serif" font-weight="400" font-size="41" transform="matrix(1 0 0 1 1224.67 1877)">20250822</text><text fill="#BFBFBF" font-family="Arial,Arial_MSFontService,sans-serif" font-weight="400" font-size="41" transform="matrix(1 0 0 1 1408.01 1877)"> </text></g></svg>