<svg width="3172" height="1825" xmlns="http://www.w3.org/2000/svg" xmlns:xlink="http://www.w3.org/1999/xlink" xml:space="preserve" overflow="hidden"><defs><clipPath id="clip0"><rect x="321" y="325" width="3172" height="1825"/></clipPath></defs><g clip-path="url(#clip0)" transform="translate(-321 -325)"><rect x="321" y="325" width="3172" height="1825" fill="#FFFFFF"/><path d="M721.643 633.5 1920.07 633.5 1924.15 634.323 1924.16 634.259 2190.34 656.599 2190.32 656.87 2191 656.733 2192.37 657.01 2192.37 656.905 2459.5 656.905 2459.5 697.837 2192.37 697.837 2192.37 697.389 2191 697.666 2186.96 696.851 2186.92 697.388 1920.73 675.049 1920.79 674.287 1920.07 674.433 721.643 674.433C656.93 674.433 604.47 726.846 604.47 791.5 604.47 856.154 656.93 908.567 721.643 908.567L1916.01 908.567 1920.07 907.749 1921.69 908.075 2186.92 885.816 2186.94 886.081 2191 885.261 2192.37 885.538 2192.37 885.261 2459.5 885.261 2459.5 926.194 2192.37 926.194 2192.37 925.917 2191 926.194 2190.3 926.052 2190.34 926.605 1924.16 948.945 1924.07 947.875 1920.07 948.681 1920.07 949.5 721.643 949.5 705.474 948.684C625.729 940.593 563.5 873.307 563.5 791.5 563.5 704.239 634.303 633.5 721.643 633.5Z" stroke="#000000" stroke-width="4.58333" stroke-linecap="round" stroke-linejoin="round" stroke-miterlimit="10" fill="#CD984B" fill-rule="evenodd"/><path d="M572.5 791.5C572.5 709.762 638.762 643.5 720.5 643.5 802.238 643.5 868.5 709.762 868.5 791.5 868.5 873.238 802.238 939.5 720.5 939.5 638.762 939.5 572.5 873.238 572.5 791.5Z" stroke="#000000" stroke-width="4.58333" stroke-linecap="round" stroke-linejoin="round" stroke-miterlimit="10" fill="#A09A2C" fill-rule="evenodd"/><rect x="1171.5" y="674.5" width="651" height="234" stroke="#000000" stroke-width="4.58333" stroke-linecap="round" stroke-linejoin="round" stroke-miterlimit="10" fill="#BFBFBF"/><rect x="1822.5" y="674.5" width="18.9999" height="234" stroke="#000000" stroke-width="4.58333" stroke-linecap="round" stroke-linejoin="round" stroke-miterlimit="10" fill="#404040"/><rect x="964.5" y="693.5" width="160" height="196" stroke="#000000" stroke-width="4.58333" stroke-linecap="round" stroke-linejoin="round" stroke-miterlimit="10" fill="#BFBFBF"/><rect x="1161.5" y="755.5" width="10" height="71.9998" stroke="#000000" stroke-width="4.58333" stroke-linecap="round" stroke-linejoin="round" stroke-miterlimit="10" fill="#BFBFBF"/><rect x="1124.5" y="779.5" width="37.0001" height="24.9998" stroke="#000000" stroke-width="4.58333" stroke-linecap="round" stroke-linejoin="round" stroke-miterlimit="10" fill="#BFBFBF"/><rect x="2200.5" y="697.5" width="1059" height="189" stroke="#000000" stroke-width="4.58333" stroke-linecap="round" stroke-linejoin="round" stroke-miterlimit="10" fill="#CD984B"/><rect x="2200.5" y="1527.5" width="1059" height="189" stroke="#000000" stroke-width="4.58333" stroke-linecap="round" stroke-linejoin="round" stroke-miterlimit="10" fill="#CD984B"/><rect x="1171.5" y="1504.5" width="651" height="234" stroke="#000000" stroke-width="4.58333" stroke-linecap="round" stroke-linejoin="round" stroke-miterlimit="10" fill="#BFBFBF"/><rect x="1822.5" y="1504.5" width="18.9999" height="234" stroke="#000000" stroke-width="4.58333" stroke-linecap="round" stroke-linejoin="round" stroke-miterlimit="10" fill="#404040"/><rect x="964.5" y="1523.5" width="160" height="196" stroke="#000000" stroke-width="4.58333" stroke-linecap="round" stroke-linejoin="round" stroke-miterlimit="10" fill="#BFBFBF"/><rect x="1161.5" y="1585.5" width="10" height="72.0002" stroke="#000000" stroke-width="4.58333" stroke-linecap="round" stroke-linejoin="round" stroke-miterlimit="10" fill="#BFBFBF"/><rect x="1124.5" y="1608.5" width="37.0001" height="26.0001" stroke="#000000" stroke-width="4.58333" stroke-linecap="round" stroke-linejoin="round" stroke-miterlimit="10" fill="#BFBFBF"/><path d="M572.5 1724.5C572.5 1642.76 638.762 1576.5 720.5 1576.5 802.238 1576.5 868.5 1642.76 868.5 1724.5 868.5 1806.24 802.238 1872.5 720.5 1872.5 638.762 1872.5 572.5 1806.24 572.5 1724.5Z" stroke="#000000" stroke-width="4.58333" stroke-linecap="round" stroke-linejoin="round" stroke-miterlimit="10" fill="#A09A2C" fill-rule="evenodd"/><path d="M583.993 1602.5 585.365 1602.77 585.365 1602.5 2459.5 1602.5 2459.5 1642.5 585.365 1642.5 585.365 1642.23 583.993 1642.5C572.675 1642.5 563.5 1633.55 563.5 1622.5 563.5 1611.45 572.675 1602.5 583.993 1602.5Z" stroke="#000000" stroke-width="4.58333" stroke-linecap="round" stroke-linejoin="round" stroke-miterlimit="10" fill="#CD984B" fill-rule="evenodd"/><text font-family="Noto Sans JP,Noto Sans JP_MSFontService,sans-serif" font-weight="400" font-size="55" transform="matrix(1 0 0 1 637.337 1208)">真鍮球</text><text font-family="Noto Sans JP,Noto Sans JP_MSFontService,sans-serif" font-weight="400" font-size="55" transform="matrix(1 0 0 1 802.337 1208)"> </text><text font-family="Noto Sans JP,Noto Sans JP_MSFontService,sans-serif" font-weight="400" font-size="55" transform="matrix(1 0 0 1 595.514 1274)">Brass Ball</text><text font-family="Noto Sans JP,Noto Sans JP_MSFontService,sans-serif" font-weight="400" font-size="55" transform="matrix(1 0 0 1 844.16 1274)"> </text><text font-family="Noto Sans JP,Noto Sans JP_MSFontService,sans-serif" font-weight="400" font-size="55" transform="matrix(1 0 0 1 624.457 1340)">9.5 mm</text><text font-family="Noto Sans JP,Noto Sans JP_MSFontService,sans-serif" font-weight="400" font-size="55" transform="matrix(1 0 0 1 815.239 1340)"> </text><text font-family="Noto Sans JP,Noto Sans JP_MSFontService,sans-serif" font-weight="400" font-size="55" transform="matrix(1 0 0 1 1299.16 1208)">振動モーター</text><text font-family="Noto Sans JP,Noto Sans JP_MSFontService,sans-serif" font-weight="400" font-size="55" transform="matrix(1 0 0 1 1629.16 1208)"> </text><text font-family="Noto Sans JP,Noto Sans JP_MSFontService,sans-serif" font-weight="400" font-size="55" transform="matrix(1 0 0 1 1266.5 1274)">Vibration Motor</text><text font-family="Noto Sans JP,Noto Sans JP_MSFontService,sans-serif" font-weight="400" font-size="55" transform="matrix(1 0 0 1 1661.82 1274)"> </text><text font-family="Arial,Arial_MSFontService,sans-serif" font-weight="400" font-size="55" transform="matrix(1 0 0 1 1360.74 1340)">0716</text><text font-family="Arial,Arial_MSFontService,sans-serif" font-weight="400" font-size="55" transform="matrix(1 0 0 1 1482.2 1340)">-</text><text font-family="Arial,Arial_MSFontService,sans-serif" font-weight="400" font-size="55" transform="matrix(1 0 0 1 1500.53 1340)">5V</text><text font-family="Arial,Arial_MSFontService,sans-serif" font-weight="400" font-size="55" transform="matrix(1 0 0 1 1567.56 1340)"> </text><text font-family="Noto Sans JP,Noto Sans JP_MSFontService,sans-serif" font-weight="400" font-size="55" transform="matrix(1 0 0 1 1913.34 1208)">銅針金</text><text font-family="Arial,Arial_MSFontService,sans-serif" font-weight="400" font-size="55" transform="matrix(1 0 0 1 2078.34 1208)"> </text><text font-family="Arial,Arial_MSFontService,sans-serif" font-weight="400" font-size="55" transform="matrix(1 0 0 1 1842 1274)">Copper Wire</text><text font-family="Arial,Arial_MSFontService,sans-serif" font-weight="400" font-size="55" transform="matrix(1 0 0 1 2149.66 1274)"> </text><text font-family="Arial,Arial_MSFontService,sans-serif" font-weight="400" font-size="55" transform="matrix(1 0 0 1 1904.17 1340)">1.2 mm</text><text font-family="Arial,Arial_MSFontService,sans-serif" font-weight="400" font-size="55" transform="matrix(1 0 0 1 2087.51 1340)"> </text><text font-family="Noto Sans JP,Noto Sans JP_MSFontService,sans-serif" font-weight="400" font-size="55" transform="matrix(1 0 0 1 2524.5 1208)">銅パイプ</text><text font-family="Arial,Arial_MSFontService,sans-serif" font-weight="400" font-size="55" transform="matrix(1 0 0 1 2744.5 1208)"> </text><text font-family="Arial,Arial_MSFontService,sans-serif" font-weight="400" font-size="55" transform="matrix(1 0 0 1 2482.38 1274)">Copper Pipe</text><text font-family="Arial,Arial_MSFontService,sans-serif" font-weight="400" font-size="55" transform="matrix(1 0 0 1 2786.6 1274)"> </text><text font-family="Arial,Arial_MSFontService,sans-serif" font-weight="400" font-size="55" transform="matrix(1 0 0 1 2565.75 1340)">5 mm</text><text font-family="Arial,Arial_MSFontService,sans-serif" font-weight="400" font-size="55" transform="matrix(1 0 0 1 2703.25 1340)"> </text><path d="M4.58333-4.85045e-06 4.58369 341.018C4.5837 343.549 2.53167 345.601 0.000365743 345.601-2.53094 345.601-4.58297 343.549-4.58297 341.018L-4.58333 4.85045e-06C-4.58334-2.5313-2.53131-4.58333-4.85045e-06-4.58333 2.5313-4.58334 4.58333-2.53131 4.58333-4.85045e-06ZM13.7504 341.018C13.7504 348.612 7.59429 354.768 0.000375444 354.768-7.59354 354.768-13.7496 348.612-13.7496 341.018-13.7496 333.424-7.59357 327.268 0.000346341 327.268 7.59426 327.268 13.7504 333.424 13.7504 341.018Z" transform="matrix(1 0 0 -1 720.5 1132.52)"/><path d="M725.083 1377.5 725.084 1738.24C725.084 1740.78 723.032 1742.83 720.5 1742.83 717.969 1742.83 715.917 1740.78 715.917 1738.24L715.917 1377.5C715.917 1374.97 717.969 1372.92 720.5 1372.92 723.031 1372.92 725.083 1374.97 725.083 1377.5ZM734.25 1738.24C734.25 1745.84 728.094 1751.99 720.5 1751.99 712.906 1751.99 706.75 1745.84 706.75 1738.25 706.75 1730.65 712.906 1724.49 720.5 1724.49 728.094 1724.49 734.25 1730.65 734.25 1738.24Z"/><path d="M4.58333-4.85045e-06 4.58369 341.018C4.5837 343.549 2.53167 345.601 0.000365743 345.601-2.53094 345.601-4.58297 343.549-4.58297 341.018L-4.58333 4.85045e-06C-4.58334-2.5313-2.53131-4.58333-4.85045e-06-4.58333 2.5313-4.58334 4.58333-2.53131 4.58333-4.85045e-06ZM13.7504 341.018C13.7504 348.612 7.59429 354.768 0.000375444 354.768-7.59354 354.768-13.7496 348.612-13.7496 341.018-13.7496 333.424-7.59357 327.268 0.000346341 327.268 7.59426 327.268 13.7504 333.424 13.7504 341.018Z" transform="matrix(1 0 0 -1 1467.5 1132.52)"/><path d="M1472.08 1377.5 1472.08 1558.54C1472.08 1561.07 1470.03 1563.12 1467.5 1563.12 1464.97 1563.12 1462.92 1561.07 1462.92 1558.54L1462.92 1377.5C1462.92 1374.97 1464.97 1372.92 1467.5 1372.92 1470.03 1372.92 1472.08 1374.97 1472.08 1377.5ZM1481.25 1558.54C1481.25 1566.14 1475.09 1572.29 1467.5 1572.29 1459.91 1572.29 1453.75 1566.14 1453.75 1558.54 1453.75 1550.95 1459.91 1544.79 1467.5 1544.79 1475.09 1544.79 1481.25 1550.95 1481.25 1558.54Z"/><path d="M2001.08 1377.5 2001.08 1625C2001.08 1627.53 1999.03 1629.58 1996.5 1629.58 1993.97 1629.58 1991.92 1627.53 1991.92 1625L1991.92 1377.5C1991.92 1374.97 1993.97 1372.92 1996.5 1372.92 1999.03 1372.92 2001.08 1374.97 2001.08 1377.5ZM2010.25 1625C2010.25 1632.59 2004.09 1638.75 1996.5 1638.75 1988.91 1638.75 1982.75 1632.59 1982.75 1625 1982.75 1617.41 1988.91 1611.25 1996.5 1611.25 2004.09 1611.25 2010.25 1617.41 2010.25 1625Z"/><path d="M4.58333-8.22046e-06 4.58369 201.216C4.5837 203.748 2.53167 205.8 0.000369113 205.8-2.53094 205.8-4.58297 203.748-4.58297 201.216L-4.58333 8.22046e-06C-4.58334-2.5313-2.53131-4.58333-8.22046e-06-4.58333 2.5313-4.58334 4.58333-2.53131 4.58333-8.22046e-06ZM13.7504 201.216C13.7504 208.81 7.5943 214.966 0.000385554 214.966-7.59353 214.966-13.7496 208.81-13.7496 201.216-13.7497 193.622-7.59358 187.466 0.000336231 187.466 7.59425 187.466 13.7503 193.622 13.7504 201.216Z" transform="matrix(1 0 0 -1 1996.5 1123.72)"/><path d="M2656.08 1377.5 2656.08 1625C2656.08 1627.53 2654.03 1629.58 2651.5 1629.58 2648.97 1629.58 2646.92 1627.53 2646.92 1625L2646.92 1377.5C2646.92 1374.97 2648.97 1372.92 2651.5 1372.92 2654.03 1372.92 2656.08 1374.97 2656.08 1377.5ZM2665.25 1625C2665.25 1632.59 2659.09 1638.75 2651.5 1638.75 2643.91 1638.75 2637.75 1632.59 2637.75 1625 2637.75 1617.41 2643.91 1611.25 2651.5 1611.25 2659.09 1611.25 2665.25 1617.41 2665.25 1625Z"/><path d="M4.58333-4.93333e-06 4.58369 335.289C4.5837 337.82 2.53167 339.872 0.000365826 339.872-2.53094 339.872-4.58297 337.82-4.58297 335.289L-4.58333 4.93333e-06C-4.58334-2.5313-2.53131-4.58333-4.93333e-06-4.58333 2.5313-4.58334 4.58333-2.53131 4.58333-4.93333e-06ZM13.7504 335.288C13.7504 342.882 7.59429 349.039 0.000375692 349.039-7.59354 349.039-13.7496 342.882-13.7496 335.289-13.7496 327.695-7.59357 321.539 0.000346092 321.539 7.59426 321.539 13.7504 327.695 13.7504 335.288Z" transform="matrix(1 0 0 -1 2651.5 1126.79)"/><path d="M2844.5 662.5C2829 685.194 2813.5 707.889 2813.5 729.389 2813.5 750.889 2829 771.194 2844.5 791.5" stroke="#FFFFFF" stroke-width="36.6667" stroke-linecap="round" stroke-linejoin="round" stroke-miterlimit="10" fill="none" fill-rule="evenodd"/><path d="M30.9999 0C15.5 22.6943 0 45.3889 0 66.8888 0 88.3888 15.5 108.694 30.9999 129" stroke="#FFFFFF" stroke-width="36.6667" stroke-linecap="round" stroke-linejoin="round" stroke-miterlimit="10" fill="none" fill-rule="evenodd" transform="matrix(-1 0 0 1 2875.5 791.5)"/><path d="M2844.5 1492.5C2829 1515.19 2813.5 1537.89 2813.5 1559.39 2813.5 1580.89 2829 1601.19 2844.5 1621.5" stroke="#FFFFFF" stroke-width="36.6667" stroke-linecap="round" stroke-linejoin="round" stroke-miterlimit="10" fill="none" fill-rule="evenodd"/><path d="M30.9999 0C15.5 22.6943 0 45.3889 0 66.8888 0 88.3888 15.5 108.694 30.9999 129" stroke="#FFFFFF" stroke-width="36.6667" stroke-linecap="round" stroke-linejoin="round" stroke-miterlimit="10" fill="none" fill-rule="evenodd" transform="matrix(-1 0 0 1 2875.5 1621.5)"/></g></svg>