<svg width="3252" height="1158" xmlns="http://www.w3.org/2000/svg" xmlns:xlink="http://www.w3.org/1999/xlink" xml:space="preserve" overflow="hidden"><defs><clipPath id="clip0"><rect x="316" y="509" width="3252" height="1158"/></clipPath></defs><g clip-path="url(#clip0)" transform="translate(-316 -509)"><rect x="316" y="509" width="3252" height="1158" fill="#FFFFFF"/><path d="M0 17.4983C2.27891e-14 27.1624 31.3372 34.9966 69.9937 34.9966 108.65 34.9966 139.987 27.1624 139.987 17.4983L139.987 340.502C139.987 350.166 108.65 358 69.9933 358 31.3368 358-0.000391514 350.166-0.000391514 340.502Z" fill="#F2F2F2" fill-rule="evenodd" transform="matrix(1.83697e-16 1 1 -1.83697e-16 1166.5 1305.5)"/><path d="M0 17.4983C-2.27891e-14 7.83426 31.3372-8.54591e-15 69.9937-1.13946e-14 108.65-1.70918e-14 139.987 7.83426 139.987 17.4983 139.987 27.1624 108.65 34.9966 69.9937 34.9966 31.3372 34.9966-4.55782e-14 27.1624 0 17.4983Z" fill="#F7F7F7" fill-rule="evenodd" transform="matrix(1.83697e-16 1 1 -1.83697e-16 1166.5 1305.5)"/><path d="M139.987 17.4983C139.987 27.1624 108.65 34.9966 69.9933 34.9966 31.3368 34.9966-0.000391514 27.1624-0.000391514 17.4983-0.000391514 7.83426 31.3368-2.84864e-15 69.9933-5.69728e-15 108.65-1.13946e-14 139.987 7.83426 139.987 17.4983L139.987 340.502C139.987 350.166 108.65 358 69.9933 358 31.3368 358-0.000391514 350.166-0.000391514 340.502L0 17.4983" stroke="#BFBFBF" stroke-width="9.16667" stroke-linecap="round" stroke-linejoin="round" stroke-miterlimit="10" fill="none" fill-rule="evenodd" transform="matrix(1.83697e-16 1 1 -1.83697e-16 1166.5 1305.5)"/><path d="M1299.77 1139.18 1319.42 1280.69C1319.59 1281.94 1318.72 1283.1 1317.46 1283.28 1316.21 1283.45 1315.05 1282.57 1314.88 1281.32L1295.23 1139.82C1295.06 1138.56 1295.93 1137.4 1297.18 1137.23 1298.44 1137.06 1299.6 1137.93 1299.77 1139.18ZM1330.14 1274.58 1320.3 1303.7 1302.9 1278.36Z"/><text font-family="Noto Sans JP,Noto Sans JP_MSFontService,sans-serif" font-weight="400" font-size="55" transform="matrix(1 0 0 1 1031.1 1129)">Aluminum Pipe</text><text font-family="Noto Sans JP,Noto Sans JP_MSFontService,sans-serif" font-weight="400" font-size="55" transform="matrix(1 0 0 1 1424.12 1129)"> </text><rect x="0" y="0" width="417" height="497" stroke="#000000" stroke-width="4.58333" stroke-linecap="round" stroke-linejoin="round" stroke-miterlimit="10" fill="#E8E8E8" transform="matrix(-1 0 0 1 2339.5 834.5)"/><text font-family="Noto Sans JP,Noto Sans JP_MSFontService,sans-serif" font-weight="400" font-size="55" transform="matrix(1 0 0 1 2148.16 978)">ATtiny</text><text font-family="Noto Sans JP,Noto Sans JP_MSFontService,sans-serif" font-weight="400" font-size="55" transform="matrix(1 0 0 1 2307.43 978)"> </text><text font-family="Noto Sans JP,Noto Sans JP_MSFontService,sans-serif" font-weight="400" font-size="55" transform="matrix(1 0 0 1 2182.26 1044)">402</text><text font-family="Noto Sans JP,Noto Sans JP_MSFontService,sans-serif" font-weight="400" font-size="55" transform="matrix(1 0 0 1 2273.35 1044)"> </text><path d="M2.29167-3.27297e-06 2.29203 252.69C2.29203 253.955 1.26602 254.981 0.000364165 254.981-1.26529 254.981-2.2913 253.955-2.29131 252.69L-2.29167 3.27297e-06C-2.29167-1.26565-1.26566-2.29166-3.27297e-06-2.29167 1.26565-2.29167 2.29166-1.26566 2.29167-3.27297e-06ZM13.7504 252.69C13.7504 260.284 7.5943 266.44 0.00038053 266.44-7.59354 266.44-13.7496 260.284-13.7496 252.69-13.7497 245.096-7.59358 238.94 0.000341255 238.94 7.59426 238.94 13.7503 245.096 13.7504 252.69Z" transform="matrix(1 0 0 -1 2144.5 1544.19)"/><path d="M0 22 22 0 44 22Z" stroke="#000000" stroke-width="4.58333" stroke-linecap="round" stroke-linejoin="round" stroke-miterlimit="10" fill="#FFFFFF" fill-rule="evenodd" transform="matrix(1 -1.22465e-16 -1.22465e-16 -1 2120.5 1567.5)"/><path d="M1965.5 1289.5 2302.03 1289.5" stroke="#000000" stroke-width="4.58333" stroke-linecap="round" stroke-linejoin="round" stroke-miterlimit="10" fill="none" fill-rule="evenodd"/><path d="M1965.5 871.5 2302.03 871.5" stroke="#000000" stroke-width="4.58333" stroke-linecap="round" stroke-linejoin="round" stroke-miterlimit="10" fill="none" fill-rule="evenodd"/><path d="M2020.79 872.5 2020.79 1290.2C2020.79 1291.47 2019.77 1292.49 2018.5 1292.49 2017.23 1292.49 2016.21 1291.47 2016.21 1290.2L2016.21 872.5C2016.21 871.234 2017.23 870.208 2018.5 870.208 2019.77 870.208 2020.79 871.234 2020.79 872.5ZM2004.75 872.5C2004.75 864.906 2010.91 858.75 2018.5 858.75 2026.09 858.75 2032.25 864.906 2032.25 872.5 2032.25 880.094 2026.09 886.25 2018.5 886.25 2010.91 886.25 2004.75 880.094 2004.75 872.5ZM2032.25 1290.2C2032.25 1297.8 2026.09 1303.95 2018.5 1303.95 2010.91 1303.95 2004.75 1297.8 2004.75 1290.2 2004.75 1282.61 2010.91 1276.45 2018.5 1276.45 2026.09 1276.45 2032.25 1282.61 2032.25 1290.2Z"/><path d="M0 46.9997 28.4999 0 56.9997 46.9997Z" stroke="#000000" stroke-width="4.58333" stroke-linecap="round" stroke-linejoin="round" stroke-miterlimit="10" fill-rule="evenodd" transform="matrix(-1 0 0 1 2047.5 965.5)"/><path d="M0 0 0.000360892 57.0307" stroke="#000000" stroke-width="9.16667" stroke-miterlimit="8" fill-rule="evenodd" transform="matrix(-6.12323e-17 -1 -1 6.12323e-17 2047.53 965.5)"/><path d="M0 46.0001 28.4999 0 56.9997 46.0001Z" stroke="#000000" stroke-width="4.58333" stroke-linecap="round" stroke-linejoin="round" stroke-miterlimit="10" fill-rule="evenodd" transform="matrix(-1 0 0 1 2047.5 1179.5)"/><path d="M0 0 0.000360892 57.0307" stroke="#000000" stroke-width="9.16667" stroke-miterlimit="8" fill-rule="evenodd" transform="matrix(-6.12323e-17 -1 -1 6.12323e-17 2047.53 1179.5)"/><path d="M2019.5 1112.21 2051.58 1112.21C2052.85 1112.21 2053.88 1113.23 2053.88 1114.5 2053.88 1115.77 2052.85 1116.79 2051.58 1116.79L2019.5 1116.79C2018.23 1116.79 2017.21 1115.77 2017.21 1114.5 2017.21 1113.23 2018.23 1112.21 2019.5 1112.21ZM2069.92 1112.21 2102 1112.21C2103.27 1112.21 2104.29 1113.23 2104.29 1114.5 2104.29 1115.77 2103.27 1116.79 2102 1116.79L2069.92 1116.79C2068.65 1116.79 2067.62 1115.77 2067.62 1114.5 2067.62 1113.23 2068.65 1112.21 2069.92 1112.21ZM2120.33 1112.21 2147.61 1112.21C2148.88 1112.21 2149.9 1113.23 2149.9 1114.5 2149.9 1115.77 2148.87 1116.79 2147.61 1116.79L2120.33 1116.79C2119.07 1116.79 2118.04 1115.77 2118.04 1114.5 2118.04 1113.23 2119.07 1112.21 2120.33 1112.21ZM2019.5 1128.25C2011.91 1128.25 2005.75 1122.09 2005.75 1114.5 2005.75 1106.91 2011.91 1100.75 2019.5 1100.75 2027.09 1100.75 2033.25 1106.91 2033.25 1114.5 2033.25 1122.09 2027.09 1128.25 2019.5 1128.25Z"/><text font-family="Noto Sans JP,Noto Sans JP_MSFontService,sans-serif" font-weight="400" font-size="55" transform="matrix(1 0 0 1 2027.29 816)">VCC</text><text font-family="Noto Sans JP,Noto Sans JP_MSFontService,sans-serif" font-weight="400" font-size="55" transform="matrix(1 0 0 1 2126.4 816)"> </text><text font-family="Noto Sans JP,Noto Sans JP_MSFontService,sans-serif" font-weight="400" font-size="55" transform="matrix(1 0 0 1 1501.02 1245)">470</text><text font-family="Noto Sans JP,Noto Sans JP_MSFontService,sans-serif" font-weight="400" font-size="55" transform="matrix(1 0 0 1 1592.11 1245)"> </text><text font-family="Noto Sans JP,Noto Sans JP_MSFontService,sans-serif" font-weight="400" font-size="55" transform="matrix(1 0 0 1 1546.98 1394)">OSUB5161P</text><text font-family="Noto Sans JP,Noto Sans JP_MSFontService,sans-serif" font-weight="400" font-size="55" transform="matrix(1 0 0 1 1852.35 1394)"> </text><path d="M1951.31 964.798 1795.07 934.751C1793.82 934.512 1793.01 933.31 1793.25 932.067 1793.49 930.824 1794.69 930.011 1795.93 930.25L1952.18 960.297C1953.42 960.536 1954.23 961.737 1954 962.98 1953.76 964.223 1952.56 965.037 1951.31 964.798ZM1949.84 948.179 1974.25 966.875 1944.65 975.184Z"/><text font-family="Noto Sans JP,Noto Sans JP_MSFontService,sans-serif" font-weight="400" font-size="55" transform="matrix(1 0 0 1 1547.24 877)">internal</text><text font-family="Noto Sans JP,Noto Sans JP_MSFontService,sans-serif" font-weight="400" font-size="55" transform="matrix(1 0 0 1 1747.19 877)"> </text><text font-family="Noto Sans JP,Noto Sans JP_MSFontService,sans-serif" font-weight="400" font-size="55" transform="matrix(1 0 0 1 1513.74 943)">protection</text><text font-family="Noto Sans JP,Noto Sans JP_MSFontService,sans-serif" font-weight="400" font-size="55" transform="matrix(1 0 0 1 1780.71 943)"> </text><text font-family="Noto Sans JP,Noto Sans JP_MSFontService,sans-serif" font-weight="400" font-size="55" transform="matrix(1 0 0 1 1560.71 1009)">diodes</text><text font-family="Noto Sans JP,Noto Sans JP_MSFontService,sans-serif" font-weight="400" font-size="55" transform="matrix(1 0 0 1 1733.74 1009)"> </text><text font-family="Noto Sans JP,Noto Sans JP_MSFontService,sans-serif" font-weight="400" font-size="55" transform="matrix(1 0 0 1 2411.25 700)">0.1u</text><text font-family="Noto Sans JP,Noto Sans JP_MSFontService,sans-serif" font-weight="400" font-size="55" transform="matrix(1 0 0 1 2520.68 700)"> </text><path d="M2838.5 737.792 2147.5 737.792 2149.79 735.5 2149.79 872.5C2149.79 873.766 2148.77 874.792 2147.5 874.792 2146.23 874.792 2145.21 873.766 2145.21 872.5L2145.21 735.5C2145.21 734.234 2146.23 733.208 2147.5 733.208L2838.5 733.208C2839.77 733.208 2840.79 734.234 2840.79 735.5 2840.79 736.766 2839.77 737.792 2838.5 737.792ZM2161.25 872.5C2161.25 880.094 2155.09 886.25 2147.5 886.25 2139.91 886.25 2133.75 880.094 2133.75 872.5 2133.75 864.906 2139.91 858.75 2147.5 858.75 2155.09 858.75 2161.25 864.906 2161.25 872.5Z"/><text font-family="Noto Sans JP,Noto Sans JP_MSFontService,sans-serif" font-weight="400" font-size="55" transform="matrix(1 0 0 1 2644.1 812)">+</text><text font-family="Noto Sans JP,Noto Sans JP_MSFontService,sans-serif" font-weight="400" font-size="55" transform="matrix(1 0 0 1 2674.47 812)"> </text><text font-family="Noto Sans JP,Noto Sans JP_MSFontService,sans-serif" font-weight="400" font-size="55" transform="matrix(1 0 0 1 2569.09 700)">100u</text><text font-family="Noto Sans JP,Noto Sans JP_MSFontService,sans-serif" font-weight="400" font-size="55" transform="matrix(1 0 0 1 2693.41 700)"> </text><path d="M2.29167-4.03728e-06 2.29203 204.852C2.29203 206.118 1.26602 207.144 0.00036493 207.144-1.26529 207.144-2.2913 206.118-2.29131 204.852L-2.29167 4.03728e-06C-2.29167-1.26565-1.26566-2.29166-4.03728e-06-2.29167 1.26565-2.29167 2.29166-1.26566 2.29167-4.03728e-06ZM13.7504 204.852C13.7504 212.446 7.5943 218.602 0.000385116 218.602-7.59353 218.602-13.7496 212.446-13.7496 204.852-13.7497 197.258-7.59358 191.102 0.000336669 191.102 7.59425 191.102 13.7503 197.258 13.7504 204.852Z" transform="matrix(1 0 0 -1 2470.5 941.352)"/><path d="M2.29167-4.05064e-06 2.29203 204.176C2.29203 205.442 1.26602 206.468 0.000364943 206.468-1.26529 206.468-2.2913 205.442-2.29131 204.176L-2.29167 4.05064e-06C-2.29167-1.26565-1.26566-2.29166-4.05064e-06-2.29167 1.26565-2.29167 2.29166-1.26566 2.29167-4.05064e-06ZM13.7504 204.176C13.7504 211.77 7.5943 217.926 0.000385196 217.926-7.59353 217.926-13.7496 211.77-13.7496 204.176-13.7497 196.582-7.59358 190.426 0.000336589 190.426 7.59425 190.426 13.7503 196.582 13.7504 204.176Z" transform="matrix(1 0 0 -1 2633.5 940.676)"/><path d="M0 23 22 0 44 23Z" stroke="#000000" stroke-width="4.58333" stroke-linecap="round" stroke-linejoin="round" stroke-miterlimit="10" fill="#FFFFFF" fill-rule="evenodd" transform="matrix(1 -1.22465e-16 -1.22465e-16 -1 2446.5 962.5)"/><path d="M0 23 21.5 0 43 23Z" stroke="#000000" stroke-width="4.58333" stroke-linecap="round" stroke-linejoin="round" stroke-miterlimit="10" fill="#FFFFFF" fill-rule="evenodd" transform="matrix(1 -1.22465e-16 -1.22465e-16 -1 2611.5 962.5)"/><rect x="0" y="0" width="89" height="39.0002" fill="#FFFFFF" transform="matrix(-1 0 0 1 2680 820)"/><path d="M0 0 88.9513 0.000360892" stroke="#000000" stroke-width="9.16667" stroke-miterlimit="8" fill-rule="evenodd" transform="matrix(-1 0 0 1 2680.45 819.5)"/><path d="M0 0 88.9513 0.000360892" stroke="#000000" stroke-width="9.16667" stroke-miterlimit="8" fill-rule="evenodd" transform="matrix(-1 0 0 1 2680.45 859.5)"/><path d="M0 0 24.187 36.4364" stroke="#000000" stroke-width="4.58333" stroke-linecap="round" stroke-linejoin="round" stroke-miterlimit="10" fill="none" fill-rule="evenodd" transform="matrix(1 0 0 -1 2624.5 855.936)"/><path d="M0 0 24.187 36.4364" stroke="#000000" stroke-width="4.58333" stroke-linecap="round" stroke-linejoin="round" stroke-miterlimit="10" fill="none" fill-rule="evenodd" transform="matrix(1 0 0 -1 2651.5 855.936)"/><path d="M0 0 24.187 36.4364" stroke="#000000" stroke-width="4.58333" stroke-linecap="round" stroke-linejoin="round" stroke-miterlimit="10" fill="none" fill-rule="evenodd" transform="matrix(1 0 0 -1 2597.5 855.936)"/><rect x="0" y="0" width="606" height="347" stroke="#000000" stroke-width="4.58333" stroke-linecap="round" stroke-linejoin="round" stroke-miterlimit="10" fill="none" transform="matrix(-1 0 0 1 1247.5 1199.5)"/><path d="M1277.5 1349.5 1249 1395.5 1220.5 1349.5Z" stroke="#000000" stroke-width="4.58333" stroke-linecap="round" stroke-linejoin="round" stroke-miterlimit="10" fill-rule="evenodd"/><path d="M1277.53 1395.5 1220.5 1395.5" stroke="#000000" stroke-width="9.16667" stroke-miterlimit="8" fill-rule="evenodd"/><path d="M1217.93 1363.64 1193.16 1373.1 1191.53 1368.82 1216.29 1359.36ZM1199.9 1377.89 1179.5 1375.86 1193.36 1360.76Z"/><path d="M1217.93 1384.64 1193.16 1394.1 1191.53 1389.82 1216.29 1380.36ZM1199.9 1398.89 1179.5 1396.86 1193.36 1381.76Z"/><path d="M0 48.5C-6.17469e-15 21.7142 21.7142-6.17469e-15 48.5-1.23494e-14 75.2858-2.46988e-14 96.9999 21.7142 96.9999 48.5 96.9999 75.2858 75.2858 96.9999 48.5 96.9999 21.7142 96.9999-3.08735e-14 75.2858 0 48.5Z" stroke="#000000" stroke-width="4.58333" stroke-linecap="round" stroke-linejoin="round" stroke-miterlimit="10" fill="#FFFFFF" fill-rule="evenodd" transform="matrix(-1 0 0 1 690.5 1324.5)"/><path d="M635.917 1400.86 635.916 1360.42C635.916 1357.89 637.968 1355.83 640.5 1355.83 643.031 1355.83 645.083 1357.89 645.083 1360.42L645.083 1400.86C645.083 1403.39 643.031 1405.44 640.5 1405.44 637.969 1405.44 635.917 1403.39 635.917 1400.86ZM626.75 1365 640.5 1337.5 654.25 1365Z"/><text font-family="Noto Sans JP,Noto Sans JP_MSFontService,sans-serif" font-weight="400" font-size="55" transform="matrix(1 0 0 1 397.727 1393)">600mA</text><text font-family="Noto Sans JP,Noto Sans JP_MSFontService,sans-serif" font-weight="400" font-size="55" transform="matrix(1 0 0 1 573.04 1393)"> </text><text font-family="Noto Sans JP,Noto Sans JP_MSFontService,sans-serif" font-weight="400" font-size="55" transform="matrix(1 0 0 1 775.213 1394)">OSV1XME3E1E</text><text font-family="Noto Sans JP,Noto Sans JP_MSFontService,sans-serif" font-weight="400" font-size="55" transform="matrix(1 0 0 1 1145.32 1394)"> </text><path d="M2018.5 1117.79 1464.5 1117.79 1466.79 1115.5 1466.79 1545.5C1466.79 1546.77 1465.77 1547.79 1464.5 1547.79 1463.23 1547.79 1462.21 1546.77 1462.21 1545.5L1462.21 1115.5C1462.21 1114.23 1463.23 1113.21 1464.5 1113.21L2018.5 1113.21C2019.77 1113.21 2020.79 1114.23 2020.79 1115.5 2020.79 1116.77 2019.77 1117.79 2018.5 1117.79ZM2018.5 1101.75C2026.09 1101.75 2032.25 1107.91 2032.25 1115.5 2032.25 1123.09 2026.09 1129.25 2018.5 1129.25 2010.91 1129.25 2004.75 1123.09 2004.75 1115.5 2004.75 1107.91 2010.91 1101.75 2018.5 1101.75Z"/><rect x="0" y="0" width="88" height="35.0001" stroke="#000000" stroke-width="4.58333" stroke-linecap="round" stroke-linejoin="round" stroke-miterlimit="10" fill="#E8E8E8" transform="matrix(1.83697e-16 1 1 -1.83697e-16 1446.5 1181.5)"/><path d="M0 46.0001 28.5 0 57.0001 46.0001Z" stroke="#000000" stroke-width="4.58333" stroke-linecap="round" stroke-linejoin="round" stroke-miterlimit="10" fill-rule="evenodd" transform="matrix(1 -1.22465e-16 -1.22465e-16 -1 1435.5 1394.5)"/><path d="M0 0 0.000360892 57.0325" stroke="#000000" stroke-width="9.16667" stroke-miterlimit="8" fill-rule="evenodd" transform="matrix(1.83697e-16 1 1 -1.83697e-16 1435.5 1394.5)"/><path d="M2.14087-0.817554 11.5987 23.949 7.31696 25.5842-2.14087 0.817554ZM16.3862 17.2146 14.3632 37.6118-0.740771 23.7551Z" transform="matrix(1.83697e-16 1 1 -1.83697e-16 1496.5 1360.5)"/><path d="M2.14087-0.817554 11.5987 23.949 7.31696 25.5842-2.14087 0.817554ZM16.3862 17.2146 14.3632 37.6118-0.740771 23.7551Z" transform="matrix(1.83697e-16 1 1 -1.83697e-16 1496.5 1381.5)"/><path d="M0 22 21.5 0 43 22Z" stroke="#000000" stroke-width="4.58333" stroke-linecap="round" stroke-linejoin="round" stroke-miterlimit="10" fill="#FFFFFF" fill-rule="evenodd" transform="matrix(1 -1.22465e-16 -1.22465e-16 -1 1442.5 1567.5)"/><path d="M1299 1362.13 1381.5 1362.13C1385.3 1362.13 1388.38 1365.2 1388.38 1369 1388.38 1372.8 1385.3 1375.88 1381.5 1375.88L1299 1375.88C1295.2 1375.88 1292.12 1372.8 1292.12 1369 1292.12 1365.2 1295.2 1362.13 1299 1362.13ZM1374.63 1348.38 1415.88 1369 1374.62 1389.63Z" fill="#D86ECC"/><text font-family="Noto Sans JP,Noto Sans JP_MSFontService,sans-serif" font-weight="400" font-size="55" transform="matrix(1 0 0 1 2550.14 1245)">1k</text><text font-family="Noto Sans JP,Noto Sans JP_MSFontService,sans-serif" font-weight="400" font-size="55" transform="matrix(1 0 0 1 2610.87 1245)"> </text><text font-family="Noto Sans JP,Noto Sans JP_MSFontService,sans-serif" font-weight="400" font-size="55" transform="matrix(1 0 0 1 2604.47 1398)">Red</text><text font-family="Noto Sans JP,Noto Sans JP_MSFontService,sans-serif" font-weight="400" font-size="55" transform="matrix(1 0 0 1 2703.59 1398)"> </text><path d="M181 0 0 0 0 430" stroke="#000000" stroke-width="4.58333" stroke-linecap="round" stroke-linejoin="round" stroke-miterlimit="10" fill="none" fill-rule="evenodd" transform="matrix(-1 0 0 1 2519.5 1115.5)"/><rect x="2502.5" y="1181.5" width="35" height="88" stroke="#000000" stroke-width="4.58333" stroke-linecap="round" stroke-linejoin="round" stroke-miterlimit="10" fill="#E8E8E8"/><path d="M0 46.0001 28.5 0 57.0001 46.0001Z" stroke="#000000" stroke-width="4.58333" stroke-linecap="round" stroke-linejoin="round" stroke-miterlimit="10" fill-rule="evenodd" transform="matrix(1 -1.22465e-16 -1.22465e-16 -1 2491.5 1394.5)"/><path d="M0 0 0.000360892 57.0325" stroke="#000000" stroke-width="9.16667" stroke-miterlimit="8" fill-rule="evenodd" transform="matrix(1.83697e-16 1 1 -1.83697e-16 2491.5 1394.5)"/><path d="M2.14087-0.817554 11.5987 23.949 7.31696 25.5842-2.14087 0.817554ZM16.3862 17.2146 14.3632 37.6118-0.740771 23.7551Z" transform="matrix(1.83697e-16 1 1 -1.83697e-16 2551.5 1360.5)"/><path d="M2.14087-0.817554 11.5987 23.949 7.31696 25.5842-2.14087 0.817554ZM16.3862 17.2146 14.3632 37.6118-0.740771 23.7551Z" transform="matrix(1.83697e-16 1 1 -1.83697e-16 2551.5 1381.5)"/><path d="M2541.5 1545.5 2520 1567.5 2498.5 1545.5Z" stroke="#000000" stroke-width="4.58333" stroke-linecap="round" stroke-linejoin="round" stroke-miterlimit="10" fill="#FFFFFF" fill-rule="evenodd"/><path d="M2828.5 689.5 2958.5 777 2828.5 864.5Z" stroke="#000000" stroke-width="4.58333" stroke-linecap="round" stroke-linejoin="round" stroke-miterlimit="10" fill="#F2F2F2" fill-rule="evenodd"/><path d="M58.0001 95.0002 0 95.0002 0 0" stroke="#000000" stroke-width="4.58333" stroke-linecap="round" stroke-linejoin="round" stroke-miterlimit="10" fill="none" fill-rule="evenodd" transform="matrix(1 0 0 -1 2768.5 909.5)"/><path d="M240 133.292 0 133.292C-1.26565 133.292-2.29167 132.266-2.29167 131L-2.29167 0C-2.29167-1.26565-1.26565-2.29167 0-2.29167 1.26565-2.29167 2.29167-1.26565 2.29167 0L2.29167 131 0 128.708 240 128.708C241.266 128.708 242.292 129.734 242.292 131 242.292 132.266 241.266 133.292 240 133.292ZM-13.75 0C-13.75-7.59392-7.59392-13.75 0-13.75 7.59392-13.75 13.75-7.59392 13.75 0 13.75 7.59392 7.59392 13.75 0 13.75-7.59392 13.75-13.75 7.59392-13.75 0Z" transform="matrix(-1 0 0 1 3008.5 778.5)"/><text font-family="Noto Sans JP,Noto Sans JP_MSFontService,sans-serif" font-weight="400" font-size="55" transform="matrix(1 0 0 1 2821.89 660)">Buffer</text><text font-family="Noto Sans JP,Noto Sans JP_MSFontService,sans-serif" font-weight="400" font-size="55" transform="matrix(1 0 0 1 2977.15 660)"> </text><text font-family="Noto Sans JP,Noto Sans JP_MSFontService,sans-serif" font-weight="400" font-size="41" transform="matrix(1 0 0 1 2835.18 752)">＋</text><text font-family="Noto Sans JP,Noto Sans JP_MSFontService,sans-serif" font-weight="400" font-size="41" transform="matrix(1 0 0 1 2876.43 752)"> </text><text font-family="Noto Sans JP,Noto Sans JP_MSFontService,sans-serif" font-weight="400" font-size="41" transform="matrix(1 0 0 1 2835.18 830)">－</text><text font-family="Noto Sans JP,Noto Sans JP_MSFontService,sans-serif" font-weight="400" font-size="41" transform="matrix(1 0 0 1 2876.43 830)"> </text><text font-family="Noto Sans JP,Noto Sans JP_MSFontService,sans-serif" font-weight="400" font-size="55" transform="matrix(1 0 0 1 2011.25 1394)">GND</text><text font-family="Noto Sans JP,Noto Sans JP_MSFontService,sans-serif" font-weight="400" font-size="55" transform="matrix(1 0 0 1 2126.4 1394)"> </text><text font-family="Noto Sans JP,Noto Sans JP_MSFontService,sans-serif" font-weight="400" font-size="55" transform="matrix(1 0 0 1 1812.1 1098)">PA3</text><text font-family="Noto Sans JP,Noto Sans JP_MSFontService,sans-serif" font-weight="400" font-size="55" transform="matrix(1 0 0 1 1907.2 1098)"> </text><text font-family="Noto Sans JP,Noto Sans JP_MSFontService,sans-serif" font-weight="400" font-size="55" transform="matrix(1 0 0 1 2355.95 1098)">PA2</text><text font-family="Noto Sans JP,Noto Sans JP_MSFontService,sans-serif" font-weight="400" font-size="55" transform="matrix(1 0 0 1 2451.05 1098)"> </text><rect x="0" y="0" width="88.9997" height="39.0002" fill="#FFFFFF" transform="matrix(-1 0 0 1 2514 820)"/><path d="M0 0 88.9513 0.000360892" stroke="#000000" stroke-width="9.16667" stroke-miterlimit="8" fill-rule="evenodd" transform="matrix(-1 0 0 1 2514.45 819.5)"/><path d="M0 0 88.9513 0.000360892" stroke="#000000" stroke-width="9.16667" stroke-miterlimit="8" fill-rule="evenodd" transform="matrix(-1 0 0 1 2514.45 859.5)"/><path d="M2951.5 778.5 3123.5 778.5 3123.5 1070.5" stroke="#000000" stroke-width="4.58333" stroke-linecap="round" stroke-linejoin="round" stroke-miterlimit="10" fill="none" fill-rule="evenodd"/><path d="M0 48.5C-6.17469e-15 21.7142 21.7142-6.17469e-15 48.5-1.23494e-14 75.2858-2.46988e-14 96.9999 21.7142 96.9999 48.5 96.9999 75.2858 75.2858 96.9999 48.5 96.9999 21.7142 96.9999-3.08735e-14 75.2858 0 48.5Z" stroke="#000000" stroke-width="4.58333" stroke-linecap="round" stroke-linejoin="round" stroke-miterlimit="10" fill="#FFFFFF" fill-rule="evenodd" transform="matrix(-1 0 0 1 3172.5 872.5)"/><text font-family="Meiryo,Meiryo_MSFontService,sans-serif" font-weight="400" font-size="73" transform="matrix(1 0 0 1 3098.27 952)">V</text><text font-family="Noto Sans JP,Noto Sans JP_MSFontService,sans-serif" font-weight="400" font-size="55" transform="matrix(1 0 0 1 3199.93 938)">Voltmeter</text><text font-family="Noto Sans JP,Noto Sans JP_MSFontService,sans-serif" font-weight="400" font-size="55" transform="matrix(1 0 0 1 3451.44 938)"> </text><path d="M0 23 21.5002 0 43.0003 23Z" stroke="#000000" stroke-width="4.58333" stroke-linecap="round" stroke-linejoin="round" stroke-miterlimit="10" fill="#FFFFFF" fill-rule="evenodd" transform="matrix(1 -1.22465e-16 -1.22465e-16 -1 3102.5 1093.5)"/></g></svg>