<svg width="3253" height="1261" xmlns="http://www.w3.org/2000/svg" xmlns:xlink="http://www.w3.org/1999/xlink" xml:space="preserve" overflow="hidden"><defs><clipPath id="clip0"><rect x="37" y="838" width="3253" height="1261"/></clipPath></defs><g clip-path="url(#clip0)" transform="translate(-37 -838)"><rect x="37.0001" y="838" width="3253" height="1261" fill="#FFFFFF"/><rect x="0" y="0" width="619" height="665" stroke="#000000" stroke-width="4.58333" stroke-linecap="round" stroke-linejoin="round" stroke-miterlimit="10" fill="#E8E8E8" transform="matrix(-1 0 0 1 1448.5 1138.5)"/><path d="M2.29167-3.84173e-06 2.29203 215.279C2.29203 216.545 1.26602 217.571 0.000364734 217.571-1.26529 217.571-2.2913 216.545-2.29131 215.279L-2.29167 3.84173e-06C-2.29167-1.26565-1.26566-2.29166-3.84173e-06-2.29167 1.26565-2.29167 2.29166-1.26566 2.29167-3.84173e-06ZM13.7504 215.279C13.7504 222.873 7.5943 229.029 0.000383943 229.029-7.59353 229.029-13.7496 222.873-13.7496 215.279-13.7497 207.685-7.59358 201.529 0.000337842 201.529 7.59425 201.529 13.7503 207.685 13.7504 215.279Z" transform="matrix(1 0 0 -1 1259.5 1931.78)"/><path d="M0 23 21.5 0 43 23Z" stroke="#000000" stroke-width="4.58333" stroke-linecap="round" stroke-linejoin="round" stroke-miterlimit="10" fill="#FFFFFF" fill-rule="evenodd" transform="matrix(1 -1.22465e-16 -1.22465e-16 -1 1239.5 1953.5)"/><path d="M901.5 1716.5 1358.17 1716.5" stroke="#000000" stroke-width="4.58333" stroke-linecap="round" stroke-linejoin="round" stroke-miterlimit="10" fill="none" fill-rule="evenodd"/><path d="M901.5 1229.5 1358.17 1229.5" stroke="#000000" stroke-width="4.58333" stroke-linecap="round" stroke-linejoin="round" stroke-miterlimit="10" fill="none" fill-rule="evenodd"/><path d="M944.792 1230.5 944.792 1716.58C944.792 1717.85 943.766 1718.87 942.5 1718.87 941.235 1718.87 940.209 1717.85 940.209 1716.58L940.208 1230.5C940.208 1229.23 941.234 1228.21 942.5 1228.21 943.766 1228.21 944.792 1229.23 944.792 1230.5ZM928.75 1230.5C928.75 1222.91 934.906 1216.75 942.5 1216.75 950.094 1216.75 956.25 1222.91 956.25 1230.5 956.25 1238.09 950.094 1244.25 942.5 1244.25 934.906 1244.25 928.75 1238.09 928.75 1230.5ZM956.25 1716.58C956.25 1724.18 950.094 1730.33 942.5 1730.33 934.906 1730.33 928.75 1724.18 928.75 1716.58 928.75 1708.99 934.906 1702.83 942.5 1702.83 950.094 1702.83 956.25 1708.99 956.25 1716.58Z"/><path d="M0 47.0001 28.5 0 57.0001 47.0001Z" stroke="#000000" stroke-width="4.58333" stroke-linecap="round" stroke-linejoin="round" stroke-miterlimit="10" fill-rule="evenodd" transform="matrix(-1 0 0 1 972.5 1323.5)"/><path d="M0 0 0.000360892 57.0307" stroke="#000000" stroke-width="9.16667" stroke-miterlimit="8" fill-rule="evenodd" transform="matrix(-6.12323e-17 -1 -1 6.12323e-17 972.53 1323.5)"/><path d="M0 46.0001 28.5 0 57.0001 46.0001Z" stroke="#000000" stroke-width="4.58333" stroke-linecap="round" stroke-linejoin="round" stroke-miterlimit="10" fill-rule="evenodd" transform="matrix(-1 0 0 1 972.5 1573.5)"/><path d="M0 0 0.000360892 57.0307" stroke="#000000" stroke-width="9.16667" stroke-miterlimit="8" fill-rule="evenodd" transform="matrix(-6.12323e-17 -1 -1 6.12323e-17 972.53 1573.5)"/><path d="M1148.5 1471.21 1180.58 1471.21C1181.85 1471.21 1182.88 1472.23 1182.88 1473.5 1182.88 1474.77 1181.85 1475.79 1180.58 1475.79L1148.5 1475.79C1147.23 1475.79 1146.21 1474.77 1146.21 1473.5 1146.21 1472.23 1147.23 1471.21 1148.5 1471.21ZM1198.92 1471.21 1231 1471.21C1232.27 1471.21 1233.29 1472.23 1233.29 1473.5 1233.29 1474.77 1232.27 1475.79 1231 1475.79L1198.92 1475.79C1197.65 1475.79 1196.62 1474.77 1196.62 1473.5 1196.62 1472.23 1197.65 1471.21 1198.92 1471.21ZM1249.33 1471.21 1281.42 1471.21C1282.68 1471.21 1283.71 1472.23 1283.71 1473.5 1283.71 1474.77 1282.68 1475.79 1281.42 1475.79L1249.33 1475.79C1248.07 1475.79 1247.04 1474.77 1247.04 1473.5 1247.04 1472.23 1248.07 1471.21 1249.33 1471.21ZM1299.75 1471.21 1331.83 1471.21C1333.1 1471.21 1334.12 1472.23 1334.12 1473.5 1334.12 1474.77 1333.1 1475.79 1331.83 1475.79L1299.75 1475.79C1298.48 1475.79 1297.46 1474.77 1297.46 1473.5 1297.46 1472.23 1298.48 1471.21 1299.75 1471.21ZM1148.5 1487.25C1140.91 1487.25 1134.75 1481.09 1134.75 1473.5 1134.75 1465.91 1140.91 1459.75 1148.5 1459.75 1156.09 1459.75 1162.25 1465.91 1162.25 1473.5 1162.25 1481.09 1156.09 1487.25 1148.5 1487.25Z"/><text font-family="Noto Sans JP,Noto Sans JP_MSFontService,sans-serif" font-weight="400" font-size="55" transform="matrix(1 0 0 1 1275.82 1107)">V</text><text font-family="Noto Sans JP,Noto Sans JP_MSFontService,sans-serif" font-weight="400" font-size="55" transform="matrix(1 0 0 1 1307.33 1107)">CC</text><text font-family="Noto Sans JP,Noto Sans JP_MSFontService,sans-serif" font-weight="400" font-size="37" transform="matrix(1 0 0 1 1375.51 1120)"> </text><path d="M410 2.29167 0 2.29167 2.29167 0 2.29167 503.463C2.29167 504.728 1.26565 505.754 0 505.754-1.26565 505.754-2.29167 504.728-2.29167 503.463L-2.29167 0C-2.29167-1.26565-1.26565-2.29167 0-2.29167L410-2.29167C411.265-2.29167 412.291-1.26565 412.291 0 412.291 1.26565 411.265 2.29167 410 2.29167ZM410-13.75C417.594-13.75 423.75-7.59392 423.75 0 423.75 7.59392 417.594 13.75 410 13.75 402.406 13.75 396.25 7.59392 396.25 0 396.25-7.59392 402.406-13.75 410-13.75ZM18.0212 477.117 0 508.011-18.0212 477.117C-18.6589 476.024-18.2896 474.621-17.1964 473.983-16.1031 473.345-14.6999 473.715-14.0622 474.808L1.97949 502.308-1.97949 502.308 14.0622 474.808C14.6999 473.715 16.1031 473.345 17.1964 473.983 18.2896 474.621 18.6589 476.024 18.0212 477.117Z" transform="matrix(1 0 0 -1 537.5 1473.5)"/><rect x="0" y="0" width="89" height="36.0001" stroke="#000000" stroke-width="4.58333" stroke-linecap="round" stroke-linejoin="round" stroke-miterlimit="10" fill="#E8E8E8" transform="matrix(1.83697e-16 1 1 -1.83697e-16 519.5 1138.5)"/><path d="M0 47.0001 29 0 58.0001 47.0001Z" stroke="#000000" stroke-width="4.58333" stroke-linecap="round" stroke-linejoin="round" stroke-miterlimit="10" fill-rule="evenodd" transform="matrix(1 -1.22465e-16 -1.22465e-16 -1 508.5 1352.5)"/><path d="M0 0 0.000360892 57.0325" stroke="#000000" stroke-width="9.16667" stroke-miterlimit="8" fill-rule="evenodd" transform="matrix(1.83697e-16 1 1 -1.83697e-16 508.5 1352.5)"/><path d="M2.14087-0.817554 11.5987 23.949 7.31696 25.5842-2.14087 0.817554ZM16.3862 17.2146 14.3632 37.6118-0.740771 23.7551Z" transform="matrix(1.83697e-16 1 1 -1.83697e-16 569.5 1318.5)"/><path d="M2.14087-0.817554 11.5987 23.949 7.31696 25.5842-2.14087 0.817554ZM16.3862 17.2146 14.3632 37.6118-0.740771 23.7551Z" transform="matrix(1.83697e-16 1 1 -1.83697e-16 569.5 1338.5)"/><path d="M376 1319.12 458.5 1319.13 458.5 1332.88 376 1332.87ZM451.625 1305.38 492.875 1326 451.625 1346.63Z" fill="#D86ECC"/><text font-family="Noto Sans JP,Noto Sans JP_MSFontService,sans-serif" font-weight="400" font-size="55" transform="matrix(1 0 0 1 1275.82 1868)">GND</text><text font-family="Noto Sans JP,Noto Sans JP_MSFontService,sans-serif" font-weight="400" font-size="55" transform="matrix(1 0 0 1 1390.98 1868)"> </text><text font-family="Noto Sans JP,Noto Sans JP_MSFontService,sans-serif" font-weight="400" font-size="55" transform="matrix(1 0 0 1 679.217 1452)">GPIO</text><text font-family="Noto Sans JP,Noto Sans JP_MSFontService,sans-serif" font-weight="400" font-size="37" transform="matrix(1 0 0 1 808.696 1465)"> </text><path d="M942.5 1471.21 1147.47 1471.21C1148.73 1471.21 1149.76 1472.23 1149.76 1473.5 1149.76 1474.77 1148.73 1475.79 1147.47 1475.79L942.5 1475.79C941.234 1475.79 940.208 1474.77 940.208 1473.5 940.208 1472.23 941.234 1471.21 942.5 1471.21ZM942.5 1487.25C934.906 1487.25 928.75 1481.09 928.75 1473.5 928.75 1465.91 934.906 1459.75 942.5 1459.75 950.094 1459.75 956.25 1465.91 956.25 1473.5 956.25 1481.09 950.094 1487.25 942.5 1487.25ZM1147.47 1459.75C1155.06 1459.75 1161.22 1465.91 1161.22 1473.5 1161.22 1481.09 1155.06 1487.25 1147.47 1487.25 1139.87 1487.25 1133.72 1481.09 1133.72 1473.5 1133.72 1465.91 1139.87 1459.75 1147.47 1459.75Z"/><path d="M1149.79 1405.5 1149.79 1472.89C1149.79 1474.16 1148.77 1475.18 1147.5 1475.18 1146.23 1475.18 1145.21 1474.16 1145.21 1472.89L1145.21 1405.5C1145.21 1404.23 1146.23 1403.21 1147.5 1403.21 1148.77 1403.21 1149.79 1404.23 1149.79 1405.5ZM1161.25 1472.89C1161.25 1480.49 1155.09 1486.64 1147.5 1486.64 1139.91 1486.64 1133.75 1480.49 1133.75 1472.89 1133.75 1465.3 1139.91 1459.14 1147.5 1459.14 1155.09 1459.14 1161.25 1465.3 1161.25 1472.89Z"/><path d="M2.29167-6.94893e-06 2.29203 119.018C2.29203 120.283 1.26602 121.309 0.000367841 121.309-1.26528 121.309-2.2913 120.283-2.29131 119.018L-2.29167 6.94893e-06C-2.29167-1.26565-1.26566-2.29166-6.94893e-06-2.29167 1.26565-2.29167 2.29166-1.26566 2.29167-6.94893e-06ZM13.7504 119.018C13.7504 126.611 7.59432 132.768 0.000402586 132.768-7.59351 132.768-13.7496 126.612-13.7496 119.018-13.7497 111.424-7.5936 105.268 0.000319199 105.268 7.59424 105.268 13.7503 111.424 13.7504 119.018Z" transform="matrix(1 0 0 -1 1147.5 1348.52)"/><text fill="#0070C0" font-family="Noto Sans JP,Noto Sans JP_MSFontService,sans-serif" font-weight="700" font-size="55" transform="matrix(1 0 0 1 1164.39 1334)">OFF</text><text fill="#0070C0" font-family="Noto Sans JP,Noto Sans JP_MSFontService,sans-serif" font-weight="700" font-size="55" transform="matrix(1 0 0 1 1270.95 1334)"> </text><path d="M1205.5 1375.5 1347.69 1375.5" stroke="#000000" stroke-width="4.58333" stroke-linecap="round" stroke-linejoin="round" stroke-miterlimit="10" stroke-dasharray="32.0833 18.3333" fill="none" fill-rule="evenodd"/><path d="M1147.5 1350.5 1187.5 1350.5 1187.5 1402.5 1147.56 1402.5" stroke="#0070C0" stroke-width="4.58333" stroke-linecap="round" stroke-linejoin="round" stroke-miterlimit="10" fill="none" fill-rule="evenodd"/><path d="M1205.5 1350.5 1205.5 1402.84" stroke="#0070C0" stroke-width="9.16667" stroke-miterlimit="8" fill-rule="evenodd"/><path d="M1149.79 1649.5 1149.79 1716.89C1149.79 1718.16 1148.77 1719.18 1147.5 1719.18 1146.23 1719.18 1145.21 1718.16 1145.21 1716.89L1145.21 1649.5C1145.21 1648.23 1146.23 1647.21 1147.5 1647.21 1148.77 1647.21 1149.79 1648.23 1149.79 1649.5ZM1161.25 1716.89C1161.25 1724.49 1155.09 1730.64 1147.5 1730.64 1139.91 1730.64 1133.75 1724.49 1133.75 1716.89 1133.75 1709.3 1139.91 1703.14 1147.5 1703.14 1155.09 1703.14 1161.25 1709.3 1161.25 1716.89Z"/><path d="M2.29167-6.94893e-06 2.29203 119.018C2.29203 120.283 1.26602 121.309 0.000367841 121.309-1.26528 121.309-2.2913 120.283-2.29131 119.018L-2.29167 6.94893e-06C-2.29167-1.26565-1.26566-2.29166-6.94893e-06-2.29167 1.26565-2.29167 2.29166-1.26566 2.29167-6.94893e-06ZM13.7504 119.018C13.7504 126.611 7.59432 132.768 0.000402586 132.768-7.59351 132.768-13.7496 126.612-13.7496 119.018-13.7497 111.424-7.5936 105.268 0.000319199 105.268 7.59424 105.268 13.7503 111.424 13.7504 119.018Z" transform="matrix(1 0 0 -1 1147.5 1592.52)"/><text fill="#0070C0" font-family="Noto Sans JP,Noto Sans JP_MSFontService,sans-serif" font-weight="700" font-size="55" transform="matrix(1 0 0 1 1164.39 1578)">OFF</text><text fill="#0070C0" font-family="Noto Sans JP,Noto Sans JP_MSFontService,sans-serif" font-weight="700" font-size="55" transform="matrix(1 0 0 1 1270.95 1578)"> </text><path d="M1205.5 1619.5 1347.69 1619.5" stroke="#000000" stroke-width="4.58333" stroke-linecap="round" stroke-linejoin="round" stroke-miterlimit="10" stroke-dasharray="32.0833 18.3333" fill="none" fill-rule="evenodd"/><path d="M1147.5 1594.5 1187.5 1594.5 1187.5 1646.5 1147.56 1646.5" stroke="#0070C0" stroke-width="4.58333" stroke-linecap="round" stroke-linejoin="round" stroke-miterlimit="10" fill="none" fill-rule="evenodd"/><path d="M1205.5 1594.5 1205.5 1646.84" stroke="#0070C0" stroke-width="9.16667" stroke-miterlimit="8" fill-rule="evenodd"/><path d="M35.4999 0C55.106-4.51961e-15 70.9998 15.6701 70.9998 35.0001" stroke="#C00000" stroke-width="13.75" stroke-linecap="round" stroke-linejoin="round" stroke-miterlimit="10" fill="none" fill-rule="evenodd" transform="matrix(6.12323e-17 1 1 -6.12323e-17 880 1684)"/><path d="M34.9999 0C54.3298-9.03927e-15 69.9998 15.8939 69.9998 35.5001" stroke="#C00000" stroke-width="13.75" stroke-linecap="round" stroke-linejoin="round" stroke-miterlimit="10" fill="none" fill-rule="evenodd" transform="matrix(-1.83697e-16 -1 -1 1.83697e-16 881 1569)"/><path d="M34.375-6.87495 229.453-6.87464 229.453 6.87536 34.375 6.87505ZM41.25 20.6251 0 0 41.25-20.6249Z" fill="#C00000" transform="matrix(1 0 0 -1 616 1499)"/><path d="M880 1536 880 1720.61" stroke="#C00000" stroke-width="13.75" stroke-linecap="round" stroke-linejoin="round" stroke-miterlimit="10" fill="none" fill-rule="evenodd"/><path d="M35.0001 0C54.3301-8.91195e-15 70.0001 15.6701 70.0001 35.0001" stroke="#C00000" stroke-width="13.75" stroke-linecap="round" stroke-linejoin="round" stroke-miterlimit="10" fill="none" fill-rule="evenodd" transform="matrix(-1.83697e-16 -1 -1 1.83697e-16 1219 1826)"/><path d="M0 0 274.188 0.000360892" stroke="#C00000" stroke-width="13.75" stroke-linecap="round" stroke-linejoin="round" stroke-miterlimit="10" fill="none" fill-rule="evenodd" transform="matrix(1 0 0 -1 910 1756)"/><path d="M1219 1793 1219 1925.36" stroke="#C00000" stroke-width="13.75" stroke-linejoin="round" stroke-miterlimit="10" fill="none" fill-rule="evenodd"/><rect x="0" y="0" width="619" height="665" stroke="#000000" stroke-width="4.58333" stroke-linecap="round" stroke-linejoin="round" stroke-miterlimit="10" fill="#E8E8E8" transform="matrix(-1 0 0 1 2859.5 1138.5)"/><path d="M2.29167-3.84173e-06 2.29203 215.279C2.29203 216.545 1.26602 217.571 0.000364734 217.571-1.26529 217.571-2.2913 216.545-2.29131 215.279L-2.29167 3.84173e-06C-2.29167-1.26565-1.26566-2.29166-3.84173e-06-2.29167 1.26565-2.29167 2.29166-1.26566 2.29167-3.84173e-06ZM13.7504 215.279C13.7504 222.873 7.5943 229.029 0.000383943 229.029-7.59353 229.029-13.7496 222.873-13.7496 215.279-13.7497 207.685-7.59358 201.529 0.000337842 201.529 7.59425 201.529 13.7503 207.685 13.7504 215.279Z" transform="matrix(1 0 0 -1 2669.5 1931.78)"/><path d="M0 23 21.5 0 43 23Z" stroke="#000000" stroke-width="4.58333" stroke-linecap="round" stroke-linejoin="round" stroke-miterlimit="10" fill="#FFFFFF" fill-rule="evenodd" transform="matrix(1 -1.22465e-16 -1.22465e-16 -1 2650.5 1953.5)"/><path d="M2312.5 1716.5 2769.17 1716.5" stroke="#000000" stroke-width="4.58333" stroke-linecap="round" stroke-linejoin="round" stroke-miterlimit="10" fill="none" fill-rule="evenodd"/><path d="M2312.5 1229.5 2769.17 1229.5" stroke="#000000" stroke-width="4.58333" stroke-linecap="round" stroke-linejoin="round" stroke-miterlimit="10" fill="none" fill-rule="evenodd"/><path d="M2355.79 1230.5 2355.79 1716.58C2355.79 1717.85 2354.77 1718.87 2353.5 1718.87 2352.23 1718.87 2351.21 1717.85 2351.21 1716.58L2351.21 1230.5C2351.21 1229.23 2352.23 1228.21 2353.5 1228.21 2354.77 1228.21 2355.79 1229.23 2355.79 1230.5ZM2339.75 1230.5C2339.75 1222.91 2345.91 1216.75 2353.5 1216.75 2361.09 1216.75 2367.25 1222.91 2367.25 1230.5 2367.25 1238.09 2361.09 1244.25 2353.5 1244.25 2345.91 1244.25 2339.75 1238.09 2339.75 1230.5ZM2367.25 1716.58C2367.25 1724.18 2361.09 1730.33 2353.5 1730.33 2345.91 1730.33 2339.75 1724.18 2339.75 1716.58 2339.75 1708.99 2345.91 1702.83 2353.5 1702.83 2361.09 1702.83 2367.25 1708.99 2367.25 1716.58Z"/><path d="M0 47.0001 28.5 0 57.0001 47.0001Z" stroke="#000000" stroke-width="4.58333" stroke-linecap="round" stroke-linejoin="round" stroke-miterlimit="10" fill-rule="evenodd" transform="matrix(-1 0 0 1 2383.5 1323.5)"/><path d="M0 0 0.000360892 57.0307" stroke="#000000" stroke-width="9.16667" stroke-miterlimit="8" fill-rule="evenodd" transform="matrix(-6.12323e-17 -1 -1 6.12323e-17 2383.53 1323.5)"/><path d="M0 46.0001 28.5 0 57.0001 46.0001Z" stroke="#000000" stroke-width="4.58333" stroke-linecap="round" stroke-linejoin="round" stroke-miterlimit="10" fill-rule="evenodd" transform="matrix(-1 0 0 1 2383.5 1573.5)"/><path d="M0 0 0.000360892 57.0307" stroke="#000000" stroke-width="9.16667" stroke-miterlimit="8" fill-rule="evenodd" transform="matrix(-6.12323e-17 -1 -1 6.12323e-17 2383.53 1573.5)"/><path d="M2559.5 1471.21 2591.58 1471.21C2592.85 1471.21 2593.88 1472.23 2593.88 1473.5 2593.88 1474.77 2592.85 1475.79 2591.58 1475.79L2559.5 1475.79C2558.23 1475.79 2557.21 1474.77 2557.21 1473.5 2557.21 1472.23 2558.23 1471.21 2559.5 1471.21ZM2609.92 1471.21 2642 1471.21C2643.27 1471.21 2644.29 1472.23 2644.29 1473.5 2644.29 1474.77 2643.27 1475.79 2642 1475.79L2609.92 1475.79C2608.65 1475.79 2607.62 1474.77 2607.62 1473.5 2607.62 1472.23 2608.65 1471.21 2609.92 1471.21ZM2660.33 1471.21 2692.42 1471.21C2693.68 1471.21 2694.71 1472.23 2694.71 1473.5 2694.71 1474.77 2693.68 1475.79 2692.42 1475.79L2660.33 1475.79C2659.07 1475.79 2658.04 1474.77 2658.04 1473.5 2658.04 1472.23 2659.07 1471.21 2660.33 1471.21ZM2710.75 1471.21 2742.83 1471.21C2744.1 1471.21 2745.12 1472.23 2745.12 1473.5 2745.12 1474.77 2744.1 1475.79 2742.83 1475.79L2710.75 1475.79C2709.48 1475.79 2708.46 1474.77 2708.46 1473.5 2708.46 1472.23 2709.48 1471.21 2710.75 1471.21ZM2559.5 1487.25C2551.91 1487.25 2545.75 1481.09 2545.75 1473.5 2545.75 1465.91 2551.91 1459.75 2559.5 1459.75 2567.09 1459.75 2573.25 1465.91 2573.25 1473.5 2573.25 1481.09 2567.09 1487.25 2559.5 1487.25Z"/><text font-family="Noto Sans JP,Noto Sans JP_MSFontService,sans-serif" font-weight="400" font-size="55" transform="matrix(1 0 0 1 2686.74 1107)">V</text><text font-family="Noto Sans JP,Noto Sans JP_MSFontService,sans-serif" font-weight="400" font-size="55" transform="matrix(1 0 0 1 2718.25 1107)">CC</text><text font-family="Noto Sans JP,Noto Sans JP_MSFontService,sans-serif" font-weight="400" font-size="37" transform="matrix(1 0 0 1 2786.43 1120)"> </text><path d="M410 2.29167 0 2.29167 2.29167 0 2.29167 503.463C2.29167 504.728 1.26565 505.754 0 505.754-1.26565 505.754-2.29167 504.728-2.29167 503.463L-2.29167 0C-2.29167-1.26565-1.26565-2.29167 0-2.29167L410-2.29167C411.266-2.29167 412.292-1.26565 412.292 0 412.292 1.26565 411.266 2.29167 410 2.29167ZM410-13.75C417.594-13.75 423.75-7.59392 423.75 0 423.75 7.59392 417.594 13.75 410 13.75 402.406 13.75 396.25 7.59392 396.25 0 396.25-7.59392 402.406-13.75 410-13.75ZM18.0212 477.117 0 508.011-18.0212 477.117C-18.6589 476.024-18.2896 474.621-17.1964 473.983-16.1031 473.345-14.6999 473.715-14.0622 474.808L1.97949 502.308-1.97949 502.308 14.0622 474.808C14.6999 473.715 16.1031 473.345 17.1964 473.983 18.2896 474.621 18.6589 476.024 18.0212 477.117Z" transform="matrix(1 0 0 -1 1948.5 1473.5)"/><rect x="0" y="0" width="89" height="35.0001" stroke="#000000" stroke-width="4.58333" stroke-linecap="round" stroke-linejoin="round" stroke-miterlimit="10" fill="#E8E8E8" transform="matrix(1.83697e-16 1 1 -1.83697e-16 1930.5 1138.5)"/><path d="M0 47.0001 28.5 0 57.0001 47.0001Z" stroke="#000000" stroke-width="4.58333" stroke-linecap="round" stroke-linejoin="round" stroke-miterlimit="10" fill-rule="evenodd" transform="matrix(1 -1.22465e-16 -1.22465e-16 -1 1919.5 1352.5)"/><path d="M0 0 0.000360892 57.0325" stroke="#000000" stroke-width="9.16667" stroke-miterlimit="8" fill-rule="evenodd" transform="matrix(1.83697e-16 1 1 -1.83697e-16 1919.5 1352.5)"/><path d="M2.14087-0.817554 11.5987 23.949 7.31696 25.5842-2.14087 0.817554ZM16.3862 17.2146 14.3632 37.6118-0.740771 23.7551Z" transform="matrix(1.83697e-16 1 1 -1.83697e-16 1980.5 1318.5)"/><path d="M2.14087-0.817554 11.5987 23.949 7.31696 25.5842-2.14087 0.817554ZM16.3862 17.2146 14.3632 37.6118-0.740771 23.7551Z" transform="matrix(1.83697e-16 1 1 -1.83697e-16 1980.5 1338.5)"/><path d="M1787 1319.12 1869.5 1319.13 1869.5 1332.88 1787 1332.87ZM1862.63 1305.38 1903.88 1326 1862.62 1346.63Z" fill="#D86ECC"/><text font-family="Noto Sans JP,Noto Sans JP_MSFontService,sans-serif" font-weight="400" font-size="55" transform="matrix(1 0 0 1 2686.74 1868)">GND</text><text font-family="Noto Sans JP,Noto Sans JP_MSFontService,sans-serif" font-weight="400" font-size="55" transform="matrix(1 0 0 1 2801.9 1868)"> </text><text font-family="Noto Sans JP,Noto Sans JP_MSFontService,sans-serif" font-weight="400" font-size="55" transform="matrix(1 0 0 1 2090.14 1452)">GPIO</text><text font-family="Noto Sans JP,Noto Sans JP_MSFontService,sans-serif" font-weight="400" font-size="37" transform="matrix(1 0 0 1 2219.61 1465)"> </text><path d="M2353.5 1471.21 2558.47 1471.21C2559.73 1471.21 2560.76 1472.23 2560.76 1473.5 2560.76 1474.77 2559.73 1475.79 2558.47 1475.79L2353.5 1475.79C2352.23 1475.79 2351.21 1474.77 2351.21 1473.5 2351.21 1472.23 2352.23 1471.21 2353.5 1471.21ZM2353.5 1487.25C2345.91 1487.25 2339.75 1481.09 2339.75 1473.5 2339.75 1465.91 2345.91 1459.75 2353.5 1459.75 2361.09 1459.75 2367.25 1465.91 2367.25 1473.5 2367.25 1481.09 2361.09 1487.25 2353.5 1487.25ZM2558.47 1459.75C2566.06 1459.75 2572.22 1465.91 2572.22 1473.5 2572.22 1481.09 2566.06 1487.25 2558.47 1487.25 2550.87 1487.25 2544.72 1481.09 2544.72 1473.5 2544.72 1465.91 2550.87 1459.75 2558.47 1459.75Z"/><path d="M2560.79 1650.5 2560.79 1717.89C2560.79 1719.16 2559.77 1720.18 2558.5 1720.18 2557.23 1720.18 2556.21 1719.16 2556.21 1717.89L2556.21 1650.5C2556.21 1649.23 2557.23 1648.21 2558.5 1648.21 2559.77 1648.21 2560.79 1649.23 2560.79 1650.5ZM2572.25 1717.89C2572.25 1725.49 2566.09 1731.64 2558.5 1731.64 2550.91 1731.64 2544.75 1725.49 2544.75 1717.89 2544.75 1710.3 2550.91 1704.14 2558.5 1704.14 2566.09 1704.14 2572.25 1710.3 2572.25 1717.89Z"/><path d="M2.29167-6.94893e-06 2.29203 119.018C2.29203 120.283 1.26602 121.309 0.000367841 121.309-1.26528 121.309-2.2913 120.283-2.29131 119.018L-2.29167 6.94893e-06C-2.29167-1.26565-1.26566-2.29166-6.94893e-06-2.29167 1.26565-2.29167 2.29166-1.26566 2.29167-6.94893e-06ZM13.7504 119.018C13.7504 126.611 7.59432 132.768 0.000402586 132.768-7.59351 132.768-13.7496 126.612-13.7496 119.018-13.7497 111.424-7.5936 105.268 0.000319199 105.268 7.59424 105.268 13.7503 111.424 13.7504 119.018Z" transform="matrix(1 0 0 -1 2558.5 1593.52)"/><text fill="#00B050" font-family="Noto Sans JP,Noto Sans JP_MSFontService,sans-serif" font-weight="700" font-size="55" transform="matrix(1 0 0 1 2575.31 1580)">ON</text><text fill="#00B050" font-family="Noto Sans JP,Noto Sans JP_MSFontService,sans-serif" font-weight="700" font-size="55" transform="matrix(1 0 0 1 2658.95 1580)"> </text><path d="M2616.5 1620.5 2758.69 1620.5" stroke="#000000" stroke-width="4.58333" stroke-linecap="round" stroke-linejoin="round" stroke-miterlimit="10" stroke-dasharray="32.0833 18.3333" fill="none" fill-rule="evenodd"/><path d="M2558.5 1595.5 2598.5 1595.5 2598.5 1648.5 2558.56 1648.5" stroke="#00B050" stroke-width="4.58333" stroke-linecap="round" stroke-linejoin="round" stroke-miterlimit="10" fill="none" fill-rule="evenodd"/><path d="M2616.5 1595.5 2616.5 1647.84" stroke="#00B050" stroke-width="9.16667" stroke-miterlimit="8" fill-rule="evenodd"/><path d="M2560.79 1406.5 2560.79 1473.89C2560.79 1475.16 2559.77 1476.18 2558.5 1476.18 2557.23 1476.18 2556.21 1475.16 2556.21 1473.89L2556.21 1406.5C2556.21 1405.23 2557.23 1404.21 2558.5 1404.21 2559.77 1404.21 2560.79 1405.23 2560.79 1406.5ZM2572.25 1473.89C2572.25 1481.49 2566.09 1487.64 2558.5 1487.64 2550.91 1487.64 2544.75 1481.49 2544.75 1473.89 2544.75 1466.3 2550.91 1460.14 2558.5 1460.14 2566.09 1460.14 2572.25 1466.3 2572.25 1473.89Z"/><path d="M2.29167-6.94893e-06 2.29203 119.018C2.29203 120.283 1.26602 121.309 0.000367841 121.309-1.26528 121.309-2.2913 120.283-2.29131 119.018L-2.29167 6.94893e-06C-2.29167-1.26565-1.26566-2.29166-6.94893e-06-2.29167 1.26565-2.29167 2.29166-1.26566 2.29167-6.94893e-06ZM13.7504 119.018C13.7504 126.611 7.59432 132.768 0.000402586 132.768-7.59351 132.768-13.7496 126.612-13.7496 119.018-13.7497 111.424-7.5936 105.268 0.000319199 105.268 7.59424 105.268 13.7503 111.424 13.7504 119.018Z" transform="matrix(1 0 0 -1 2558.5 1349.52)"/><text fill="#0070C0" font-family="Noto Sans JP,Noto Sans JP_MSFontService,sans-serif" font-weight="700" font-size="55" transform="matrix(1 0 0 1 2575.31 1336)">OFF</text><text fill="#0070C0" font-family="Noto Sans JP,Noto Sans JP_MSFontService,sans-serif" font-weight="700" font-size="55" transform="matrix(1 0 0 1 2681.87 1336)"> </text><path d="M2616.5 1376.5 2758.69 1376.5" stroke="#000000" stroke-width="4.58333" stroke-linecap="round" stroke-linejoin="round" stroke-miterlimit="10" stroke-dasharray="32.0833 18.3333" fill="none" fill-rule="evenodd"/><path d="M2558.5 1351.5 2598.5 1351.5 2598.5 1403.5 2558.56 1403.5" stroke="#0070C0" stroke-width="4.58333" stroke-linecap="round" stroke-linejoin="round" stroke-miterlimit="10" fill="none" fill-rule="evenodd"/><path d="M2616.5 1351.5 2616.5 1403.84" stroke="#0070C0" stroke-width="9.16667" stroke-miterlimit="8" fill-rule="evenodd"/><path d="M34.375-6.87497 459.841-6.87464 459.841 6.87536 34.375 6.87503ZM41.25 20.625 0 0 41.25-20.625Z" fill="#C00000" transform="matrix(1 0 0 -1 2024 1499)"/><path d="M34.9997 0C54.3295-9.03922e-15 69.9994 15.8938 69.9994 35.4999" stroke="#C00000" stroke-width="13.75" stroke-linecap="round" stroke-linejoin="round" stroke-miterlimit="10" fill="none" fill-rule="evenodd" transform="matrix(-1.83697e-16 -1 -1 1.83697e-16 2627 1826)"/><path d="M0 0 38.3564 0.000360892" stroke="#C00000" stroke-width="13.75" stroke-linecap="round" stroke-linejoin="round" stroke-miterlimit="10" fill="none" fill-rule="evenodd" transform="matrix(1 0 0 -1 2553 1756)"/><path d="M2627 1793 2627 1925.36" stroke="#C00000" stroke-width="13.75" stroke-linejoin="round" stroke-miterlimit="10" fill="none" fill-rule="evenodd"/><path d="M35.4999 0C55.106-4.51961e-15 70.9998 15.6701 70.9998 35.0001" stroke="#C00000" stroke-width="13.75" stroke-linecap="round" stroke-linejoin="round" stroke-miterlimit="10" fill="none" fill-rule="evenodd" transform="matrix(6.12323e-17 1 1 -6.12323e-17 2518 1685)"/><path d="M34.9999 0C54.3298-8.9119e-15 69.9998 15.67 69.9998 34.9999" stroke="#C00000" stroke-width="13.75" stroke-linecap="round" stroke-linejoin="round" stroke-miterlimit="10" fill="none" fill-rule="evenodd" transform="matrix(-1.83697e-16 -1 -1 1.83697e-16 2517 1569)"/><path d="M2518 1536 2518 1720.61" stroke="#C00000" stroke-width="13.75" stroke-linecap="round" stroke-linejoin="round" stroke-miterlimit="10" fill="none" fill-rule="evenodd"/><path d="M1261.79 969.037 1261.79 1229.63C1261.79 1230.9 1260.77 1231.92 1259.5 1231.92 1258.23 1231.92 1257.21 1230.9 1257.21 1229.63L1257.21 969.037C1257.21 967.772 1258.23 966.746 1259.5 966.746 1260.77 966.746 1261.79 967.772 1261.79 969.037ZM1241.48 995.383 1259.5 964.489 1277.52 995.383C1278.16 996.476 1277.79 997.879 1276.7 998.517 1275.6 999.155 1274.2 998.785 1273.56 997.692L1257.52 970.192 1261.48 970.192 1245.44 997.692C1244.8 998.786 1243.4 999.155 1242.3 998.517 1241.21 997.879 1240.84 996.476 1241.48 995.383ZM1273.25 1229.63C1273.25 1237.22 1267.09 1243.38 1259.5 1243.38 1251.91 1243.38 1245.75 1237.22 1245.75 1229.63 1245.75 1222.04 1251.91 1215.88 1259.5 1215.88 1267.09 1215.88 1273.25 1222.04 1273.25 1229.63Z"/><path d="M2671.79 969.037 2671.79 1229.63C2671.79 1230.9 2670.77 1231.92 2669.5 1231.92 2668.23 1231.92 2667.21 1230.9 2667.21 1229.63L2667.21 969.037C2667.21 967.772 2668.23 966.746 2669.5 966.746 2670.77 966.746 2671.79 967.772 2671.79 969.037ZM2651.48 995.383 2669.5 964.489 2687.52 995.383C2688.16 996.476 2687.79 997.879 2686.7 998.517 2685.6 999.155 2684.2 998.785 2683.56 997.692L2667.52 970.192 2671.48 970.192 2655.44 997.692C2654.8 998.786 2653.4 999.155 2652.3 998.517 2651.21 997.879 2650.84 996.476 2651.48 995.383ZM2683.25 1229.63C2683.25 1237.22 2677.09 1243.38 2669.5 1243.38 2661.91 1243.38 2655.75 1237.22 2655.75 1229.63 2655.75 1222.04 2661.91 1215.88 2669.5 1215.88 2677.09 1215.88 2683.25 1222.04 2683.25 1229.63Z"/></g></svg>