<svg width="2526" height="1382" xmlns="http://www.w3.org/2000/svg" xmlns:xlink="http://www.w3.org/1999/xlink" xml:space="preserve" overflow="hidden"><defs><linearGradient x1="104" y1="0" x2="104" y2="157" gradientUnits="userSpaceOnUse" spreadMethod="reflect" id="fill0"><stop offset="0" stop-color="#404040"/><stop offset="0.016129" stop-color="#414141"/><stop offset="0.0322581" stop-color="#434343"/><stop offset="0.0483871" stop-color="#454545"/><stop offset="0.0645161" stop-color="#474747"/><stop offset="0.0806452" stop-color="#494949"/><stop offset="0.0967742" stop-color="#4A4A4A"/><stop offset="0.112903" stop-color="#4C4C4C"/><stop offset="0.129032" stop-color="#4E4E4E"/><stop offset="0.145161" stop-color="#505050"/><stop offset="0.16129" stop-color="#515151"/><stop offset="0.177419" stop-color="#535353"/><stop offset="0.193548" stop-color="#545454"/><stop offset="0.209677" stop-color="#565656"/><stop offset="0.225806" stop-color="#585858"/><stop offset="0.241935" stop-color="#595959"/><stop offset="0.258065" stop-color="#5B5B5B"/><stop offset="0.274194" stop-color="#5C5C5C"/><stop offset="0.290323" stop-color="#5D5D5D"/><stop offset="0.306452" stop-color="#5F5F5F"/><stop offset="0.322581" stop-color="#606060"/><stop offset="0.33871" stop-color="#616161"/><stop offset="0.354839" stop-color="#636363"/><stop offset="0.370968" stop-color="#646464"/><stop offset="0.387097" stop-color="#656565"/><stop offset="0.403226" stop-color="#676767"/><stop offset="0.419355" stop-color="#686868"/><stop offset="0.435484" stop-color="#696969"/><stop offset="0.451613" stop-color="#6A6A6A"/><stop offset="0.467742" stop-color="#6B6B6B"/><stop offset="0.483871" stop-color="#6C6C6C"/><stop offset="0.5" stop-color="#6D6D6D"/><stop offset="0.516129" stop-color="#6E6E6E"/><stop offset="0.532258" stop-color="#6F6F6F"/><stop offset="0.548387" stop-color="#707070"/><stop offset="0.564516" stop-color="#717171"/><stop offset="0.580645" stop-color="#727272"/><stop offset="0.596774" stop-color="#737373"/><stop offset="0.612903" stop-color="#747474"/><stop offset="0.629032" stop-color="#757575"/><stop offset="0.645161" stop-color="#757575"/><stop offset="0.66129" stop-color="#767676"/><stop offset="0.677419" stop-color="#777777"/><stop offset="0.693548" stop-color="#787878"/><stop offset="0.709677" stop-color="#787878"/><stop offset="0.725806" stop-color="#797979"/><stop offset="0.741935" stop-color="#7A7A7A"/><stop offset="0.758065" stop-color="#7A7A7A"/><stop offset="0.774194" stop-color="#7B7B7B"/><stop offset="0.790323" stop-color="#7B7B7B"/><stop offset="0.806452" stop-color="#7C7C7C"/><stop offset="0.822581" stop-color="#7C7C7C"/><stop offset="0.83871" stop-color="#7C7C7C"/><stop offset="0.854839" stop-color="#7D7D7D"/><stop offset="0.870968" stop-color="#7D7D7D"/><stop offset="0.887097" stop-color="#7D7D7D"/><stop offset="0.903226" stop-color="#7E7E7E"/><stop offset="0.919355" stop-color="#7E7E7E"/><stop offset="0.935484" stop-color="#7E7E7E"/><stop offset="0.951613" stop-color="#7E7E7E"/><stop offset="0.967742" stop-color="#7E7E7E"/><stop offset="0.983871" stop-color="#7E7E7E"/><stop offset="1" stop-color="#7F7F7F"/></linearGradient><linearGradient x1="81.5" y1="0" x2="81.5" y2="117" gradientUnits="userSpaceOnUse" spreadMethod="reflect" id="fill1"><stop offset="0" stop-color="#CAEEFB"/><stop offset="0.00961538" stop-color="#C9EDFA"/><stop offset="0.0192308" stop-color="#C9EDFA"/><stop offset="0.0288462" stop-color="#C9EDFA"/><stop offset="0.0384615" stop-color="#C9EDFA"/><stop offset="0.0480769" stop-color="#C9EDFA"/><stop offset="0.0576923" stop-color="#C9EDFA"/><stop offset="0.0673077" stop-color="#C9EDFA"/><stop offset="0.0769231" stop-color="#C9EDFA"/><stop offset="0.0865385" stop-color="#C8EDFA"/><stop offset="0.0961538" stop-color="#C8EDFA"/><stop offset="0.105769" stop-color="#C8EDFA"/><stop offset="0.115385" stop-color="#C8EDFA"/><stop offset="0.125" stop-color="#C7EDFA"/><stop offset="0.134615" stop-color="#C7EDFA"/><stop offset="0.144231" stop-color="#C7EDFA"/><stop offset="0.153846" stop-color="#C6ECFA"/><stop offset="0.163462" stop-color="#C6ECFA"/><stop offset="0.173077" stop-color="#C6ECFA"/><stop offset="0.182692" stop-color="#C5ECFA"/><stop offset="0.192308" stop-color="#C5ECFA"/><stop offset="0.201923" stop-color="#C4ECFA"/><stop offset="0.211538" stop-color="#C4ECFA"/><stop offset="0.221154" stop-color="#C3EBFA"/><stop offset="0.230769" stop-color="#C3EBFA"/><stop offset="0.240385" stop-color="#C2EBFA"/><stop offset="0.25" stop-color="#C2EBFA"/><stop offset="0.259615" stop-color="#C1EBFA"/><stop offset="0.269231" stop-color="#C1EBFA"/><stop offset="0.278846" stop-color="#C0EAFA"/><stop offset="0.288462" stop-color="#BFEAFA"/><stop offset="0.298077" stop-color="#BFEAFA"/><stop offset="0.307692" stop-color="#BEEAFA"/><stop offset="0.317308" stop-color="#BDE9FA"/><stop offset="0.326923" stop-color="#BDE9FA"/><stop offset="0.336538" stop-color="#BCE9FA"/><stop offset="0.346154" stop-color="#BBE9FA"/><stop offset="0.355769" stop-color="#BAE8F9"/><stop offset="0.365385" stop-color="#BAE8F9"/><stop offset="0.375" stop-color="#B9E8F9"/><stop offset="0.384615" stop-color="#B8E8F9"/><stop offset="0.394231" stop-color="#B7E7F9"/><stop offset="0.403846" stop-color="#B6E7F9"/><stop offset="0.413462" stop-color="#B5E7F9"/><stop offset="0.423077" stop-color="#B5E7F9"/><stop offset="0.432692" stop-color="#B4E6F9"/><stop offset="0.442308" stop-color="#B3E6F9"/><stop offset="0.451923" stop-color="#B2E6F9"/><stop offset="0.461538" stop-color="#B1E5F9"/><stop offset="0.471154" stop-color="#B0E5F9"/><stop offset="0.480769" stop-color="#AFE5F9"/><stop offset="0.490385" stop-color="#AEE4F9"/><stop offset="0.5" stop-color="#ADE4F9"/><stop offset="0.509615" stop-color="#ACE4F9"/><stop offset="0.519231" stop-color="#ABE3F8"/><stop offset="0.528846" stop-color="#AAE3F8"/><stop offset="0.538462" stop-color="#A9E3F8"/><stop offset="0.548077" stop-color="#A7E2F8"/><stop offset="0.557692" stop-color="#A6E2F8"/><stop offset="0.567308" stop-color="#A5E1F8"/><stop offset="0.576923" stop-color="#A4E1F8"/><stop offset="0.586538" stop-color="#A3E1F8"/><stop offset="0.596154" stop-color="#A2E0F8"/><stop offset="0.605769" stop-color="#A0E0F8"/><stop offset="0.615385" stop-color="#9FDFF8"/><stop offset="0.625" stop-color="#9EDFF8"/><stop offset="0.634615" stop-color="#9DDFF8"/><stop offset="0.644231" stop-color="#9BDEF7"/><stop offset="0.653846" stop-color="#9ADEF7"/><stop offset="0.663462" stop-color="#99DDF7"/><stop offset="0.673077" stop-color="#98DDF7"/><stop offset="0.682692" stop-color="#96DCF7"/><stop offset="0.692308" stop-color="#95DCF7"/><stop offset="0.701923" stop-color="#93DBF7"/><stop offset="0.711538" stop-color="#92DBF7"/><stop offset="0.721154" stop-color="#91DBF7"/><stop offset="0.730769" stop-color="#8FDAF7"/><stop offset="0.740385" stop-color="#8EDAF7"/><stop offset="0.75" stop-color="#8CD9F6"/><stop offset="0.759615" stop-color="#8BD9F6"/><stop offset="0.769231" stop-color="#89D8F6"/><stop offset="0.778846" stop-color="#88D8F6"/><stop offset="0.788462" stop-color="#86D7F6"/><stop offset="0.798077" stop-color="#85D7F6"/><stop offset="0.807692" stop-color="#83D6F6"/><stop offset="0.817308" stop-color="#82D6F6"/><stop offset="0.826923" stop-color="#80D5F6"/><stop offset="0.836538" stop-color="#7ED4F5"/><stop offset="0.846154" stop-color="#7DD4F5"/><stop offset="0.855769" stop-color="#7BD3F5"/><stop offset="0.865385" stop-color="#79D3F5"/><stop offset="0.875" stop-color="#78D2F5"/><stop offset="0.884615" stop-color="#76D2F5"/><stop offset="0.894231" stop-color="#74D1F5"/><stop offset="0.903846" stop-color="#73D1F5"/><stop offset="0.913462" stop-color="#71D0F5"/><stop offset="0.923077" stop-color="#6FCFF4"/><stop offset="0.932692" stop-color="#6DCFF4"/><stop offset="0.942308" stop-color="#6CCEF4"/><stop offset="0.951923" stop-color="#6ACEF4"/><stop offset="0.961538" stop-color="#68CDF4"/><stop offset="0.971154" stop-color="#66CCF4"/><stop offset="0.980769" stop-color="#64CCF4"/><stop offset="0.990385" stop-color="#62CBF4"/><stop offset="1" stop-color="#61CBF4"/></linearGradient><linearGradient x1="14.5001" y1="0" x2="14.5001" y2="141" gradientUnits="userSpaceOnUse" spreadMethod="reflect" id="fill2"><stop offset="0" stop-color="#CAEEFB"/><stop offset="0.00961538" stop-color="#C9EDFA"/><stop offset="0.0192308" stop-color="#C9EDFA"/><stop offset="0.0288462" stop-color="#C9EDFA"/><stop offset="0.0384615" stop-color="#C9EDFA"/><stop offset="0.0480769" stop-color="#C9EDFA"/><stop offset="0.0576923" stop-color="#C9EDFA"/><stop offset="0.0673077" stop-color="#C9EDFA"/><stop offset="0.0769231" stop-color="#C9EDFA"/><stop offset="0.0865385" stop-color="#C8EDFA"/><stop offset="0.0961538" stop-color="#C8EDFA"/><stop offset="0.105769" stop-color="#C8EDFA"/><stop offset="0.115385" stop-color="#C8EDFA"/><stop offset="0.125" stop-color="#C7EDFA"/><stop offset="0.134615" stop-color="#C7EDFA"/><stop offset="0.144231" stop-color="#C7EDFA"/><stop offset="0.153846" stop-color="#C6ECFA"/><stop offset="0.163462" stop-color="#C6ECFA"/><stop offset="0.173077" stop-color="#C6ECFA"/><stop offset="0.182692" stop-color="#C5ECFA"/><stop offset="0.192308" stop-color="#C5ECFA"/><stop offset="0.201923" stop-color="#C4ECFA"/><stop offset="0.211538" stop-color="#C4ECFA"/><stop offset="0.221154" stop-color="#C3EBFA"/><stop offset="0.230769" stop-color="#C3EBFA"/><stop offset="0.240385" stop-color="#C2EBFA"/><stop offset="0.25" stop-color="#C2EBFA"/><stop offset="0.259615" stop-color="#C1EBFA"/><stop offset="0.269231" stop-color="#C1EBFA"/><stop offset="0.278846" stop-color="#C0EAFA"/><stop offset="0.288462" stop-color="#BFEAFA"/><stop offset="0.298077" stop-color="#BFEAFA"/><stop offset="0.307692" stop-color="#BEEAFA"/><stop offset="0.317308" stop-color="#BDE9FA"/><stop offset="0.326923" stop-color="#BDE9FA"/><stop offset="0.336538" stop-color="#BCE9FA"/><stop offset="0.346154" stop-color="#BBE9FA"/><stop offset="0.355769" stop-color="#BAE8F9"/><stop offset="0.365385" stop-color="#BAE8F9"/><stop offset="0.375" stop-color="#B9E8F9"/><stop offset="0.384615" stop-color="#B8E8F9"/><stop offset="0.394231" stop-color="#B7E7F9"/><stop offset="0.403846" stop-color="#B6E7F9"/><stop offset="0.413462" stop-color="#B5E7F9"/><stop offset="0.423077" stop-color="#B5E7F9"/><stop offset="0.432692" stop-color="#B4E6F9"/><stop offset="0.442308" stop-color="#B3E6F9"/><stop offset="0.451923" stop-color="#B2E6F9"/><stop offset="0.461538" stop-color="#B1E5F9"/><stop offset="0.471154" stop-color="#B0E5F9"/><stop offset="0.480769" stop-color="#AFE5F9"/><stop offset="0.490385" stop-color="#AEE4F9"/><stop offset="0.5" stop-color="#ADE4F9"/><stop offset="0.509615" stop-color="#ACE4F9"/><stop offset="0.519231" stop-color="#ABE3F8"/><stop offset="0.528846" stop-color="#AAE3F8"/><stop offset="0.538462" stop-color="#A9E3F8"/><stop offset="0.548077" stop-color="#A7E2F8"/><stop offset="0.557692" stop-color="#A6E2F8"/><stop offset="0.567308" stop-color="#A5E1F8"/><stop offset="0.576923" stop-color="#A4E1F8"/><stop offset="0.586538" stop-color="#A3E1F8"/><stop offset="0.596154" stop-color="#A2E0F8"/><stop offset="0.605769" stop-color="#A0E0F8"/><stop offset="0.615385" stop-color="#9FDFF8"/><stop offset="0.625" stop-color="#9EDFF8"/><stop offset="0.634615" stop-color="#9DDFF8"/><stop offset="0.644231" stop-color="#9BDEF7"/><stop offset="0.653846" stop-color="#9ADEF7"/><stop offset="0.663462" stop-color="#99DDF7"/><stop offset="0.673077" stop-color="#98DDF7"/><stop offset="0.682692" stop-color="#96DCF7"/><stop offset="0.692308" stop-color="#95DCF7"/><stop offset="0.701923" stop-color="#93DBF7"/><stop offset="0.711538" stop-color="#92DBF7"/><stop offset="0.721154" stop-color="#91DBF7"/><stop offset="0.730769" stop-color="#8FDAF7"/><stop offset="0.740385" stop-color="#8EDAF7"/><stop offset="0.75" stop-color="#8CD9F6"/><stop offset="0.759615" stop-color="#8BD9F6"/><stop offset="0.769231" stop-color="#89D8F6"/><stop offset="0.778846" stop-color="#88D8F6"/><stop offset="0.788462" stop-color="#86D7F6"/><stop offset="0.798077" stop-color="#85D7F6"/><stop offset="0.807692" stop-color="#83D6F6"/><stop offset="0.817308" stop-color="#82D6F6"/><stop offset="0.826923" stop-color="#80D5F6"/><stop offset="0.836538" stop-color="#7ED4F5"/><stop offset="0.846154" stop-color="#7DD4F5"/><stop offset="0.855769" stop-color="#7BD3F5"/><stop offset="0.865385" stop-color="#79D3F5"/><stop offset="0.875" stop-color="#78D2F5"/><stop offset="0.884615" stop-color="#76D2F5"/><stop offset="0.894231" stop-color="#74D1F5"/><stop offset="0.903846" stop-color="#73D1F5"/><stop offset="0.913462" stop-color="#71D0F5"/><stop offset="0.923077" stop-color="#6FCFF4"/><stop offset="0.932692" stop-color="#6DCFF4"/><stop offset="0.942308" stop-color="#6CCEF4"/><stop offset="0.951923" stop-color="#6ACEF4"/><stop offset="0.961538" stop-color="#68CDF4"/><stop offset="0.971154" stop-color="#66CCF4"/><stop offset="0.980769" stop-color="#64CCF4"/><stop offset="0.990385" stop-color="#62CBF4"/><stop offset="1" stop-color="#61CBF4"/></linearGradient><linearGradient x1="29.5001" y1="0" x2="29.5001" y2="116" gradientUnits="userSpaceOnUse" spreadMethod="reflect" id="fill3"><stop offset="0" stop-color="#CAEEFB"/><stop offset="0.00961538" stop-color="#C9EDFA"/><stop offset="0.0192308" stop-color="#C9EDFA"/><stop offset="0.0288462" stop-color="#C9EDFA"/><stop offset="0.0384615" stop-color="#C9EDFA"/><stop offset="0.0480769" stop-color="#C9EDFA"/><stop offset="0.0576923" stop-color="#C9EDFA"/><stop offset="0.0673077" stop-color="#C9EDFA"/><stop offset="0.0769231" stop-color="#C9EDFA"/><stop offset="0.0865385" stop-color="#C8EDFA"/><stop offset="0.0961538" stop-color="#C8EDFA"/><stop offset="0.105769" stop-color="#C8EDFA"/><stop offset="0.115385" stop-color="#C8EDFA"/><stop offset="0.125" stop-color="#C7EDFA"/><stop offset="0.134615" stop-color="#C7EDFA"/><stop offset="0.144231" stop-color="#C7EDFA"/><stop offset="0.153846" stop-color="#C6ECFA"/><stop offset="0.163462" stop-color="#C6ECFA"/><stop offset="0.173077" stop-color="#C6ECFA"/><stop offset="0.182692" stop-color="#C5ECFA"/><stop offset="0.192308" stop-color="#C5ECFA"/><stop offset="0.201923" stop-color="#C4ECFA"/><stop offset="0.211538" stop-color="#C4ECFA"/><stop offset="0.221154" stop-color="#C3EBFA"/><stop offset="0.230769" stop-color="#C3EBFA"/><stop offset="0.240385" stop-color="#C2EBFA"/><stop offset="0.25" stop-color="#C2EBFA"/><stop offset="0.259615" stop-color="#C1EBFA"/><stop offset="0.269231" stop-color="#C1EBFA"/><stop offset="0.278846" stop-color="#C0EAFA"/><stop offset="0.288462" stop-color="#BFEAFA"/><stop offset="0.298077" stop-color="#BFEAFA"/><stop offset="0.307692" stop-color="#BEEAFA"/><stop offset="0.317308" stop-color="#BDE9FA"/><stop offset="0.326923" stop-color="#BDE9FA"/><stop offset="0.336538" stop-color="#BCE9FA"/><stop offset="0.346154" stop-color="#BBE9FA"/><stop offset="0.355769" stop-color="#BAE8F9"/><stop offset="0.365385" stop-color="#BAE8F9"/><stop offset="0.375" stop-color="#B9E8F9"/><stop offset="0.384615" stop-color="#B8E8F9"/><stop offset="0.394231" stop-color="#B7E7F9"/><stop offset="0.403846" stop-color="#B6E7F9"/><stop offset="0.413462" stop-color="#B5E7F9"/><stop offset="0.423077" stop-color="#B5E7F9"/><stop offset="0.432692" stop-color="#B4E6F9"/><stop offset="0.442308" stop-color="#B3E6F9"/><stop offset="0.451923" stop-color="#B2E6F9"/><stop offset="0.461538" stop-color="#B1E5F9"/><stop offset="0.471154" stop-color="#B0E5F9"/><stop offset="0.480769" stop-color="#AFE5F9"/><stop offset="0.490385" stop-color="#AEE4F9"/><stop offset="0.5" stop-color="#ADE4F9"/><stop offset="0.509615" stop-color="#ACE4F9"/><stop offset="0.519231" stop-color="#ABE3F8"/><stop offset="0.528846" stop-color="#AAE3F8"/><stop offset="0.538462" stop-color="#A9E3F8"/><stop offset="0.548077" stop-color="#A7E2F8"/><stop offset="0.557692" stop-color="#A6E2F8"/><stop offset="0.567308" stop-color="#A5E1F8"/><stop offset="0.576923" stop-color="#A4E1F8"/><stop offset="0.586538" stop-color="#A3E1F8"/><stop offset="0.596154" stop-color="#A2E0F8"/><stop offset="0.605769" stop-color="#A0E0F8"/><stop offset="0.615385" stop-color="#9FDFF8"/><stop offset="0.625" stop-color="#9EDFF8"/><stop offset="0.634615" stop-color="#9DDFF8"/><stop offset="0.644231" stop-color="#9BDEF7"/><stop offset="0.653846" stop-color="#9ADEF7"/><stop offset="0.663462" stop-color="#99DDF7"/><stop offset="0.673077" stop-color="#98DDF7"/><stop offset="0.682692" stop-color="#96DCF7"/><stop offset="0.692308" stop-color="#95DCF7"/><stop offset="0.701923" stop-color="#93DBF7"/><stop offset="0.711538" stop-color="#92DBF7"/><stop offset="0.721154" stop-color="#91DBF7"/><stop offset="0.730769" stop-color="#8FDAF7"/><stop offset="0.740385" stop-color="#8EDAF7"/><stop offset="0.75" stop-color="#8CD9F6"/><stop offset="0.759615" stop-color="#8BD9F6"/><stop offset="0.769231" stop-color="#89D8F6"/><stop offset="0.778846" stop-color="#88D8F6"/><stop offset="0.788462" stop-color="#86D7F6"/><stop offset="0.798077" stop-color="#85D7F6"/><stop offset="0.807692" stop-color="#83D6F6"/><stop offset="0.817308" stop-color="#82D6F6"/><stop offset="0.826923" stop-color="#80D5F6"/><stop offset="0.836538" stop-color="#7ED4F5"/><stop offset="0.846154" stop-color="#7DD4F5"/><stop offset="0.855769" stop-color="#7BD3F5"/><stop offset="0.865385" stop-color="#79D3F5"/><stop offset="0.875" stop-color="#78D2F5"/><stop offset="0.884615" stop-color="#76D2F5"/><stop offset="0.894231" stop-color="#74D1F5"/><stop offset="0.903846" stop-color="#73D1F5"/><stop offset="0.913462" stop-color="#71D0F5"/><stop offset="0.923077" stop-color="#6FCFF4"/><stop offset="0.932692" stop-color="#6DCFF4"/><stop offset="0.942308" stop-color="#6CCEF4"/><stop offset="0.951923" stop-color="#6ACEF4"/><stop offset="0.961538" stop-color="#68CDF4"/><stop offset="0.971154" stop-color="#66CCF4"/><stop offset="0.980769" stop-color="#64CCF4"/><stop offset="0.990385" stop-color="#62CBF4"/><stop offset="1" stop-color="#61CBF4"/></linearGradient><linearGradient x1="33" y1="0" x2="33" y2="170" gradientUnits="userSpaceOnUse" spreadMethod="reflect" id="fill4"><stop offset="0" stop-color="#FFFFFF"/><stop offset="0.505" stop-color="#FFFFFF"/><stop offset="1" stop-color="#BFBFBF"/></linearGradient></defs><g transform="translate(-914 -309)"><rect x="0" y="0" width="2526" height="1382" fill="#FFFFFF" transform="matrix(-1 0 0 1 3440 309)"/><path d="M2854.5 561.5 3026.5 561.5 3026.5 1021.5" stroke="#000000" stroke-width="4.58333" stroke-linecap="round" stroke-linejoin="round" stroke-miterlimit="10" fill="none" fill-rule="evenodd"/><path d="M1751.4 848.5 1779.07 1078.46 2052.93 1078.46C2079.75 1078.46 2101.5 1100.23 2101.5 1127.1L2101.5 1552.86C2101.5 1579.72 2079.75 1601.5 2052.93 1601.5L1419.07 1601.5C1392.25 1601.5 1370.5 1579.72 1370.5 1552.86L1370.5 1127.1C1370.5 1100.23 1392.25 1078.46 1419.07 1078.46L1723.73 1078.46Z" stroke="#7F7F7F" stroke-width="4.58333" stroke-linecap="round" stroke-linejoin="round" stroke-miterlimit="10" fill="#F2F2F2" fill-rule="evenodd"/><path d="M2.29167-1.64645e-06 2.29203 502.319C2.29203 503.585 1.26602 504.611 0.000362539 504.611-1.26529 504.611-2.2913 503.585-2.29131 502.319L-2.29167 1.64645e-06C-2.29167-1.26565-1.26565-2.29167-1.64645e-06-2.29167 1.26565-2.29167 2.29167-1.26565 2.29167-1.64645e-06ZM-13.75 9.87872e-06C-13.75-7.59391-7.59393-13.75-9.87872e-06-13.75 7.59391-13.75 13.75-7.59393 13.75-9.87872e-06 13.75 7.59391 7.59393 13.75 9.87872e-06 13.75-7.59391 13.75-13.75 7.59393-13.75 9.87872e-06ZM13.7504 502.319C13.7504 509.913 7.59429 516.069 0.000370771 516.069-7.59354 516.069-13.7496 509.913-13.7496 502.319-13.7496 494.725-7.59356 488.569 0.000351014 488.569 7.59427 488.569 13.7504 494.725 13.7504 502.319Z" transform="matrix(-1 0 0 1 2331.5 519.5)"/><rect x="0" y="0" width="422" height="502" stroke="#000000" stroke-width="4.58333" stroke-linecap="round" stroke-linejoin="round" stroke-miterlimit="10" fill="none" transform="matrix(-1 0 0 1 1653.5 519.5)"/><rect x="0" y="0" width="84.9999" height="45" stroke="#000000" stroke-width="4.58333" stroke-linecap="round" stroke-linejoin="round" stroke-miterlimit="10" fill="#E8E8E8" transform="matrix(-6.12323e-17 -1 -1 6.12323e-17 2353.5 818.5)"/><path d="M0 44 27.5 0 55 44Z" stroke="#000000" stroke-width="4.58333" stroke-linecap="round" stroke-linejoin="round" stroke-miterlimit="10" fill-rule="evenodd" transform="matrix(1 -1.22465e-16 -1.22465e-16 -1 1819.5 792.5)"/><path d="M0 0 0.000360892 54.8593" stroke="#000000" stroke-width="9.16667" stroke-miterlimit="8" fill-rule="evenodd" transform="matrix(1.83697e-16 1 1 -1.83697e-16 1819.5 792.5)"/><path d="M2.14088-0.817551 11.0513 22.5156 6.76951 24.1507-2.14088 0.817551ZM15.8388 15.7812 13.8157 36.1784-1.28822 22.3216Z" transform="matrix(1.83697e-16 1 1 -1.83697e-16 1877.5 759.5)"/><path d="M2.14088-0.817551 11.0513 22.5156 6.76951 24.1507-2.14088 0.817551ZM15.8388 15.7812 13.8157 36.1784-1.28822 22.3216Z" transform="matrix(1.83697e-16 1 1 -1.83697e-16 1877.5 779.5)"/><path d="M1680.5 748.5 1653 792.5 1625.5 748.5Z" stroke="#000000" stroke-width="4.58333" stroke-linecap="round" stroke-linejoin="round" stroke-miterlimit="10" fill-rule="evenodd"/><path d="M1680.36 792.5 1625.5 792.5" stroke="#000000" stroke-width="9.16667" stroke-miterlimit="8" fill-rule="evenodd"/><path d="M1622.5 761.641 1599.16 770.551 1597.53 766.27 1620.86 757.359ZM1605.9 775.339 1585.5 773.316 1599.36 758.212Z"/><path d="M1622.5 781.641 1599.16 790.552 1597.53 786.27 1620.86 777.359ZM1605.9 795.339 1585.5 793.316 1599.36 778.212Z"/><text font-family="Noto Sans JP,Noto Sans JP_MSFontService,sans-serif" font-weight="400" font-size="55" transform="matrix(1 0 0 1 2607.61 794)">1uF</text><text font-family="Noto Sans JP,Noto Sans JP_MSFontService,sans-serif" font-weight="400" font-size="55" transform="matrix(1 0 0 1 2701.57 794)"> </text><text font-family="Noto Sans JP,Noto Sans JP_MSFontService,sans-serif" font-weight="400" font-size="55" transform="matrix(1 0 0 1 2373.88 797)">R</text><text font-family="Noto Sans JP,Noto Sans JP_MSFontService,sans-serif" font-weight="400" font-size="37" transform="matrix(1 0 0 1 2408.82 810)">L</text><text font-family="Noto Sans JP,Noto Sans JP_MSFontService,sans-serif" font-weight="400" font-size="37" transform="matrix(1 0 0 1 2428.88 810)"> </text><path d="M1691 764.125 1773.5 764.125C1777.3 764.125 1780.37 767.203 1780.37 771 1780.37 774.797 1777.3 777.875 1773.5 777.875L1691 777.875C1687.2 777.875 1684.12 774.797 1684.12 771 1684.12 767.203 1687.2 764.125 1691 764.125ZM1766.62 750.375 1807.87 771 1766.62 791.625Z" fill="#D86ECC"/><text font-family="Noto Sans JP,Noto Sans JP_MSFontService,sans-serif" font-weight="400" font-size="55" transform="matrix(1 0 0 1 1927.24 794)">OSUB5161P</text><text font-family="Noto Sans JP,Noto Sans JP_MSFontService,sans-serif" font-weight="400" font-size="55" transform="matrix(1 0 0 1 2232.6 794)"> </text><path d="M0 48.5C-6.17469e-15 21.7142 21.7142-6.17469e-15 48.5-1.23494e-14 75.2858-2.46988e-14 96.9999 21.7142 96.9999 48.5 96.9999 75.2858 75.2858 96.9999 48.5 96.9999 21.7142 96.9999-3.08735e-14 75.2858 0 48.5Z" stroke="#000000" stroke-width="4.58333" stroke-linecap="round" stroke-linejoin="round" stroke-miterlimit="10" fill="#FFFFFF" fill-rule="evenodd" transform="matrix(-1 0 0 1 1277.5 722.5)"/><path d="M1223.92 798.859 1223.92 758.417C1223.92 755.885 1225.97 753.833 1228.5 753.833 1231.03 753.833 1233.08 755.885 1233.08 758.417L1233.08 798.859C1233.08 801.39 1231.03 803.442 1228.5 803.442 1225.97 803.443 1223.92 801.39 1223.92 798.859ZM1214.75 763 1228.5 735.5 1242.25 763Z"/><text font-family="Noto Sans JP,Noto Sans JP_MSFontService,sans-serif" font-weight="400" font-size="55" transform="matrix(1 0 0 1 985.972 790)">600mA</text><text font-family="Noto Sans JP,Noto Sans JP_MSFontService,sans-serif" font-weight="400" font-size="55" transform="matrix(1 0 0 1 1161.28 790)"> </text><text font-family="Noto Sans JP,Noto Sans JP_MSFontService,sans-serif" font-weight="400" font-size="55" transform="matrix(1 0 0 1 1405.77 764)">Power</text><text font-family="Noto Sans JP,Noto Sans JP_MSFontService,sans-serif" font-weight="400" font-size="55" transform="matrix(1 0 0 1 1567.34 764)"> </text><text font-family="Noto Sans JP,Noto Sans JP_MSFontService,sans-serif" font-weight="400" font-size="55" transform="matrix(1 0 0 1 1436.44 830)">LED</text><text font-family="Noto Sans JP,Noto Sans JP_MSFontService,sans-serif" font-weight="400" font-size="55" transform="matrix(1 0 0 1 1536.7 830)"> </text><text font-family="Noto Sans JP,Noto Sans JP_MSFontService,sans-serif" font-weight="400" font-size="55" transform="matrix(1 0 0 1 1538.87 1183)">Aluminum Pipe</text><text font-family="Noto Sans JP,Noto Sans JP_MSFontService,sans-serif" font-weight="400" font-size="55" transform="matrix(1 0 0 1 1931.89 1183)"> </text><path d="M2757.5 471.5 2887.5 559 2757.5 646.5Z" stroke="#000000" stroke-width="4.58333" stroke-linecap="round" stroke-linejoin="round" stroke-miterlimit="10" fill="#F2F2F2" fill-rule="evenodd"/><path d="M58.0001 95.0002 0 95.0002 0 0" stroke="#000000" stroke-width="4.58333" stroke-linecap="round" stroke-linejoin="round" stroke-miterlimit="10" fill="none" fill-rule="evenodd" transform="matrix(1 0 0 -1 2698.5 691.5)"/><path d="M239 132.292 0 132.292C-1.26565 132.292-2.29167 131.266-2.29167 130L-2.29167 0C-2.29167-1.26565-1.26565-2.29167 0-2.29167 1.26565-2.29167 2.29167-1.26565 2.29167 0L2.29167 130 0 127.709 239 127.709C240.266 127.709 241.292 128.735 241.292 130 241.292 131.266 240.266 132.292 239 132.292ZM-13.75 0C-13.75-7.59392-7.59392-13.75 0-13.75 7.59392-13.75 13.75-7.59392 13.75 0 13.75 7.59392 7.59392 13.75 0 13.75-7.59392 13.75-13.75 7.59392-13.75 0Z" transform="matrix(-1 0 0 1 2937.5 561.5)"/><path d="M1846.5 1023.5 3026.94 1023.5" stroke="#000000" stroke-width="4.58333" stroke-linecap="round" stroke-linejoin="round" stroke-miterlimit="10" fill="none" fill-rule="evenodd"/><text font-family="Noto Sans JP,Noto Sans JP_MSFontService,sans-serif" font-weight="400" font-size="55" transform="matrix(1 0 0 1 2751.15 442)">Buffer</text><text font-family="Noto Sans JP,Noto Sans JP_MSFontService,sans-serif" font-weight="400" font-size="55" transform="matrix(1 0 0 1 2906.41 442)"> </text><text font-family="Noto Sans JP,Noto Sans JP_MSFontService,sans-serif" font-weight="400" font-size="41" transform="matrix(1 0 0 1 2764.44 534)">＋</text><text font-family="Noto Sans JP,Noto Sans JP_MSFontService,sans-serif" font-weight="400" font-size="41" transform="matrix(1 0 0 1 2805.69 534)"> </text><text font-family="Noto Sans JP,Noto Sans JP_MSFontService,sans-serif" font-weight="400" font-size="41" transform="matrix(1 0 0 1 2764.44 612)">－</text><text font-family="Noto Sans JP,Noto Sans JP_MSFontService,sans-serif" font-weight="400" font-size="41" transform="matrix(1 0 0 1 2805.69 612)"> </text><rect x="0" y="0" width="208" height="157" fill="url(#fill0)" transform="matrix(-1 1.22465e-16 1.22465e-16 1 1841 1311)"/><rect x="0" y="0" width="208" height="22.9997" stroke="#404040" stroke-width="4.58333" stroke-linecap="round" stroke-linejoin="round" stroke-miterlimit="10" fill="#BFBFBF" transform="matrix(-1 1.22465e-16 1.22465e-16 1 1841.5 1297.5)"/><rect x="0" y="0" width="208" height="22" stroke="#404040" stroke-width="4.58333" stroke-linecap="round" stroke-linejoin="round" stroke-miterlimit="10" fill="#BFBFBF" transform="matrix(-1 1.22465e-16 1.22465e-16 1 1841.5 1458.5)"/><path d="M0 0 100.966 0 100.966 0.183521 102.837 0C136.064 0 163 26.1914 163 58.4999 163 90.8085 136.064 117 102.837 117L100.966 116.817 100.966 117 0 117Z" stroke="#0070C0" stroke-width="4.58333" stroke-linecap="round" stroke-linejoin="round" stroke-miterlimit="10" fill="url(#fill1)" fill-rule="evenodd" transform="matrix(-1 1.22465e-16 1.22465e-16 1 1850.5 1330.5)"/><path d="M1.51312 0 114.761 0 138.993 0 162 0 162 56 149.158 56 116.211 16.3539 2.6909 16.3539 3.77444 13.2812C3.77444 11.6445 3.20968 10.1628 2.29658 9.0903L1.74904 8.6566 1.74904 8.62434 1.47787 8.40977C0.564924 7.3371 0 5.85554 0 4.21883 0 2.58212 0.564924 1.10037 1.47787 0.0278922Z" stroke="#000000" stroke-width="4.58333" stroke-linecap="round" stroke-linejoin="round" stroke-miterlimit="10" fill="#F2F2F2" fill-rule="evenodd" transform="matrix(-1 1.22465e-16 1.22465e-16 1 1939.5 1350.5)"/><path d="M1.28271 0 114.255 0 132.027 0 138.986 0 145.856 8.02406 162 8.02406 162 17.0002 132.027 17.0002 114.255 17.0002 2.48413 17.0002 3.76911 13.2069C3.76911 11.5055 3.20515 9.96517 2.29333 8.8503L1.74657 8.39947 1.74657 8.36593 1.47578 8.14288C0.564126 7.02783 0 5.48771 0 3.78633Z" stroke="#000000" stroke-width="4.58333" stroke-linecap="round" stroke-linejoin="round" stroke-miterlimit="10" fill="#F2F2F2" fill-rule="evenodd" transform="matrix(-1 1.22465e-16 1.22465e-16 1 1939.5 1411.5)"/><rect x="0" y="0" width="29.0002" height="141" stroke="#0070C0" stroke-width="4.58333" stroke-linecap="round" stroke-linejoin="round" stroke-miterlimit="10" fill="url(#fill2)" transform="matrix(-1 1.22465e-16 1.22465e-16 1 1879.5 1318.5)"/><path d="M27.106 0 36.0001 0 36.0001 8.85171 36.0001 10.1013 36.0001 18.8486 36.0001 38.2337 36.0001 39.4833 10.1647 54.8679 10.1647 68.7505 10.1647 70.0001 0 70.0001 0 68.7505 0 51.7153 0 50.4656 27.106 34.0723 27.106 18.8486 27.106 10.1013 27.106 8.85171Z" stroke="#000000" stroke-width="4.58333" stroke-linecap="round" stroke-linejoin="round" stroke-miterlimit="10" fill="#F2F2F2" fill-rule="evenodd" transform="matrix(-1 1.22465e-16 1.22465e-16 1 1592.5 1238.5)"/><path d="M1565.39 1541.5 1556.5 1541.5 1556.5 1532.52 1556.5 1531.25 1556.5 1522.38 1556.5 1502.72 1556.5 1501.45 1582.34 1485.85 1582.34 1471.77 1582.34 1470.5 1592.5 1470.5 1592.5 1471.77 1592.5 1489.05 1592.5 1490.31 1565.39 1506.94 1565.39 1522.38 1565.39 1531.25 1565.39 1532.52Z" stroke="#000000" stroke-width="4.58333" stroke-linecap="round" stroke-linejoin="round" stroke-miterlimit="10" fill="#F2F2F2" fill-rule="evenodd"/><path d="M59.0001 0 59.0001 116C26.4153 116 0 90.0326 0 58.0001 0 25.9676 26.4153 0 59.0001 0Z" stroke="#0070C0" stroke-width="4.58333" stroke-linecap="round" stroke-linejoin="round" stroke-miterlimit="10" fill="url(#fill3)" fill-rule="evenodd" transform="matrix(-1 1.22465e-16 1.22465e-16 1 1681.5 1331.5)"/><rect x="0" y="0" width="66" height="170" stroke="#000000" stroke-width="4.58333" stroke-linecap="round" stroke-linejoin="round" stroke-miterlimit="10" fill="url(#fill4)" transform="matrix(-1 1.22465e-16 1.22465e-16 1 1622.5 1304.5)"/><path d="M0 48.5C-6.17469e-15 21.7142 21.7142-6.17469e-15 48.5-1.23494e-14 75.2858-2.46988e-14 96.9999 21.7142 96.9999 48.5 96.9999 75.2858 75.2858 96.9999 48.5 96.9999 21.7142 96.9999-3.08735e-14 75.2858 0 48.5Z" stroke="#000000" stroke-width="4.58333" stroke-linecap="round" stroke-linejoin="round" stroke-miterlimit="10" fill="#FFFFFF" fill-rule="evenodd" transform="matrix(-1 0 0 1 3075.5 764.5)"/><text font-family="Meiryo,Meiryo_MSFontService,sans-serif" font-weight="400" font-size="73" transform="matrix(1 0 0 1 3001.45 843)">V</text><path d="M1739.79 1199.5 1739.79 1273C1739.79 1274.27 1738.77 1275.29 1737.5 1275.29 1736.23 1275.29 1735.21 1274.27 1735.21 1273L1735.21 1199.5C1735.21 1198.23 1736.23 1197.21 1737.5 1197.21 1738.77 1197.21 1739.79 1198.23 1739.79 1199.5ZM1751.25 1268.42 1737.5 1295.92 1723.75 1268.42Z"/><text font-family="Noto Sans JP,Noto Sans JP_MSFontService,sans-serif" font-weight="400" font-size="55" transform="matrix(1 0 0 1 3103.11 829)">Voltmeter</text><text font-family="Noto Sans JP,Noto Sans JP_MSFontService,sans-serif" font-weight="400" font-size="55" transform="matrix(1 0 0 1 3354.62 829)"> </text><path d="M909 502 0 502 0 0" stroke="#000000" stroke-width="4.58333" stroke-linecap="round" stroke-linejoin="round" stroke-miterlimit="10" fill="none" fill-rule="evenodd" transform="matrix(1 0 0 -1 1846.5 1021.5)"/><path d="M2.29167-1.64645e-06 2.29203 502.319C2.29203 503.585 1.26602 504.611 0.000362539 504.611-1.26529 504.611-2.2913 503.585-2.29131 502.319L-2.29167 1.64645e-06C-2.29167-1.26565-1.26565-2.29167-1.64645e-06-2.29167 1.26565-2.29167 2.29167-1.26565 2.29167-1.64645e-06ZM-13.75 9.87872e-06C-13.75-7.59391-7.59393-13.75-9.87872e-06-13.75 7.59391-13.75 13.75-7.59393 13.75-9.87872e-06 13.75 7.59391 7.59393 13.75 9.87872e-06 13.75-7.59391 13.75-13.75 7.59393-13.75 9.87872e-06ZM13.7504 502.319C13.7504 509.913 7.59429 516.069 0.000370771 516.069-7.59354 516.069-13.7496 509.913-13.7496 502.319-13.7496 494.725-7.59356 488.569 0.000351014 488.569 7.59427 488.569 13.7504 494.725 13.7504 502.319Z" transform="matrix(-1 0 0 1 2543.5 519.5)"/><rect x="0" y="0" width="89" height="39.0002" fill="#FFFFFF" transform="matrix(-1 0 0 1 2586 755)"/><path d="M0 0 88.9513 0.000360892" stroke="#000000" stroke-width="9.16667" stroke-miterlimit="8" fill-rule="evenodd" transform="matrix(-1 0 0 1 2586.45 754.5)"/><path d="M0 0 88.9513 0.000360892" stroke="#000000" stroke-width="9.16667" stroke-miterlimit="8" fill-rule="evenodd" transform="matrix(-1 0 0 1 2586.45 794.5)"/></g></svg>