<svg width="2963" height="2262" xmlns="http://www.w3.org/2000/svg" xmlns:xlink="http://www.w3.org/1999/xlink" xml:space="preserve" overflow="hidden"><g transform="translate(-220 -45)"><rect x="220" y="45" width="2963" height="2262" fill="#FFFFFF"/><path d="M2009.79 1454.04 2009.79 2076.5C2009.79 2077.77 2008.77 2078.79 2007.5 2078.79 2006.23 2078.79 2005.21 2077.77 2005.21 2076.5L2005.21 1454.04C2005.21 1452.77 2006.23 1451.75 2007.5 1451.75 2008.77 1451.75 2009.79 1452.77 2009.79 1454.04ZM1989.48 1480.38 2007.5 1449.49 2025.52 1480.38C2026.16 1481.48 2025.79 1482.88 2024.7 1483.52 2023.6 1484.15 2022.2 1483.79 2021.56 1482.69L2005.52 1455.19 2009.48 1455.19 1993.44 1482.69C1992.8 1483.79 1991.4 1484.15 1990.3 1483.52 1989.21 1482.88 1988.84 1481.48 1989.48 1480.38Z"/><path d="M2038.5 2073.5 2006 2106.5 1973.5 2073.5Z" stroke="#000000" stroke-width="4.58333" stroke-linecap="round" stroke-linejoin="round" stroke-miterlimit="10" fill="#FFFFFF" fill-rule="evenodd"/><path d="M2669.79 1454.04 2669.79 2076.5C2669.79 2077.77 2668.77 2078.79 2667.5 2078.79 2666.23 2078.79 2665.21 2077.77 2665.21 2076.5L2665.21 1454.04C2665.21 1452.77 2666.23 1451.75 2667.5 1451.75 2668.77 1451.75 2669.79 1452.77 2669.79 1454.04ZM2649.48 1480.38 2667.5 1449.49 2685.52 1480.38C2686.16 1481.48 2685.79 1482.88 2684.7 1483.52 2683.6 1484.15 2682.2 1483.79 2681.56 1482.69L2665.52 1455.19 2669.48 1455.19 2653.44 1482.69C2652.8 1483.79 2651.4 1484.15 2650.3 1483.52 2649.21 1482.88 2648.84 1481.48 2649.48 1480.38Z"/><path d="M2699.5 2073.5 2667 2106.5 2634.5 2073.5Z" stroke="#000000" stroke-width="4.58333" stroke-linecap="round" stroke-linejoin="round" stroke-miterlimit="10" fill="#FFFFFF" fill-rule="evenodd"/><rect x="1855.5" y="603.5" width="516" height="186" stroke="#000000" stroke-width="4.58333" stroke-linecap="round" stroke-linejoin="round" stroke-miterlimit="10" fill="none"/><path d="M474.792 319.041 474.792 1180.96C474.792 1182.23 473.766 1183.25 472.501 1183.25 471.235 1183.25 470.209 1182.23 470.209 1180.96L470.208 319.041C470.208 317.775 471.234 316.749 472.5 316.749 473.766 316.749 474.792 317.775 474.792 319.041ZM454.479 345.383 472.5 314.489 490.521 345.383C491.159 346.476 490.79 347.879 489.697 348.517 488.603 349.155 487.2 348.785 486.562 347.692L470.521 320.192 474.48 320.192 458.438 347.692C457.8 348.785 456.397 349.155 455.304 348.517 454.211 347.879 453.841 346.476 454.479 345.383Z"/><path d="M504.5 1180.5 472 1212.5 439.5 1180.5Z" stroke="#000000" stroke-width="4.58333" stroke-linecap="round" stroke-linejoin="round" stroke-miterlimit="10" fill="#FFFFFF" fill-rule="evenodd"/><path d="M1147.79 1454.04 1147.79 2076.5C1147.79 2077.77 1146.77 2078.79 1145.5 2078.79 1144.23 2078.79 1143.21 2077.77 1143.21 2076.5L1143.21 1454.04C1143.21 1452.77 1144.23 1451.75 1145.5 1451.75 1146.77 1451.75 1147.79 1452.77 1147.79 1454.04ZM1127.48 1480.38 1145.5 1449.49 1163.52 1480.38C1164.16 1481.48 1163.79 1482.88 1162.7 1483.52 1161.6 1484.15 1160.2 1483.79 1159.56 1482.69L1143.52 1455.19 1147.48 1455.19 1131.44 1482.69C1130.8 1483.79 1129.4 1484.15 1128.3 1483.52 1127.21 1482.88 1126.84 1481.48 1127.48 1480.38Z"/><rect x="922.5" y="1564.5" width="449" height="419" stroke="#000000" stroke-width="4.58333" stroke-linecap="round" stroke-linejoin="round" stroke-miterlimit="10" fill="#F2F2F2"/><text font-family="Noto Sans JP,Noto Sans JP_MSFontService,sans-serif" font-weight="400" font-size="55" transform="matrix(1 0 0 1 1013.16 1617)">LED Driver</text><text font-family="Noto Sans JP,Noto Sans JP_MSFontService,sans-serif" font-weight="400" font-size="55" transform="matrix(1 0 0 1 1279.57 1617)"> </text><text font-family="Noto Sans JP,Noto Sans JP_MSFontService,sans-serif" font-weight="400" font-size="55" transform="matrix(1 0 0 1 1050.7 1683)">Module</text><text font-family="Noto Sans JP,Noto Sans JP_MSFontService,sans-serif" font-weight="400" font-size="55" transform="matrix(1 0 0 1 1242.06 1683)"> </text><path d="M1177.5 2073.5 1144.5 2106.5 1111.5 2073.5Z" stroke="#000000" stroke-width="4.58333" stroke-linecap="round" stroke-linejoin="round" stroke-miterlimit="10" fill="#FFFFFF" fill-rule="evenodd"/><rect x="967.5" y="1723.5" width="353" height="231" stroke="#000000" stroke-width="4.58333" stroke-linecap="round" stroke-linejoin="round" stroke-miterlimit="10" fill="#FFFFFF"/><text font-family="Noto Sans JP,Noto Sans JP_MSFontService,sans-serif" font-weight="400" font-size="55" transform="matrix(1 0 0 1 1035.34 1776)">Driver IC</text><text font-family="Noto Sans JP,Noto Sans JP_MSFontService,sans-serif" font-weight="400" font-size="55" transform="matrix(1 0 0 1 1251.91 1776)"> </text><text font-family="Noto Sans JP,Noto Sans JP_MSFontService,sans-serif" font-weight="400" font-size="55" transform="matrix(1 0 0 1 986.244 1903)">ADJ/DIM</text><text font-family="Noto Sans JP,Noto Sans JP_MSFontService,sans-serif" font-weight="400" font-size="55" transform="matrix(1 0 0 1 1204.53 1903)"> </text><path d="M1480 1671 1451 1717 1422 1671Z" fill-rule="evenodd"/><rect x="1422" y="1713" width="57.9998" height="7.00024"/><path d="M1495.16 1681.31 1524.82 1690.29C1526.03 1690.66 1526.72 1691.94 1526.35 1693.15 1525.98 1694.36 1524.7 1695.05 1523.49 1694.68L1493.84 1685.69C1492.62 1685.33 1491.94 1684.05 1492.31 1682.84 1492.67 1681.62 1493.95 1680.94 1495.16 1681.31ZM1523.76 1678 1546.09 1699.13 1515.78 1704.32Z"/><path d="M1495.16 1703.31 1524.82 1712.29C1526.03 1712.66 1526.72 1713.94 1526.35 1715.15 1525.98 1716.36 1524.7 1717.05 1523.49 1716.68L1493.84 1707.69C1492.62 1707.33 1491.94 1706.05 1492.31 1704.84 1492.67 1703.62 1493.95 1702.94 1495.16 1703.31ZM1523.76 1700 1546.09 1721.13 1515.78 1726.32Z"/><path d="M1480 1820 1451 1866 1422 1820Z" fill-rule="evenodd"/><rect x="1422" y="1862" width="57.9998" height="6.99988"/><path d="M1495.16 1830.31 1524.82 1839.29C1526.03 1839.66 1526.72 1840.94 1526.35 1842.15 1525.98 1843.36 1524.7 1844.05 1523.49 1843.68L1493.84 1834.69C1492.62 1834.33 1491.94 1833.05 1492.31 1831.84 1492.67 1830.62 1493.95 1829.94 1495.16 1830.31ZM1523.76 1827 1546.09 1848.13 1515.78 1853.32Z"/><path d="M1495.16 1852.31 1524.82 1861.29C1526.03 1861.66 1526.72 1862.94 1526.35 1864.15 1525.98 1865.36 1524.7 1866.05 1523.49 1865.68L1493.84 1856.69C1492.62 1856.33 1491.94 1855.05 1492.31 1853.84 1492.67 1852.62 1493.95 1851.94 1495.16 1852.31ZM1523.76 1849 1546.09 1870.13 1515.78 1875.32Z"/><path d="M1452 1744 1452 1815.74" stroke="#000000" stroke-width="13.75" stroke-linecap="round" stroke-linejoin="round" stroke-miterlimit="10" stroke-dasharray="0 27.5" fill="none" fill-rule="evenodd"/><path d="M0 41.9999 0 0 79.0001 0" stroke="#000000" stroke-width="4.58333" stroke-linecap="round" stroke-linejoin="round" stroke-miterlimit="10" fill="none" fill-rule="evenodd" transform="matrix(-1 0 0 1 1451.5 1630.5)"/><path d="M1451.5 1865.5 1451.5 1905.5 1372.5 1905.5" stroke="#000000" stroke-width="4.58333" stroke-linecap="round" stroke-linejoin="round" stroke-miterlimit="10" fill="none" fill-rule="evenodd"/><rect x="0" y="0" width="79.0001" height="119" fill="#FFFFFF" transform="matrix(1.83697e-16 1 1 -1.83697e-16 414 855)"/><rect x="0" y="0" width="8.99993" height="119" transform="matrix(1.83697e-16 1 1 -1.83697e-16 414 851)"/><rect x="0" y="0" width="16.9998" height="57.9997" transform="matrix(1.83697e-16 1 1 -1.83697e-16 444 874)"/><rect x="0" y="0" width="7.9999" height="119" transform="matrix(1.83697e-16 1 1 -1.83697e-16 414 903)"/><rect x="0" y="0" width="15.9998" height="57.9997" transform="matrix(1.83697e-16 1 1 -1.83697e-16 444 926)"/><rect x="0" y="0" width="104" height="72.0002" fill="#FFFFFF" transform="matrix(1.83697e-16 1 1 -1.83697e-16 435 567)"/><path d="M457.5 665.5C457.5 656.663 464.663 649.5 473.5 649.5 482.337 649.5 489.5 656.663 489.5 665.5 489.5 674.337 482.337 681.5 473.5 681.5 464.663 681.5 457.5 674.337 457.5 665.5Z" stroke="#000000" stroke-width="4.58333" stroke-linecap="round" stroke-linejoin="round" stroke-miterlimit="10" fill="#FFFFFF" fill-rule="evenodd"/><path d="M457.5 566.5C457.5 557.663 464.663 550.5 473.5 550.5 482.337 550.5 489.5 557.663 489.5 566.5 489.5 575.337 482.337 582.5 473.5 582.5 464.663 582.5 457.5 575.337 457.5 566.5Z" stroke="#000000" stroke-width="4.58333" stroke-linecap="round" stroke-linejoin="round" stroke-miterlimit="10" fill="#FFFFFF" fill-rule="evenodd"/><path d="M414.5 581.5 464.951 654.514" stroke="#000000" stroke-width="9.16667" stroke-linejoin="round" stroke-miterlimit="10" fill="none" fill-rule="evenodd"/><rect x="1016.5" y="553.5" width="483" height="354" stroke="#000000" stroke-width="4.58333" stroke-linecap="round" stroke-linejoin="round" stroke-miterlimit="10" fill="#F2F2F2"/><text font-family="Noto Sans JP,Noto Sans JP_MSFontService,sans-serif" font-weight="400" font-size="55" transform="matrix(1 0 0 1 1211.64 606)">555</text><text font-family="Noto Sans JP,Noto Sans JP_MSFontService,sans-serif" font-weight="400" font-size="55" transform="matrix(1 0 0 1 1302.73 606)"> </text><text font-family="Noto Sans JP,Noto Sans JP_MSFontService,sans-serif" font-weight="400" font-size="41" transform="matrix(1 0 0 1 1040.62 618)">GND</text><text font-family="Noto Sans JP,Noto Sans JP_MSFontService,sans-serif" font-weight="400" font-size="41" transform="matrix(1 0 0 1 1127.71 618)"> </text><text font-family="Noto Sans JP,Noto Sans JP_MSFontService,sans-serif" font-weight="400" font-size="41" transform="matrix(1 0 0 1 1402.99 618)">VCC</text><text font-family="Noto Sans JP,Noto Sans JP_MSFontService,sans-serif" font-weight="400" font-size="41" transform="matrix(1 0 0 1 1479.19 618)"> </text><text font-family="Noto Sans JP,Noto Sans JP_MSFontService,sans-serif" font-weight="400" font-size="41" transform="matrix(1 0 0 1 1040.62 705)">TRIG</text><text font-family="Noto Sans JP,Noto Sans JP_MSFontService,sans-serif" font-weight="400" font-size="41" transform="matrix(1 0 0 1 1132.29 705)"> </text><text font-family="Noto Sans JP,Noto Sans JP_MSFontService,sans-serif" font-weight="400" font-size="41" transform="matrix(1 0 0 1 1357.73 705)">DISCH</text><text font-family="Noto Sans JP,Noto Sans JP_MSFontService,sans-serif" font-weight="400" font-size="41" transform="matrix(1 0 0 1 1479.19 705)"> </text><text font-family="Noto Sans JP,Noto Sans JP_MSFontService,sans-serif" font-weight="400" font-size="41" transform="matrix(1 0 0 1 1040.62 792)">OUT</text><text font-family="Noto Sans JP,Noto Sans JP_MSFontService,sans-serif" font-weight="400" font-size="41" transform="matrix(1 0 0 1 1125.41 792)"> </text><text font-family="Noto Sans JP,Noto Sans JP_MSFontService,sans-serif" font-weight="400" font-size="41" transform="matrix(1 0 0 1 1319.92 792)">THRESH</text><text font-family="Noto Sans JP,Noto Sans JP_MSFontService,sans-serif" font-weight="400" font-size="41" transform="matrix(1 0 0 1 1479.19 792)"> </text><text font-family="Noto Sans JP,Noto Sans JP_MSFontService,sans-serif" font-weight="400" font-size="41" transform="matrix(1 0 0 1 1040.62 879)">RESET</text><text font-family="Noto Sans JP,Noto Sans JP_MSFontService,sans-serif" font-weight="400" font-size="41" transform="matrix(1 0 0 1 1164.37 879)"> </text><text font-family="Noto Sans JP,Noto Sans JP_MSFontService,sans-serif" font-weight="400" font-size="41" transform="matrix(1 0 0 1 1379.5 879)">CTRL</text><text font-family="Noto Sans JP,Noto Sans JP_MSFontService,sans-serif" font-weight="400" font-size="41" transform="matrix(1 0 0 1 1479.19 879)"> </text><path d="M-2.29167 204-2.29167 0C-2.29167-1.26565-1.26565-2.29167 0-2.29167L145-2.29167C146.266-2.29167 147.292-1.26565 147.292 0 147.292 1.26565 146.266 2.29167 145 2.29167L0 2.29167 2.29167 0 2.29167 204C2.29167 205.265 1.26565 206.292 0 206.292-1.26565 206.292-2.29167 205.265-2.29167 204ZM13.75 204C13.75 211.594 7.59392 217.75 0 217.75-7.59392 217.75-13.75 211.594-13.75 204-13.75 196.406-7.59392 190.25 0 190.25 7.59392 190.25 13.75 196.406 13.75 204Z" transform="matrix(-1 0 0 1 1644.5 775.5)"/><path d="M935.5 1176.5 935.5 688.5 1014.5 688.5" stroke="#000000" stroke-width="4.58333" stroke-linecap="round" stroke-linejoin="round" stroke-miterlimit="10" fill="none" fill-rule="evenodd"/><path d="M935.5 977.208 2494.32 977.208C2495.58 977.208 2496.61 978.234 2496.61 979.5 2496.61 980.766 2495.58 981.792 2494.32 981.792L935.5 981.792C934.234 981.792 933.208 980.765 933.208 979.5 933.208 978.234 934.234 977.208 935.5 977.208ZM935.5 993.25C927.906 993.25 921.75 987.094 921.75 979.5 921.75 971.906 927.906 965.75 935.5 965.75 943.094 965.75 949.25 971.906 949.25 979.5 949.25 987.094 943.094 993.25 935.5 993.25Z"/><rect x="0" y="0" width="76.0003" height="33" fill="#FFFFFF" transform="matrix(-1 0 0 1 973 1053)"/><path d="M0 0 76.4594 0.000360892" stroke="#000000" stroke-width="9.16667" stroke-miterlimit="8" fill-rule="evenodd" transform="matrix(-1 0 0 1 973.959 1052.5)"/><path d="M0 0 76.4594 0.000360892" stroke="#000000" stroke-width="9.16667" stroke-miterlimit="8" fill-rule="evenodd" transform="matrix(-1 0 0 1 973.959 1086.5)"/><path d="M968.5 1177.5 935.5 1210.5 902.5 1177.5Z" stroke="#000000" stroke-width="4.58333" stroke-linecap="round" stroke-linejoin="round" stroke-miterlimit="10" fill="#FFFFFF" fill-rule="evenodd"/><rect x="993" y="1007" width="103" height="126" fill="#FFFFFF"/><text font-family="Noto Sans JP,Noto Sans JP_MSFontService,sans-serif" font-weight="400" font-size="55" transform="matrix(1 0 0 1 993.367 1057)">C2</text><text font-family="Noto Sans JP,Noto Sans JP_MSFontService,sans-serif" font-weight="400" font-size="55" transform="matrix(1 0 0 1 1058.68 1057)"> </text><text font-family="Noto Sans JP,Noto Sans JP_MSFontService,sans-serif" font-weight="400" font-size="55" transform="matrix(1 0 0 1 993.367 1123)">1nF</text><text font-family="Noto Sans JP,Noto Sans JP_MSFontService,sans-serif" font-weight="400" font-size="55" transform="matrix(1 0 0 1 1087.9 1123)"> </text><path d="M0 312 0 0 72.9999 0" stroke="#000000" stroke-width="4.58333" stroke-linecap="round" stroke-linejoin="round" stroke-miterlimit="10" fill="none" fill-rule="evenodd" transform="matrix(-1 0 0 1 1574.5 864.5)"/><rect x="0" y="0" width="77" height="33" fill="#FFFFFF" transform="matrix(-1 0 0 1 1613 1053)"/><path d="M0 0 76.4594 0.000360892" stroke="#000000" stroke-width="9.16667" stroke-miterlimit="8" fill-rule="evenodd" transform="matrix(-1 0 0 1 1612.96 1052.5)"/><path d="M0 0 76.4594 0.000360892" stroke="#000000" stroke-width="9.16667" stroke-miterlimit="8" fill-rule="evenodd" transform="matrix(-1 0 0 1 1612.96 1086.5)"/><path d="M1607.5 1177.5 1575 1210.5 1542.5 1177.5Z" stroke="#000000" stroke-width="4.58333" stroke-linecap="round" stroke-linejoin="round" stroke-miterlimit="10" fill="#FFFFFF" fill-rule="evenodd"/><rect x="1630" y="1047" width="123" height="46.0001" fill="#FFFFFF"/><text font-family="Noto Sans JP,Noto Sans JP_MSFontService,sans-serif" font-weight="400" font-size="55" transform="matrix(1 0 0 1 1630.32 1057)">C3</text><text font-family="Noto Sans JP,Noto Sans JP_MSFontService,sans-serif" font-weight="400" font-size="55" transform="matrix(1 0 0 1 1695.64 1057)"> </text><text font-family="Noto Sans JP,Noto Sans JP_MSFontService,sans-serif" font-weight="400" font-size="55" transform="matrix(1 0 0 1 1630.32 1123)">0.1μF</text><text font-family="Noto Sans JP,Noto Sans JP_MSFontService,sans-serif" font-weight="400" font-size="55" transform="matrix(1 0 0 1 1771.26 1123)"> </text><rect x="2350.5" y="643.5" width="42" height="102" stroke="#000000" stroke-width="4.58333" stroke-linecap="round" stroke-linejoin="round" stroke-miterlimit="10" fill="#F2F2F2"/><rect x="2140.5" y="766.5" width="101" height="40.9999" stroke="#000000" stroke-width="4.58333" stroke-linecap="round" stroke-linejoin="round" stroke-miterlimit="10" fill="#F2F2F2"/><path d="M2.31341e-06-2.29167 357.5-2.29131C358.766-2.2913 359.792-1.26529 359.792 0.000363206 359.792 1.26602 358.766 2.29203 357.5 2.29203L-2.31341e-06 2.29167C-1.26565 2.29167-2.29167 1.26565-2.29167-2.31341e-06-2.29167-1.26565-1.26565-2.29167 2.31341e-06-2.29167ZM-1.38805e-05 13.75C-7.59393 13.75-13.75 7.5939-13.75-1.38805e-05-13.75-7.59393-7.5939-13.75 1.38805e-05-13.75 7.59393-13.75 13.75-7.5939 13.75 1.38805e-05 13.75 7.59393 7.5939 13.75-1.38805e-05 13.75Z" transform="matrix(-1 0 0 1 1856 691.5)"/><path d="M-2.29167 288-2.29167 0C-2.29167-1.26565-1.26565-2.29167 0-2.29167L99.4627-2.29167C100.728-2.29167 101.754-1.26565 101.754 0 101.754 1.26565 100.728 2.29167 99.4627 2.29167L0 2.29167 2.29167 0 2.29167 288C2.29167 289.265 1.26565 290.291 0 290.291-1.26565 290.291-2.29167 289.265-2.29167 288ZM73.1174-18.0212 104.011 0 73.1174 18.0212C72.0241 18.6589 70.6209 18.2896 69.9832 17.1964 69.3454 16.1031 69.7147 14.6999 70.808 14.0622L98.308-1.97949 98.308 1.97949 70.808-14.0622C69.7147-14.6999 69.3454-16.1031 69.9832-17.1964 70.6209-18.2896 72.0241-18.6589 73.1174-18.0212Z" transform="matrix(-1 0 0 1 2494.5 691.5)"/><path d="M1576.79 311.037 1576.79 599.5C1576.79 600.766 1575.77 601.792 1574.5 601.792L1501.5 601.792C1500.23 601.792 1499.21 600.766 1499.21 599.5 1499.21 598.234 1500.23 597.208 1501.5 597.208L1574.5 597.208 1572.21 599.5 1572.21 311.037C1572.21 309.771 1573.23 308.745 1574.5 308.745 1575.77 308.745 1576.79 309.771 1576.79 311.037ZM1556.48 337.383 1574.5 306.49 1592.52 337.383C1593.16 338.476 1592.79 339.879 1591.7 340.517 1590.6 341.155 1589.2 340.786 1588.56 339.692L1572.52 312.192 1576.48 312.192 1560.44 339.692C1559.8 340.786 1558.4 341.155 1557.3 340.517 1556.21 339.879 1555.84 338.476 1556.48 337.383Z"/><path d="M1669.79 311.038 1669.79 691.273C1669.79 692.539 1668.77 693.565 1667.5 693.565 1666.23 693.565 1665.21 692.539 1665.21 691.273L1665.21 311.038C1665.21 309.772 1666.23 308.746 1667.5 308.746 1668.77 308.746 1669.79 309.772 1669.79 311.038ZM1649.48 337.383 1667.5 306.49 1685.52 337.383C1686.16 338.476 1685.79 339.879 1684.7 340.517 1683.6 341.155 1682.2 340.786 1681.56 339.692L1665.52 312.192 1669.48 312.192 1653.44 339.692C1652.8 340.786 1651.4 341.155 1650.3 340.517 1649.21 339.879 1648.84 338.476 1649.48 337.383ZM1681.25 691.273C1681.25 698.867 1675.09 705.023 1667.5 705.023 1659.91 705.023 1653.75 698.867 1653.75 691.273 1653.75 683.679 1659.91 677.523 1667.5 677.523 1675.09 677.523 1681.25 683.679 1681.25 691.273Z"/><rect x="1646.5" y="484.5" width="41.9999" height="101" stroke="#000000" stroke-width="4.58333" stroke-linecap="round" stroke-linejoin="round" stroke-miterlimit="10" fill="#F2F2F2"/><rect x="1704" y="477" width="102" height="121" fill="#FFFFFF"/><text font-family="Noto Sans JP,Noto Sans JP_MSFontService,sans-serif" font-weight="400" font-size="55" transform="matrix(1 0 0 1 1703.65 524)">R1</text><text font-family="Noto Sans JP,Noto Sans JP_MSFontService,sans-serif" font-weight="400" font-size="55" transform="matrix(1 0 0 1 1768.96 524)"> </text><text font-family="Noto Sans JP,Noto Sans JP_MSFontService,sans-serif" font-weight="400" font-size="55" transform="matrix(1 0 0 1 1703.65 590)">1kΩ</text><text font-family="Noto Sans JP,Noto Sans JP_MSFontService,sans-serif" font-weight="400" font-size="55" transform="matrix(1 0 0 1 1806.2 590)"> </text><rect x="2157" y="829" width="75" height="129" fill="#FFFFFF"/><text font-family="Noto Sans JP,Noto Sans JP_MSFontService,sans-serif" font-weight="400" font-size="55" transform="matrix(1 0 0 1 2161.64 882)">R2</text><text font-family="Noto Sans JP,Noto Sans JP_MSFontService,sans-serif" font-weight="400" font-size="55" transform="matrix(1 0 0 1 2226.95 882)"> </text><text font-family="Noto Sans JP,Noto Sans JP_MSFontService,sans-serif" font-weight="400" font-size="55" transform="matrix(1 0 0 1 2143.03 948)">1kΩ</text><text font-family="Noto Sans JP,Noto Sans JP_MSFontService,sans-serif" font-weight="400" font-size="55" transform="matrix(1 0 0 1 2245.58 948)"> </text><rect x="2413" y="548" width="133" height="111" fill="#FFFFFF"/><text font-family="Noto Sans JP,Noto Sans JP_MSFontService,sans-serif" font-weight="400" font-size="55" transform="matrix(1 0 0 1 2413.24 580)">VR1</text><text font-family="Noto Sans JP,Noto Sans JP_MSFontService,sans-serif" font-weight="400" font-size="55" transform="matrix(1 0 0 1 2510.06 580)"> </text><text font-family="Noto Sans JP,Noto Sans JP_MSFontService,sans-serif" font-weight="400" font-size="55" transform="matrix(1 0 0 1 2413.24 646)">100kΩ</text><text font-family="Noto Sans JP,Noto Sans JP_MSFontService,sans-serif" font-weight="400" font-size="55" transform="matrix(1 0 0 1 2576.52 646)"> </text><rect x="1861" y="457" width="206" height="101" fill="#FFFFFF"/><text font-family="Noto Sans JP,Noto Sans JP_MSFontService,sans-serif" font-weight="400" font-size="55" transform="matrix(1 0 0 1 1929.88 479)">D1</text><text font-family="Noto Sans JP,Noto Sans JP_MSFontService,sans-serif" font-weight="400" font-size="55" transform="matrix(1 0 0 1 1998.06 479)"> </text><text font-family="Noto Sans JP,Noto Sans JP_MSFontService,sans-serif" font-weight="400" font-size="55" transform="matrix(1 0 0 1 1850.27 545)">11EQS04</text><text font-family="Noto Sans JP,Noto Sans JP_MSFontService,sans-serif" font-weight="400" font-size="55" transform="matrix(1 0 0 1 2077.71 545)"> </text><rect x="1861" y="832" width="206" height="129" fill="#FFFFFF"/><text font-family="Noto Sans JP,Noto Sans JP_MSFontService,sans-serif" font-weight="400" font-size="55" transform="matrix(1 0 0 1 1929.88 885)">D2</text><text font-family="Noto Sans JP,Noto Sans JP_MSFontService,sans-serif" font-weight="400" font-size="55" transform="matrix(1 0 0 1 1998.06 885)"> </text><text font-family="Noto Sans JP,Noto Sans JP_MSFontService,sans-serif" font-weight="400" font-size="55" transform="matrix(1 0 0 1 1850.27 951)">11EQS04</text><text font-family="Noto Sans JP,Noto Sans JP_MSFontService,sans-serif" font-weight="400" font-size="55" transform="matrix(1 0 0 1 2077.71 951)"> </text><path d="M1375.21 465.5 1375.21 398.5C1375.21 397.234 1376.23 396.208 1377.5 396.208L1574.5 396.208C1575.77 396.208 1576.79 397.234 1576.79 398.5 1576.79 399.766 1575.77 400.792 1574.5 400.792L1377.5 400.792 1379.79 398.5 1379.79 465.5C1379.79 466.766 1378.77 467.792 1377.5 467.792 1376.23 467.792 1375.21 466.766 1375.21 465.5ZM1574.5 384.75C1582.09 384.75 1588.25 390.906 1588.25 398.5 1588.25 406.094 1582.09 412.25 1574.5 412.25 1566.91 412.25 1560.75 406.094 1560.75 398.5 1560.75 390.906 1566.91 384.75 1574.5 384.75Z"/><rect x="0" y="0" width="76" height="33" fill="#FFFFFF" transform="matrix(-6.12323e-17 -1 -1 6.12323e-17 1490 435)"/><path d="M0 0 76.4594 0.000360892" stroke="#000000" stroke-width="9.16667" stroke-miterlimit="8" fill-rule="evenodd" transform="matrix(-6.12323e-17 -1 -1 6.12323e-17 1491.5 435.959)"/><path d="M0 0 76.4594 0.000360892" stroke="#000000" stroke-width="9.16667" stroke-miterlimit="8" fill-rule="evenodd" transform="matrix(-6.12323e-17 -1 -1 6.12323e-17 1457.5 435.959)"/><path d="M1409.5 469.5 1377 501.5 1344.5 469.5Z" stroke="#000000" stroke-width="4.58333" stroke-linecap="round" stroke-linejoin="round" stroke-miterlimit="10" fill="#FFFFFF" fill-rule="evenodd"/><rect x="1397" y="242" width="148" height="105" fill="#FFFFFF"/><text font-family="Noto Sans JP,Noto Sans JP_MSFontService,sans-serif" font-weight="400" font-size="55" transform="matrix(1 0 0 1 1438.36 268)">C1</text><text font-family="Noto Sans JP,Noto Sans JP_MSFontService,sans-serif" font-weight="400" font-size="55" transform="matrix(1 0 0 1 1503.67 268)"> </text><text font-family="Noto Sans JP,Noto Sans JP_MSFontService,sans-serif" font-weight="400" font-size="55" transform="matrix(1 0 0 1 1400.54 334)">0.1μF</text><text font-family="Noto Sans JP,Noto Sans JP_MSFontService,sans-serif" font-weight="400" font-size="55" transform="matrix(1 0 0 1 1541.48 334)"> </text><path d="M683.5 1179.5 683.5 608.5 1013.5 608.5" stroke="#000000" stroke-width="4.58333" stroke-linecap="round" stroke-linejoin="round" stroke-miterlimit="10" fill="none" fill-rule="evenodd"/><path d="M715.5 1180.5 682.5 1212.5 649.5 1180.5Z" stroke="#000000" stroke-width="4.58333" stroke-linecap="round" stroke-linejoin="round" stroke-miterlimit="10" fill="#FFFFFF" fill-rule="evenodd"/><path d="M-2.29167 553.462-2.29167 0C-2.29167-1.26565-1.26565-2.29167 0-2.29167L242-2.29167C243.266-2.29167 244.292-1.26565 244.292 0 244.292 1.26565 243.266 2.29167 242 2.29167L0 2.29167 2.29167 0 2.29167 553.462C2.29167 554.728 1.26565 555.754 0 555.754-1.26565 555.754-2.29167 554.728-2.29167 553.462ZM18.0212 527.117 0 558.01-18.0212 527.117C-18.6589 526.024-18.2896 524.621-17.1964 523.983-16.1031 523.345-14.6999 523.714-14.0622 524.808L1.97949 552.308-1.97949 552.308 14.0622 524.808C14.6999 523.714 16.1031 523.345 17.1964 523.983 18.2896 524.621 18.6589 526.024 18.0212 527.117Z" transform="matrix(1 0 0 -1 769.5 864.5)"/><path d="M852.5 1366.5 852.5 776.5 1014.5 776.5" stroke="#000000" stroke-width="4.58333" stroke-linecap="round" stroke-linejoin="round" stroke-miterlimit="10" fill="none" fill-rule="evenodd"/><rect x="1840.5" y="1557.5" width="316" height="420" stroke="#000000" stroke-width="4.58333" stroke-linecap="round" stroke-linejoin="round" stroke-miterlimit="10" fill="#F2F2F2"/><rect x="1885.5" y="1717.5" width="239" height="230" stroke="#000000" stroke-width="4.58333" stroke-linecap="round" stroke-linejoin="round" stroke-miterlimit="10" fill="#FFFFFF"/><path d="M2265 1665 2236 1711 2207 1665Z" fill-rule="evenodd"/><rect x="2207" y="1707" width="58" height="6.99988"/><path d="M2280.16 1674.31 2309.82 1683.29C2311.03 1683.66 2311.72 1684.94 2311.35 1686.15 2310.98 1687.36 2309.7 1688.05 2308.49 1687.68L2278.84 1678.69C2277.62 1678.33 2276.94 1677.05 2277.31 1675.84 2277.67 1674.62 2278.95 1673.94 2280.16 1674.31ZM2308.76 1671 2331.09 1692.13 2300.78 1697.32Z"/><path d="M2280.16 1696.31 2309.82 1705.29C2311.03 1705.66 2311.72 1706.94 2311.35 1708.15 2310.98 1709.36 2309.7 1710.05 2308.49 1709.68L2278.84 1700.69C2277.62 1700.33 2276.94 1699.05 2277.31 1697.84 2277.67 1696.62 2278.95 1695.94 2280.16 1696.31ZM2308.76 1693 2331.09 1714.13 2300.78 1719.32Z"/><path d="M2265 1814 2236 1860 2207 1814Z" fill-rule="evenodd"/><rect x="2207" y="1856" width="58" height="7.00024"/><path d="M2280.16 1823.31 2309.82 1832.29C2311.03 1832.66 2311.72 1833.94 2311.35 1835.15 2310.98 1836.36 2309.7 1837.05 2308.49 1836.68L2278.84 1827.69C2277.62 1827.33 2276.94 1826.05 2277.31 1824.84 2277.67 1823.62 2278.95 1822.94 2280.16 1823.31ZM2308.76 1820 2331.09 1841.13 2300.78 1846.32Z"/><path d="M2280.16 1845.31 2309.82 1854.29C2311.03 1854.66 2311.72 1855.94 2311.35 1857.15 2310.98 1858.36 2309.7 1859.05 2308.49 1858.68L2278.84 1849.69C2277.62 1849.33 2276.94 1848.05 2277.31 1846.84 2277.67 1845.62 2278.95 1844.94 2280.16 1845.31ZM2308.76 1842 2331.09 1863.13 2300.78 1868.32Z"/><path d="M2237 1738 2237 1809.74" stroke="#000000" stroke-width="13.75" stroke-linecap="round" stroke-linejoin="round" stroke-miterlimit="10" stroke-dasharray="0 27.5" fill="none" fill-rule="evenodd"/><path d="M0 41.9999 0 0 80.0001 0" stroke="#000000" stroke-width="4.58333" stroke-linecap="round" stroke-linejoin="round" stroke-miterlimit="10" fill="none" fill-rule="evenodd" transform="matrix(-1 0 0 1 2237.5 1623.5)"/><path d="M2237.5 1859.5 2237.5 1899.5 2157.5 1899.5" stroke="#000000" stroke-width="4.58333" stroke-linecap="round" stroke-linejoin="round" stroke-miterlimit="10" fill="none" fill-rule="evenodd"/><path d="M1654.5 1316.57C1654.5 1297.75 1669.75 1282.5 1688.57 1282.5L3041.43 1282.5C3060.25 1282.5 3075.5 1297.75 3075.5 1316.57L3075.5 2141.43C3075.5 2160.25 3060.25 2175.5 3041.43 2175.5L1688.57 2175.5C1669.75 2175.5 1654.5 2160.25 1654.5 2141.43Z" stroke="#0070C0" stroke-width="4.58333" stroke-linecap="round" stroke-linejoin="round" stroke-miterlimit="10" stroke-dasharray="13.75 18.3333" fill="none" fill-rule="evenodd"/><text fill="#0070C0" font-family="Noto Sans JP,Noto Sans JP_MSFontService,sans-serif" font-weight="400" font-size="55" transform="matrix(1 0 0 1 1912.07 2237)">Multiple modules can be </text><text fill="#0070C0" font-family="Noto Sans JP,Noto Sans JP_MSFontService,sans-serif" font-weight="400" font-size="55" transform="matrix(1 0 0 1 2550.87 2237)">connected</text><text fill="#0070C0" font-family="Noto Sans JP,Noto Sans JP_MSFontService,sans-serif" font-weight="400" font-size="55" transform="matrix(1 0 0 1 2820.14 2237)"> </text><path d="M-2.29167 517-2.29167 0C-2.29167-1.26565-1.26565-2.29167 0-2.29167L94.0832-2.29167C95.3489-2.29167 96.3749-1.26565 96.3749 0 96.3749 1.26565 95.3489 2.29167 94.0832 2.29167L0 2.29167 2.29167 0 2.29167 517C2.29167 518.266 1.26565 519.292 0 519.292-1.26565 519.292-2.29167 518.266-2.29167 517ZM13.75 517C13.75 524.594 7.59392 530.75 0 530.75-7.59392 530.75-13.75 524.594-13.75 517-13.75 509.406-7.59392 503.25 0 503.25 7.59392 503.25 13.75 509.406 13.75 517ZM89.4999-13.75 117 0 89.4999 13.75Z" transform="matrix(1 0 0 -1 1767.5 1881.5)"/><rect x="2494.5" y="1557.5" width="317" height="420" stroke="#000000" stroke-width="4.58333" stroke-linecap="round" stroke-linejoin="round" stroke-miterlimit="10" fill="#F2F2F2"/><rect x="2539.5" y="1717.5" width="239" height="230" stroke="#000000" stroke-width="4.58333" stroke-linecap="round" stroke-linejoin="round" stroke-miterlimit="10" fill="#FFFFFF"/><path d="M2920 1665 2890.5 1711 2861 1665Z" fill-rule="evenodd"/><rect x="2861" y="1707" width="59.0002" height="6.99988"/><path d="M2934.16 1674.31 2963.82 1683.29C2965.03 1683.66 2965.72 1684.94 2965.35 1686.15 2964.98 1687.36 2963.7 1688.05 2962.49 1687.68L2932.84 1678.69C2931.62 1678.33 2930.94 1677.05 2931.31 1675.84 2931.67 1674.62 2932.95 1673.94 2934.16 1674.31ZM2962.76 1671 2985.09 1692.13 2954.78 1697.32Z"/><path d="M2934.16 1696.31 2963.82 1705.29C2965.03 1705.66 2965.72 1706.94 2965.35 1708.15 2964.98 1709.36 2963.7 1710.05 2962.49 1709.68L2932.84 1700.69C2931.62 1700.33 2930.94 1699.05 2931.31 1697.84 2931.67 1696.62 2932.95 1695.94 2934.16 1696.31ZM2962.76 1693 2985.09 1714.13 2954.78 1719.32Z"/><path d="M2920 1814 2890.5 1860 2861 1814Z" fill-rule="evenodd"/><rect x="2861" y="1856" width="59.0002" height="7.00024"/><path d="M2934.16 1823.31 2963.82 1832.29C2965.03 1832.66 2965.72 1833.94 2965.35 1835.15 2964.98 1836.36 2963.7 1837.05 2962.49 1836.68L2932.84 1827.69C2931.62 1827.33 2930.94 1826.05 2931.31 1824.84 2931.67 1823.62 2932.95 1822.94 2934.16 1823.31ZM2962.76 1820 2985.09 1841.13 2954.78 1846.32Z"/><path d="M2934.16 1845.31 2963.82 1854.29C2965.03 1854.66 2965.72 1855.94 2965.35 1857.15 2964.98 1858.36 2963.7 1859.05 2962.49 1858.68L2932.84 1849.69C2931.62 1849.33 2930.94 1848.05 2931.31 1846.84 2931.67 1845.62 2932.95 1844.94 2934.16 1845.31ZM2962.76 1842 2985.09 1863.13 2954.78 1868.32Z"/><path d="M2891 1738 2891 1809.74" stroke="#000000" stroke-width="13.75" stroke-linecap="round" stroke-linejoin="round" stroke-miterlimit="10" stroke-dasharray="0 27.5" fill="none" fill-rule="evenodd"/><path d="M0 41.9999 0 0 79.0001 0" stroke="#000000" stroke-width="4.58333" stroke-linecap="round" stroke-linejoin="round" stroke-miterlimit="10" fill="none" fill-rule="evenodd" transform="matrix(-1 0 0 1 2891.5 1623.5)"/><path d="M2891.5 1859.5 2891.5 1899.5 2812.5 1899.5" stroke="#000000" stroke-width="4.58333" stroke-linecap="round" stroke-linejoin="round" stroke-miterlimit="10" fill="none" fill-rule="evenodd"/><path d="M-2.29167 517-2.29167 0C-2.29167-1.26565-1.26565-2.29167 0-2.29167L93.0835-2.29167C94.3492-2.29167 95.3752-1.26565 95.3752 0 95.3752 1.26565 94.3492 2.29167 93.0835 2.29167L0 2.29167 2.29167 0 2.29167 517C2.29167 518.266 1.26565 519.292 0 519.292-1.26565 519.292-2.29167 518.266-2.29167 517ZM88.5002-13.75 116 0 88.5002 13.75Z" transform="matrix(1 0 0 -1 2422.5 1881.5)"/><path d="M-2.29167 517-2.29167 0C-2.29167-1.26565-1.26565-2.29167 0-2.29167L93.0832-2.29167C94.3488-2.29167 95.3748-1.26565 95.3748 0 95.3748 1.26565 94.3488 2.29167 93.0832 2.29167L0 2.29167 2.29167 0 2.29167 517C2.29167 518.266 1.26565 519.292 0 519.292-1.26565 519.292-2.29167 518.266-2.29167 517ZM13.75 517C13.75 524.594 7.59392 530.75 0 530.75-7.59392 530.75-13.75 524.594-13.75 517-13.75 509.406-7.59392 503.25 0 503.25 7.59392 503.25 13.75 509.406 13.75 517ZM88.4998-13.75 116 0 88.4998 13.75Z" transform="matrix(1 0 0 -1 852.5 1881.5)"/><path d="M852.5 1364.5 2422.75 1364.5" stroke="#000000" stroke-width="4.58333" stroke-linecap="round" stroke-linejoin="round" stroke-miterlimit="10" fill="none" fill-rule="evenodd"/><path d="M502.5 614.5 566.665 614.5 658.329 124.5 2113.5 124.5" stroke="#000000" stroke-width="4.58333" stroke-linecap="round" stroke-linejoin="round" stroke-miterlimit="10" stroke-dasharray="13.75 18.3333" fill="none" fill-rule="evenodd"/><path d="M2113.5 121.5 2287.44 699.5 2335.5 699.5" stroke="#000000" stroke-width="4.58333" stroke-linecap="round" stroke-linejoin="round" stroke-miterlimit="10" stroke-dasharray="13.75 18.3333" fill="none" fill-rule="evenodd"/><path d="M2324.79 641.5 2324.79 730.875C2324.79 732.141 2323.77 733.167 2322.5 733.167 2321.23 733.167 2320.21 732.141 2320.21 730.875L2320.21 641.5C2320.21 640.234 2321.23 639.208 2322.5 639.208 2323.77 639.208 2324.79 640.234 2324.79 641.5ZM2336.25 726.292 2322.5 753.792 2308.75 726.292Z"/><rect x="284" y="882" width="103" height="38.9998" fill="#FFFFFF"/><text font-family="Noto Sans JP,Noto Sans JP_MSFontService,sans-serif" font-weight="400" font-size="55" transform="matrix(1 0 0 1 270.152 921)">～</text><text font-family="Noto Sans JP,Noto Sans JP_MSFontService,sans-serif" font-weight="400" font-size="55" transform="matrix(1 0 0 1 325.152 921)">6V</text><text font-family="Noto Sans JP,Noto Sans JP_MSFontService,sans-serif" font-weight="400" font-size="55" transform="matrix(1 0 0 1 387.027 921)"> </text><path d="M0 46.0001 29 0 58.0001 46.0001Z" fill-rule="evenodd" transform="matrix(1.83697e-16 1 1 -1.83697e-16 1937 574)"/><path d="M1927.5 585.509 1927.5 574.5 1939.71 574.5 1939.71 632.5 1952.5 632.5 1952.5 622.565" stroke="#000000" stroke-width="6.875" stroke-miterlimit="8" fill="none" fill-rule="evenodd"/><path d="M1934 759 1980 788.5 1934 818Z" fill-rule="evenodd"/><path d="M1967.5 769.509 1967.5 758.5 1979.71 758.5 1979.71 816.5 1992.5 816.5 1992.5 806.565" stroke="#000000" stroke-width="6.875" stroke-miterlimit="8" fill="none" fill-rule="evenodd"/></g></svg>