<svg width="3048" height="1578" xmlns="http://www.w3.org/2000/svg" xmlns:xlink="http://www.w3.org/1999/xlink" xml:space="preserve" overflow="hidden"><defs><clipPath id="clip0"><rect x="188" y="614" width="3048" height="1578"/></clipPath></defs><g clip-path="url(#clip0)" transform="translate(-188 -614)"><rect x="188" y="614" width="3048" height="1578" fill="#FFFFFF"/><rect x="565" y="936" width="2538" height="1113" fill="#CD984B"/><path d="M1031 1589.5C1031 1387.09 1452.75 1223 1973 1223 2493.25 1223 2915 1387.09 2915 1589.5 2915 1791.91 2493.25 1956 1973 1956 1452.75 1956 1031 1791.91 1031 1589.5Z" fill="#A08046" fill-rule="evenodd"/><path d="M565.5 936.5 3103.96 936.5" stroke="#000000" stroke-width="4.58333" stroke-linecap="round" stroke-linejoin="round" stroke-miterlimit="10" fill="none" fill-rule="evenodd"/><path d="M809.5 1164.44C809.5 1197.55 888.746 1224.39 986.5 1224.39 1084.26 1224.39 1163.5 1197.55 1163.5 1164.44L1163.5 1594.56C1163.5 1627.66 1084.25 1654.5 986.5 1654.5 888.745 1654.5 809.499 1627.66 809.499 1594.56Z" fill="#D9D9D9" fill-rule="evenodd"/><path d="M809.5 1164.44C809.5 1131.34 888.746 1104.5 986.5 1104.5 1084.26 1104.5 1163.5 1131.34 1163.5 1164.44 1163.5 1197.55 1084.26 1224.39 986.5 1224.39 888.746 1224.39 809.5 1197.55 809.5 1164.44Z" fill="#E8E8E8" fill-rule="evenodd"/><path d="M1163.5 1164.44C1163.5 1197.55 1084.25 1224.39 986.5 1224.39 888.745 1224.39 809.499 1197.55 809.499 1164.44 809.499 1131.34 888.745 1104.5 986.5 1104.5 1084.25 1104.5 1163.5 1131.34 1163.5 1164.44L1163.5 1594.56C1163.5 1627.66 1084.25 1654.5 986.5 1654.5 888.745 1654.5 809.499 1627.66 809.499 1594.56L809.5 1164.44" stroke="#000000" stroke-width="4.58333" stroke-linecap="round" stroke-linejoin="round" stroke-miterlimit="10" fill="none" fill-rule="evenodd"/><path d="M1031.5 1151C1031.5 948.588 1453.25 784.5 1973.5 784.5 2493.75 784.5 2915.5 948.588 2915.5 1151 2915.5 1353.41 2493.75 1517.5 1973.5 1517.5 1453.25 1517.5 1031.5 1353.41 1031.5 1151Z" stroke="#000000" stroke-width="4.58333" stroke-linecap="round" stroke-linejoin="round" stroke-miterlimit="10" fill="#A09A2C" fill-rule="evenodd"/><path d="M1031.5 1132.5C1031.5 929.812 1453.25 765.5 1973.5 765.5 2493.75 765.5 2915.5 929.812 2915.5 1132.5 2915.5 1335.19 2493.75 1499.5 1973.5 1499.5 1453.25 1499.5 1031.5 1335.19 1031.5 1132.5Z" stroke="#000000" stroke-width="4.58333" stroke-linecap="round" stroke-linejoin="round" stroke-miterlimit="10" fill="#A09A2C" fill-rule="evenodd"/><path d="M1349.5 1114.5C1349.5 980.295 1628.87 871.5 1973.5 871.5 2318.13 871.5 2597.5 980.295 2597.5 1114.5 2597.5 1248.71 2318.13 1357.5 1973.5 1357.5 1628.87 1357.5 1349.5 1248.71 1349.5 1114.5Z" stroke="#000000" stroke-width="4.58333" stroke-linecap="round" stroke-linejoin="round" stroke-miterlimit="10" fill="#E2CA86" fill-rule="evenodd"/><path d="M986.5 995.5C1086.53 995.5 1169.99 1044.1 1189.29 1108.72L1190.44 1116.52 1193.5 1127.89C1193.5 1170.75 1100.82 1205.5 986.5 1205.5 872.177 1205.5 779.5 1170.75 779.5 1127.89L782.556 1116.52 783.706 1108.72C803.008 1044.1 886.468 995.5 986.5 995.5Z" stroke="#000000" stroke-width="4.58333" stroke-linecap="round" stroke-linejoin="round" stroke-miterlimit="10" fill="#D9D9D9" fill-rule="evenodd"/><path d="M986.5 995.5C1023.96 995.5 1059.09 1002.35 1089.39 1014.34L1112.5 1025.36 1112.5 1050.44 1017.4 1050.44 1017.4 1118.5 958.492 1118.5 958.492 1050.44 860.5 1050.44 860.5 1025.36 883.614 1014.34C913.912 1002.35 949.042 995.5 986.5 995.5Z" stroke="#000000" stroke-width="4.58333" stroke-linecap="round" stroke-linejoin="round" stroke-miterlimit="10" fill="#A6A6A6" fill-rule="evenodd"/><text font-family="Noto Sans JP,Noto Sans JP_MSFontService,sans-serif" font-weight="400" font-size="55" transform="matrix(1 0 0 1 318.349 1342)">アルミスペーサー</text><text font-family="Noto Sans JP,Noto Sans JP_MSFontService,sans-serif" font-weight="400" font-size="55" transform="matrix(1 0 0 1 752.62 1342)"> </text><text font-family="Noto Sans JP,Noto Sans JP_MSFontService,sans-serif" font-weight="400" font-size="55" transform="matrix(1 0 0 1 301.459 1408)">Aluminium</text><text font-family="Noto Sans JP,Noto Sans JP_MSFontService,sans-serif" font-weight="400" font-size="55" transform="matrix(1 0 0 1 582.188 1408)"> </text><text font-family="Noto Sans JP,Noto Sans JP_MSFontService,sans-serif" font-weight="400" font-size="55" transform="matrix(1 0 0 1 594.792 1408)">Space</text><text font-family="Noto Sans JP,Noto Sans JP_MSFontService,sans-serif" font-weight="400" font-size="55" transform="matrix(1 0 0 1 748.334 1408)">r</text><text font-family="Noto Sans JP,Noto Sans JP_MSFontService,sans-serif" font-weight="400" font-size="55" transform="matrix(1 0 0 1 769.532 1408)"> </text><path d="M1370.5 1091C1370.5 961.489 1640.47 856.5 1973.5 856.5 2306.53 856.5 2576.5 961.489 2576.5 1091 2576.5 1220.51 2306.53 1325.5 1973.5 1325.5 1640.47 1325.5 1370.5 1220.51 1370.5 1091Z" stroke="#000000" stroke-width="4.58333" stroke-linecap="round" stroke-linejoin="round" stroke-miterlimit="10" fill="#E2CA86" fill-rule="evenodd"/><path d="M1403.5 1091.5C1403.5 968.893 1658.92 869.5 1974 869.5 2289.08 869.5 2544.5 968.893 2544.5 1091.5 2544.5 1214.11 2289.08 1313.5 1974 1313.5 1658.92 1313.5 1403.5 1214.11 1403.5 1091.5Z" stroke="#000000" stroke-width="4.58333" stroke-linecap="round" stroke-linejoin="round" stroke-miterlimit="10" fill="#F2F2F2" fill-rule="evenodd"/><text font-family="Noto Sans JP,Noto Sans JP_MSFontService,sans-serif" font-weight="400" font-size="55" transform="matrix(1 0 0 1 501.698 1091)">木ネジ</text><text font-family="Noto Sans JP,Noto Sans JP_MSFontService,sans-serif" font-weight="400" font-size="55" transform="matrix(1 0 0 1 666.698 1091)"> </text><text font-family="Noto Sans JP,Noto Sans JP_MSFontService,sans-serif" font-weight="400" font-size="55" transform="matrix(1 0 0 1 425.501 1157)">Wood</text><text font-family="Noto Sans JP,Noto Sans JP_MSFontService,sans-serif" font-weight="400" font-size="55" transform="matrix(1 0 0 1 574.459 1157)"> </text><text font-family="Noto Sans JP,Noto Sans JP_MSFontService,sans-serif" font-weight="400" font-size="55" transform="matrix(1 0 0 1 587.063 1157)">Screw</text><text font-family="Noto Sans JP,Noto Sans JP_MSFontService,sans-serif" font-weight="400" font-size="55" transform="matrix(1 0 0 1 742.896 1157)"> </text><text font-family="Noto Sans JP,Noto Sans JP_MSFontService,sans-serif" font-weight="400" font-size="55" transform="matrix(1 0 0 1 1795.65 1068)">圧電スピーカー</text><text font-family="Noto Sans JP,Noto Sans JP_MSFontService,sans-serif" font-weight="400" font-size="55" transform="matrix(1 0 0 1 2180.65 1068)"> </text><text font-family="Noto Sans JP,Noto Sans JP_MSFontService,sans-serif" font-weight="400" font-size="55" transform="matrix(1 0 0 1 1714.3 1134)">Piezoelectric Speaker</text><text font-family="Noto Sans JP,Noto Sans JP_MSFontService,sans-serif" font-weight="400" font-size="55" transform="matrix(1 0 0 1 2262.01 1134)"> </text></g></svg>