<svg width="3459" height="1347" xmlns="http://www.w3.org/2000/svg" xmlns:xlink="http://www.w3.org/1999/xlink" xml:space="preserve" overflow="hidden"><defs><clipPath id="clip0"><rect x="328" y="751" width="3459" height="1347"/></clipPath></defs><g clip-path="url(#clip0)" transform="translate(-328 -751)"><rect x="328" y="751" width="3459" height="1347" fill="#FFFFFF"/><path d="M472.792 1182.04 472.792 1925.16C472.792 1926.42 471.766 1927.45 470.5 1927.45 469.235 1927.45 468.209 1926.42 468.209 1925.16L468.208 1182.04C468.208 1180.77 469.234 1179.75 470.5 1179.75 471.766 1179.75 472.792 1180.77 472.792 1182.04ZM452.479 1208.38 470.5 1177.49 488.521 1208.38C489.159 1209.48 488.79 1210.88 487.696 1211.52 486.603 1212.15 485.2 1211.79 484.562 1210.69L468.521 1183.19 472.48 1183.19 456.438 1210.69C455.8 1211.79 454.397 1212.15 453.304 1211.52 452.21 1210.88 451.841 1209.48 452.479 1208.38Z"/><path d="M503.5 1926.5 471 1958.5 438.5 1926.5Z" stroke="#000000" stroke-width="4.58333" stroke-linecap="round" stroke-linejoin="round" stroke-miterlimit="10" fill="#FFFFFF" fill-rule="evenodd"/><path d="M1520.79 938.041 1520.79 1925.22C1520.79 1926.48 1519.77 1927.51 1518.5 1927.51 1517.23 1927.51 1516.21 1926.48 1516.21 1925.22L1516.21 938.041C1516.21 936.776 1517.23 935.75 1518.5 935.75 1519.77 935.75 1520.79 936.776 1520.79 938.041ZM1500.48 964.383 1518.5 933.49 1536.52 964.383C1537.16 965.476 1536.79 966.879 1535.7 967.517 1534.6 968.155 1533.2 967.786 1532.56 966.692L1516.52 939.192 1520.48 939.192 1504.44 966.692C1503.8 967.786 1502.4 968.155 1501.3 967.517 1500.21 966.879 1499.84 965.476 1500.48 964.383Z"/><rect x="1295.5" y="1080.5" width="449" height="419" stroke="#000000" stroke-width="4.58333" stroke-linecap="round" stroke-linejoin="round" stroke-miterlimit="10" fill="#F2F2F2"/><text font-family="Noto Sans JP,Noto Sans JP_MSFontService,sans-serif" font-weight="400" font-size="55" transform="matrix(1 0 0 1 1386.15 1133)">LED Driver</text><text font-family="Noto Sans JP,Noto Sans JP_MSFontService,sans-serif" font-weight="400" font-size="55" transform="matrix(1 0 0 1 1652.55 1133)"> </text><text font-family="Noto Sans JP,Noto Sans JP_MSFontService,sans-serif" font-weight="400" font-size="55" transform="matrix(1 0 0 1 1423.69 1199)">Module</text><text font-family="Noto Sans JP,Noto Sans JP_MSFontService,sans-serif" font-weight="400" font-size="55" transform="matrix(1 0 0 1 1615.04 1199)"> </text><path d="M1550.5 1926.5 1517.5 1958.5 1484.5 1926.5Z" stroke="#000000" stroke-width="4.58333" stroke-linecap="round" stroke-linejoin="round" stroke-miterlimit="10" fill="#FFFFFF" fill-rule="evenodd"/><path d="M763.792 1182.04 763.792 1925.16C763.792 1926.42 762.766 1927.45 761.5 1927.45 760.235 1927.45 759.209 1926.42 759.209 1925.16L759.208 1182.04C759.208 1180.77 760.234 1179.75 761.5 1179.75 762.766 1179.75 763.792 1180.77 763.792 1182.04ZM743.479 1208.38 761.5 1177.49 779.521 1208.38C780.159 1209.48 779.789 1210.88 778.696 1211.52 777.603 1212.15 776.2 1211.79 775.562 1210.69L759.52 1183.19 763.479 1183.19 747.438 1210.69C746.8 1211.79 745.397 1212.15 744.304 1211.52 743.21 1210.88 742.841 1209.48 743.479 1208.38Z"/><path d="M794.5 1926.5 762 1958.5 729.5 1926.5Z" stroke="#000000" stroke-width="4.58333" stroke-linecap="round" stroke-linejoin="round" stroke-miterlimit="10" fill="#FFFFFF" fill-rule="evenodd"/><rect x="741.5" y="1507.5" width="40.9999" height="101" stroke="#000000" stroke-width="4.58333" stroke-linecap="round" stroke-linejoin="round" stroke-miterlimit="10" fill="#F2F2F2"/><path d="M785.056 1557.21 3060.94 1557.21C3062.2 1557.21 3063.23 1558.23 3063.23 1559.5 3063.23 1560.77 3062.2 1561.79 3060.94 1561.79L785.056 1561.79C783.791 1561.79 782.765 1560.77 782.765 1559.5 782.765 1558.23 783.791 1557.21 785.056 1557.21ZM811.383 1577.52 780.49 1559.5 811.383 1541.48C812.476 1540.84 813.879 1541.21 814.517 1542.3 815.155 1543.4 814.786 1544.8 813.692 1545.44L786.192 1561.48 786.192 1557.52 813.692 1573.56C814.786 1574.2 815.155 1575.6 814.517 1576.7 813.879 1577.79 812.476 1578.16 811.383 1577.52Z"/><path d="M1095.21 1470.5 1095.21 1403.5C1095.21 1402.23 1096.23 1401.21 1097.5 1401.21L1315.58 1401.21C1316.85 1401.21 1317.88 1402.23 1317.88 1403.5 1317.88 1404.77 1316.85 1405.79 1315.58 1405.79L1097.5 1405.79 1099.79 1403.5 1099.79 1470.5C1099.79 1471.77 1098.77 1472.79 1097.5 1472.79 1096.23 1472.79 1095.21 1471.77 1095.21 1470.5ZM1311 1389.75 1338.5 1403.5 1311 1417.25Z"/><path d="M1237.79 1403.5 1237.79 1558.83C1237.79 1560.09 1236.77 1561.12 1235.5 1561.12 1234.23 1561.12 1233.21 1560.09 1233.21 1558.83L1233.21 1403.5C1233.21 1402.23 1234.23 1401.21 1235.5 1401.21 1236.77 1401.21 1237.79 1402.23 1237.79 1403.5ZM1221.75 1403.5C1221.75 1395.91 1227.91 1389.75 1235.5 1389.75 1243.09 1389.75 1249.25 1395.91 1249.25 1403.5 1249.25 1411.09 1243.09 1417.25 1235.5 1417.25 1227.91 1417.25 1221.75 1411.09 1221.75 1403.5ZM1249.25 1558.83C1249.25 1566.42 1243.09 1572.58 1235.5 1572.58 1227.91 1572.58 1221.75 1566.42 1221.75 1558.83 1221.75 1551.23 1227.91 1545.08 1235.5 1545.08 1243.09 1545.08 1249.25 1551.23 1249.25 1558.83Z"/><rect x="0" y="0" width="76" height="33" fill="#FFFFFF" transform="matrix(-6.12323e-17 -1 -1 6.12323e-17 1179 1440)"/><path d="M0 0 76.4594 0.000360892" stroke="#000000" stroke-width="9.16667" stroke-miterlimit="8" fill-rule="evenodd" transform="matrix(-6.12323e-17 -1 -1 6.12323e-17 1180.5 1440.96)"/><path d="M0 0 76.4594 0.000360892" stroke="#000000" stroke-width="9.16667" stroke-miterlimit="8" fill-rule="evenodd" transform="matrix(-6.12323e-17 -1 -1 6.12323e-17 1146.5 1440.96)"/><path d="M1129.5 1474.5 1097 1506.5 1064.5 1474.5Z" stroke="#000000" stroke-width="4.58333" stroke-linecap="round" stroke-linejoin="round" stroke-miterlimit="10" fill="#FFFFFF" fill-rule="evenodd"/><rect x="610" y="1583" width="111" height="46.0001" fill="#FFFFFF"/><text font-family="Noto Sans JP,Noto Sans JP_MSFontService,sans-serif" font-weight="400" font-size="55" transform="matrix(1 0 0 1 623.906 1626)">VR1</text><text font-family="Noto Sans JP,Noto Sans JP_MSFontService,sans-serif" font-weight="400" font-size="55" transform="matrix(1 0 0 1 720.729 1626)"> </text><rect x="741.5" y="1318.5" width="40.9999" height="101" stroke="#000000" stroke-width="4.58333" stroke-linecap="round" stroke-linejoin="round" stroke-miterlimit="10" fill="#F2F2F2"/><rect x="741.5" y="1701.5" width="40.9999" height="101" stroke="#000000" stroke-width="4.58333" stroke-linecap="round" stroke-linejoin="round" stroke-miterlimit="10" fill="#F2F2F2"/><rect x="613" y="1347" width="111" height="45.9998" fill="#FFFFFF"/><text font-family="Noto Sans JP,Noto Sans JP_MSFontService,sans-serif" font-weight="400" font-size="55" transform="matrix(1 0 0 1 658.854 1390)">R1</text><text font-family="Noto Sans JP,Noto Sans JP_MSFontService,sans-serif" font-weight="400" font-size="55" transform="matrix(1 0 0 1 724.167 1390)"> </text><rect x="613" y="1734" width="111" height="46.0001" fill="#FFFFFF"/><text font-family="Noto Sans JP,Noto Sans JP_MSFontService,sans-serif" font-weight="400" font-size="55" transform="matrix(1 0 0 1 658.854 1777)">R2</text><text font-family="Noto Sans JP,Noto Sans JP_MSFontService,sans-serif" font-weight="400" font-size="55" transform="matrix(1 0 0 1 724.167 1777)"> </text><rect x="1340.5" y="1239.5" width="353" height="230" stroke="#000000" stroke-width="4.58333" stroke-linecap="round" stroke-linejoin="round" stroke-miterlimit="10" fill="#FFFFFF"/><text font-family="Noto Sans JP,Noto Sans JP_MSFontService,sans-serif" font-weight="400" font-size="55" transform="matrix(1 0 0 1 1408.33 1292)">Driver IC</text><text font-family="Noto Sans JP,Noto Sans JP_MSFontService,sans-serif" font-weight="400" font-size="55" transform="matrix(1 0 0 1 1624.89 1292)"> </text><text font-family="Noto Sans JP,Noto Sans JP_MSFontService,sans-serif" font-weight="400" font-size="55" transform="matrix(1 0 0 1 1359.23 1418)">ADJ/DIM</text><text font-family="Noto Sans JP,Noto Sans JP_MSFontService,sans-serif" font-weight="400" font-size="55" transform="matrix(1 0 0 1 1577.51 1418)"> </text><rect x="1138" y="1306" width="44" height="46.0001" fill="#FFFFFF"/><text font-family="Noto Sans JP,Noto Sans JP_MSFontService,sans-serif" font-weight="400" font-size="55" transform="matrix(1 0 0 1 1127.39 1349)">C2</text><text font-family="Noto Sans JP,Noto Sans JP_MSFontService,sans-serif" font-weight="400" font-size="55" transform="matrix(1 0 0 1 1192.71 1349)"> </text><path d="M1853 1187 1824 1233 1795 1187Z" fill-rule="evenodd"/><rect x="1795" y="1229" width="58.0001" height="7.00024"/><path d="M1868.16 1196.31 1897.82 1205.29C1899.03 1205.66 1899.72 1206.94 1899.35 1208.15 1898.98 1209.36 1897.7 1210.05 1896.49 1209.68L1866.84 1200.69C1865.62 1200.33 1864.94 1199.05 1865.31 1197.84 1865.67 1196.62 1866.95 1195.94 1868.16 1196.31ZM1896.76 1193 1919.09 1214.13 1888.78 1219.32Z"/><path d="M1868.16 1218.31 1897.82 1227.29C1899.03 1227.66 1899.72 1228.94 1899.35 1230.15 1898.98 1231.36 1897.7 1232.05 1896.49 1231.68L1866.84 1222.69C1865.62 1222.33 1864.94 1221.05 1865.31 1219.84 1865.67 1218.62 1866.95 1217.94 1868.16 1218.31ZM1896.76 1215 1919.09 1236.13 1888.78 1241.32Z"/><path d="M1853 1336 1824 1382 1795 1336Z" fill-rule="evenodd"/><rect x="1795" y="1378" width="58.0001" height="6.99988"/><path d="M1868.16 1345.31 1897.82 1354.29C1899.03 1354.66 1899.72 1355.94 1899.35 1357.15 1898.98 1358.36 1897.7 1359.05 1896.49 1358.68L1866.84 1349.69C1865.62 1349.33 1864.94 1348.05 1865.31 1346.84 1865.67 1345.62 1866.95 1344.94 1868.16 1345.31ZM1896.76 1342 1919.09 1363.13 1888.78 1368.32Z"/><path d="M1868.16 1367.31 1897.82 1376.29C1899.03 1376.66 1899.72 1377.94 1899.35 1379.15 1898.98 1380.36 1897.7 1381.05 1896.49 1380.68L1866.84 1371.69C1865.62 1371.33 1864.94 1370.05 1865.31 1368.84 1865.67 1367.62 1866.95 1366.94 1868.16 1367.31ZM1896.76 1364 1919.09 1385.13 1888.78 1390.32Z"/><path d="M1825 1260 1825 1331.74" stroke="#000000" stroke-width="13.75" stroke-linecap="round" stroke-linejoin="round" stroke-miterlimit="10" stroke-dasharray="0 27.5" fill="none" fill-rule="evenodd"/><path d="M0 42.0003 0 0 79.0001 0" stroke="#000000" stroke-width="4.58333" stroke-linecap="round" stroke-linejoin="round" stroke-miterlimit="10" fill="none" fill-rule="evenodd" transform="matrix(-1 0 0 1 1824.5 1145.5)"/><path d="M1824.5 1381.5 1824.5 1421.5 1745.5 1421.5" stroke="#000000" stroke-width="4.58333" stroke-linecap="round" stroke-linejoin="round" stroke-miterlimit="10" fill="none" fill-rule="evenodd"/><path d="M2510.79 938.041 2510.79 1925.22C2510.79 1926.48 2509.77 1927.51 2508.5 1927.51 2507.23 1927.51 2506.21 1926.48 2506.21 1925.22L2506.21 938.041C2506.21 936.776 2507.23 935.75 2508.5 935.75 2509.77 935.75 2510.79 936.776 2510.79 938.041ZM2490.48 964.383 2508.5 933.49 2526.52 964.383C2527.16 965.476 2526.79 966.879 2525.7 967.517 2524.6 968.155 2523.2 967.786 2522.56 966.692L2506.52 939.192 2510.48 939.192 2494.44 966.692C2493.8 967.786 2492.4 968.155 2491.3 967.517 2490.21 966.879 2489.84 965.476 2490.48 964.383Z"/><rect x="2328.5" y="1080.5" width="317" height="419" stroke="#000000" stroke-width="4.58333" stroke-linecap="round" stroke-linejoin="round" stroke-miterlimit="10" fill="#F2F2F2"/><path d="M2540.5 1926.5 2507.5 1958.5 2474.5 1926.5Z" stroke="#000000" stroke-width="4.58333" stroke-linecap="round" stroke-linejoin="round" stroke-miterlimit="10" fill="#FFFFFF" fill-rule="evenodd"/><rect x="2373.5" y="1239.5" width="240" height="230" stroke="#000000" stroke-width="4.58333" stroke-linecap="round" stroke-linejoin="round" stroke-miterlimit="10" fill="#FFFFFF"/><path d="M2754 1187 2725 1233 2696 1187Z" fill-rule="evenodd"/><rect x="2696" y="1229" width="58" height="7.00024"/><path d="M2768.16 1196.31 2797.82 1205.29C2799.03 1205.66 2799.72 1206.94 2799.35 1208.15 2798.98 1209.36 2797.7 1210.05 2796.49 1209.68L2766.84 1200.69C2765.62 1200.33 2764.94 1199.05 2765.31 1197.84 2765.67 1196.62 2766.95 1195.94 2768.16 1196.31ZM2796.76 1193 2819.09 1214.13 2788.78 1219.32Z"/><path d="M2768.16 1218.31 2797.82 1227.29C2799.03 1227.66 2799.72 1228.94 2799.35 1230.15 2798.98 1231.36 2797.7 1232.05 2796.49 1231.68L2766.84 1222.69C2765.62 1222.33 2764.94 1221.05 2765.31 1219.84 2765.67 1218.62 2766.95 1217.94 2768.16 1218.31ZM2796.76 1215 2819.09 1236.13 2788.78 1241.32Z"/><path d="M2754 1336 2725 1382 2696 1336Z" fill-rule="evenodd"/><rect x="2696" y="1378" width="58" height="6.99988"/><path d="M2768.16 1345.31 2797.82 1354.29C2799.03 1354.66 2799.72 1355.94 2799.35 1357.15 2798.98 1358.36 2797.7 1359.05 2796.49 1358.68L2766.84 1349.69C2765.62 1349.33 2764.94 1348.05 2765.31 1346.84 2765.67 1345.62 2766.95 1344.94 2768.16 1345.31ZM2796.76 1342 2819.09 1363.13 2788.78 1368.32Z"/><path d="M2768.16 1367.31 2797.82 1376.29C2799.03 1376.66 2799.72 1377.94 2799.35 1379.15 2798.98 1380.36 2797.7 1381.05 2796.49 1380.68L2766.84 1371.69C2765.62 1371.33 2764.94 1370.05 2765.31 1368.84 2765.67 1367.62 2766.95 1366.94 2768.16 1367.31ZM2796.76 1364 2819.09 1385.13 2788.78 1390.32Z"/><path d="M2725 1260 2725 1331.74" stroke="#000000" stroke-width="13.75" stroke-linecap="round" stroke-linejoin="round" stroke-miterlimit="10" stroke-dasharray="0 27.5" fill="none" fill-rule="evenodd"/><path d="M0 42.0003 0 0 79.0001 0" stroke="#000000" stroke-width="4.58333" stroke-linecap="round" stroke-linejoin="round" stroke-miterlimit="10" fill="none" fill-rule="evenodd" transform="matrix(-1 0 0 1 2725.5 1145.5)"/><path d="M2725.5 1381.5 2725.5 1421.5 2646.5 1421.5" stroke="#000000" stroke-width="4.58333" stroke-linecap="round" stroke-linejoin="round" stroke-miterlimit="10" fill="none" fill-rule="evenodd"/><path d="M2052.5 911.825C2052.5 894.525 2066.52 880.5 2083.83 880.5L3635.17 880.5C3652.48 880.5 3666.5 894.525 3666.5 911.825L3666.5 1986.17C3666.5 2003.48 3652.48 2017.5 3635.17 2017.5L2083.83 2017.5C2066.52 2017.5 2052.5 2003.48 2052.5 1986.17Z" stroke="#0070C0" stroke-width="4.58333" stroke-linecap="round" stroke-linejoin="round" stroke-miterlimit="10" stroke-dasharray="13.75 18.3333" fill="none" fill-rule="evenodd"/><text fill="#0070C0" font-family="Noto Sans JP,Noto Sans JP_MSFontService,sans-serif" font-weight="400" font-size="55" transform="matrix(1 0 0 1 2400.08 857)">Multiple modules can be controlled</text><text fill="#0070C0" font-family="Noto Sans JP,Noto Sans JP_MSFontService,sans-serif" font-weight="400" font-size="55" transform="matrix(1 0 0 1 3302.42 857)"> </text><path d="M2.29167-2.25423e-06 2.29203 366.886C2.29203 368.151 1.26602 369.177 0.000363147 369.177-1.26529 369.177-2.2913 368.151-2.29131 366.886L-2.29167 2.25423e-06C-2.29167-1.26565-1.26565-2.29167-2.25423e-06-2.29167 1.26565-2.29167 2.29167-1.26565 2.29167-2.25423e-06ZM13.7504 366.886C13.7504 374.48 7.59429 380.636 0.000374418 380.636-7.59354 380.636-13.7496 374.48-13.7496 366.886-13.7496 359.292-7.59357 353.136 0.000347367 353.136 7.59426 353.136 13.7504 359.292 13.7504 366.886Z" transform="matrix(1 0 0 -1 947.5 1925.39)"/><rect x="0" y="0" width="77" height="34" fill="#FFFFFF" transform="matrix(-1 0 0 1 985 1737)"/><path d="M0 0 76.4594 0.000360892" stroke="#000000" stroke-width="9.16667" stroke-miterlimit="8" fill-rule="evenodd" transform="matrix(-1 0 0 1 984.959 1736.5)"/><path d="M0 0 76.4594 0.000360892" stroke="#000000" stroke-width="9.16667" stroke-miterlimit="8" fill-rule="evenodd" transform="matrix(-1 0 0 1 984.959 1771.5)"/><path d="M979.5 1925.5 947 1957.5 914.5 1925.5Z" stroke="#000000" stroke-width="4.58333" stroke-linecap="round" stroke-linejoin="round" stroke-miterlimit="10" fill="#FFFFFF" fill-rule="evenodd"/><rect x="843" y="1731" width="45.0001" height="45.9998" fill="#FFFFFF"/><text font-family="Noto Sans JP,Noto Sans JP_MSFontService,sans-serif" font-weight="400" font-size="55" transform="matrix(1 0 0 1 832.962 1774)">C1</text><text font-family="Noto Sans JP,Noto Sans JP_MSFontService,sans-serif" font-weight="400" font-size="55" transform="matrix(1 0 0 1 898.274 1774)"> </text><path d="M2129.21 1470.5 2129.21 1403.5C2129.21 1402.23 2130.23 1401.21 2131.5 1401.21L2349.58 1401.21C2350.85 1401.21 2351.88 1402.23 2351.88 1403.5 2351.88 1404.77 2350.85 1405.79 2349.58 1405.79L2131.5 1405.79 2133.79 1403.5 2133.79 1470.5C2133.79 1471.77 2132.77 1472.79 2131.5 1472.79 2130.23 1472.79 2129.21 1471.77 2129.21 1470.5ZM2345 1389.75 2372.5 1403.5 2345 1417.25Z"/><path d="M2271.79 1403.5 2271.79 1558.83C2271.79 1560.09 2270.77 1561.12 2269.5 1561.12 2268.23 1561.12 2267.21 1560.09 2267.21 1558.83L2267.21 1403.5C2267.21 1402.23 2268.23 1401.21 2269.5 1401.21 2270.77 1401.21 2271.79 1402.23 2271.79 1403.5ZM2255.75 1403.5C2255.75 1395.91 2261.91 1389.75 2269.5 1389.75 2277.09 1389.75 2283.25 1395.91 2283.25 1403.5 2283.25 1411.09 2277.09 1417.25 2269.5 1417.25 2261.91 1417.25 2255.75 1411.09 2255.75 1403.5ZM2283.25 1558.83C2283.25 1566.42 2277.09 1572.58 2269.5 1572.58 2261.91 1572.58 2255.75 1566.42 2255.75 1558.83 2255.75 1551.23 2261.91 1545.08 2269.5 1545.08 2277.09 1545.08 2283.25 1551.23 2283.25 1558.83Z"/><rect x="0" y="0" width="76" height="33" fill="#FFFFFF" transform="matrix(-6.12323e-17 -1 -1 6.12323e-17 2213 1440)"/><path d="M0 0 76.4594 0.000360892" stroke="#000000" stroke-width="9.16667" stroke-miterlimit="8" fill-rule="evenodd" transform="matrix(-6.12323e-17 -1 -1 6.12323e-17 2214.5 1440.96)"/><path d="M0 0 76.4594 0.000360892" stroke="#000000" stroke-width="9.16667" stroke-miterlimit="8" fill-rule="evenodd" transform="matrix(-6.12323e-17 -1 -1 6.12323e-17 2180.5 1440.96)"/><path d="M2163.5 1474.5 2131 1506.5 2098.5 1474.5Z" stroke="#000000" stroke-width="4.58333" stroke-linecap="round" stroke-linejoin="round" stroke-miterlimit="10" fill="#FFFFFF" fill-rule="evenodd"/><path d="M3305.79 938.041 3305.79 1925.22C3305.79 1926.48 3304.77 1927.51 3303.5 1927.51 3302.23 1927.51 3301.21 1926.48 3301.21 1925.22L3301.21 938.041C3301.21 936.776 3302.23 935.75 3303.5 935.75 3304.77 935.75 3305.79 936.776 3305.79 938.041ZM3285.48 964.383 3303.5 933.49 3321.52 964.383C3322.16 965.476 3321.79 966.879 3320.7 967.517 3319.6 968.155 3318.2 967.786 3317.56 966.692L3301.52 939.192 3305.48 939.192 3289.44 966.692C3288.8 967.786 3287.4 968.155 3286.3 967.517 3285.21 966.879 3284.84 965.476 3285.48 964.383Z"/><rect x="3123.5" y="1080.5" width="316" height="419" stroke="#000000" stroke-width="4.58333" stroke-linecap="round" stroke-linejoin="round" stroke-miterlimit="10" fill="#F2F2F2"/><path d="M3334.5 1926.5 3302 1958.5 3269.5 1926.5Z" stroke="#000000" stroke-width="4.58333" stroke-linecap="round" stroke-linejoin="round" stroke-miterlimit="10" fill="#FFFFFF" fill-rule="evenodd"/><rect x="3168.5" y="1239.5" width="239" height="230" stroke="#000000" stroke-width="4.58333" stroke-linecap="round" stroke-linejoin="round" stroke-miterlimit="10" fill="#FFFFFF"/><path d="M3549 1187 3519.5 1233 3490 1187Z" fill-rule="evenodd"/><rect x="3490" y="1229" width="58.9998" height="7.00024"/><path d="M3563.16 1196.31 3592.82 1205.29C3594.03 1205.66 3594.72 1206.94 3594.35 1208.15 3593.98 1209.36 3592.71 1210.05 3591.49 1209.68L3561.84 1200.69C3560.62 1200.33 3559.94 1199.05 3560.31 1197.84 3560.67 1196.62 3561.95 1195.94 3563.16 1196.31ZM3591.76 1193 3614.09 1214.13 3583.78 1219.32Z"/><path d="M3563.16 1218.31 3592.82 1227.29C3594.03 1227.66 3594.72 1228.94 3594.35 1230.15 3593.98 1231.36 3592.71 1232.05 3591.49 1231.68L3561.84 1222.69C3560.62 1222.33 3559.94 1221.05 3560.31 1219.84 3560.67 1218.62 3561.95 1217.94 3563.16 1218.31ZM3591.76 1215 3614.09 1236.13 3583.78 1241.32Z"/><path d="M3549 1336 3519.5 1382 3490 1336Z" fill-rule="evenodd"/><rect x="3490" y="1378" width="58.9998" height="6.99988"/><path d="M3563.16 1345.31 3592.82 1354.29C3594.03 1354.66 3594.72 1355.94 3594.35 1357.15 3593.98 1358.36 3592.71 1359.05 3591.49 1358.68L3561.84 1349.69C3560.62 1349.33 3559.94 1348.05 3560.31 1346.84 3560.67 1345.62 3561.95 1344.94 3563.16 1345.31ZM3591.76 1342 3614.09 1363.13 3583.78 1368.32Z"/><path d="M3563.16 1367.31 3592.82 1376.29C3594.03 1376.66 3594.72 1377.94 3594.35 1379.15 3593.98 1380.36 3592.71 1381.05 3591.49 1380.68L3561.84 1371.69C3560.62 1371.33 3559.94 1370.05 3560.31 1368.84 3560.67 1367.62 3561.95 1366.94 3563.16 1367.31ZM3591.76 1364 3614.09 1385.13 3583.78 1390.32Z"/><path d="M3520 1260 3520 1331.74" stroke="#000000" stroke-width="13.75" stroke-linecap="round" stroke-linejoin="round" stroke-miterlimit="10" stroke-dasharray="0 27.5" fill="none" fill-rule="evenodd"/><path d="M0 42.0003 0 0 78.9997 0" stroke="#000000" stroke-width="4.58333" stroke-linecap="round" stroke-linejoin="round" stroke-miterlimit="10" fill="none" fill-rule="evenodd" transform="matrix(-1 0 0 1 3520.5 1145.5)"/><path d="M3520.5 1381.5 3520.5 1421.5 3441.5 1421.5" stroke="#000000" stroke-width="4.58333" stroke-linecap="round" stroke-linejoin="round" stroke-miterlimit="10" fill="none" fill-rule="evenodd"/><path d="M2924.21 1470.5 2924.21 1403.5C2924.21 1402.23 2925.23 1401.21 2926.5 1401.21L3144.58 1401.21C3145.85 1401.21 3146.88 1402.23 3146.88 1403.5 3146.88 1404.77 3145.85 1405.79 3144.58 1405.79L2926.5 1405.79 2928.79 1403.5 2928.79 1470.5C2928.79 1471.77 2927.77 1472.79 2926.5 1472.79 2925.23 1472.79 2924.21 1471.77 2924.21 1470.5ZM3140 1389.75 3167.5 1403.5 3140 1417.25Z"/><path d="M3066.79 1403.5 3066.79 1558.83C3066.79 1560.09 3065.77 1561.12 3064.5 1561.12 3063.23 1561.12 3062.21 1560.09 3062.21 1558.83L3062.21 1403.5C3062.21 1402.23 3063.23 1401.21 3064.5 1401.21 3065.77 1401.21 3066.79 1402.23 3066.79 1403.5ZM3050.75 1403.5C3050.75 1395.91 3056.91 1389.75 3064.5 1389.75 3072.09 1389.75 3078.25 1395.91 3078.25 1403.5 3078.25 1411.09 3072.09 1417.25 3064.5 1417.25 3056.91 1417.25 3050.75 1411.09 3050.75 1403.5Z"/><rect x="0" y="0" width="76" height="33" fill="#FFFFFF" transform="matrix(-6.12323e-17 -1 -1 6.12323e-17 3008 1440)"/><path d="M0 0 76.4594 0.000360892" stroke="#000000" stroke-width="9.16667" stroke-miterlimit="8" fill-rule="evenodd" transform="matrix(-6.12323e-17 -1 -1 6.12323e-17 3009.5 1440.96)"/><path d="M0 0 76.4594 0.000360892" stroke="#000000" stroke-width="9.16667" stroke-miterlimit="8" fill-rule="evenodd" transform="matrix(-6.12323e-17 -1 -1 6.12323e-17 2975.5 1440.96)"/><path d="M2958.5 1474.5 2926 1506.5 2893.5 1474.5Z" stroke="#000000" stroke-width="4.58333" stroke-linecap="round" stroke-linejoin="round" stroke-miterlimit="10" fill="#FFFFFF" fill-rule="evenodd"/><rect x="0" y="0" width="79.0001" height="119" fill="#FFFFFF" transform="matrix(1.83697e-16 1 1 -1.83697e-16 412 1658)"/><rect x="0" y="0" width="8.99993" height="119" transform="matrix(1.83697e-16 1 1 -1.83697e-16 412 1654)"/><rect x="0" y="0" width="16.0002" height="57.9997" transform="matrix(1.83697e-16 1 1 -1.83697e-16 443 1678)"/><rect x="0" y="0" width="8.99993" height="119" transform="matrix(1.83697e-16 1 1 -1.83697e-16 412 1706)"/><rect x="0" y="0" width="16.9998" height="57.9997" transform="matrix(1.83697e-16 1 1 -1.83697e-16 443 1729)"/><rect x="0" y="0" width="104" height="72.9999" fill="#FFFFFF" transform="matrix(1.83697e-16 1 1 -1.83697e-16 433 1381)"/><path d="M456.5 1479.5C456.5 1470.66 463.663 1463.5 472.5 1463.5 481.337 1463.5 488.5 1470.66 488.5 1479.5 488.5 1488.34 481.337 1495.5 472.5 1495.5 463.663 1495.5 456.5 1488.34 456.5 1479.5Z" stroke="#000000" stroke-width="4.58333" stroke-linecap="round" stroke-linejoin="round" stroke-miterlimit="10" fill="#FFFFFF" fill-rule="evenodd"/><path d="M456.5 1380.5C456.5 1371.66 463.663 1364.5 472.5 1364.5 481.337 1364.5 488.5 1371.66 488.5 1380.5 488.5 1389.34 481.337 1396.5 472.5 1396.5 463.663 1396.5 456.5 1389.34 456.5 1380.5Z" stroke="#000000" stroke-width="4.58333" stroke-linecap="round" stroke-linejoin="round" stroke-miterlimit="10" fill="#FFFFFF" fill-rule="evenodd"/><path d="M412.5 1395.5 462.951 1468.51" stroke="#000000" stroke-width="9.16667" stroke-linejoin="round" stroke-miterlimit="10" fill="none" fill-rule="evenodd"/><path d="M495.5 1428.5 583.471 1428.5 658.985 1559.5 734.5 1559.5" stroke="#000000" stroke-width="4.58333" stroke-linecap="round" stroke-linejoin="round" stroke-miterlimit="10" stroke-dasharray="13.75 18.3333" fill="none" fill-rule="evenodd"/></g></svg>