<svg width="2901" height="1301" xmlns="http://www.w3.org/2000/svg" xmlns:xlink="http://www.w3.org/1999/xlink" xml:space="preserve" overflow="hidden"><defs><clipPath id="clip0"><rect x="649" y="605" width="2901" height="1301"/></clipPath></defs><g clip-path="url(#clip0)" transform="translate(-649 -605)"><rect x="0" y="0" width="2901" height="1301" fill="#FFFFFF" transform="matrix(-1 0 0 1 3550 605)"/><path d="M0 0 0.000360892 758.683" stroke="#000000" stroke-width="4.58333" stroke-linecap="round" stroke-linejoin="round" stroke-miterlimit="10" fill="none" fill-rule="evenodd" transform="matrix(1 0 0 -1 1359.5 1693.18)"/><rect x="0" y="0" width="310" height="727" stroke="#000000" stroke-width="4.58333" stroke-linecap="round" stroke-linejoin="round" stroke-miterlimit="10" fill="#E8E8E8" transform="matrix(-1 0 0 1 2362.5 920.5)"/><text font-family="Noto Sans JP,Noto Sans JP_MSFontService,sans-serif" font-weight="400" font-size="55" transform="matrix(1 0 0 1 2127.32 1271)">ATtiny</text><text font-family="Noto Sans JP,Noto Sans JP_MSFontService,sans-serif" font-weight="400" font-size="55" transform="matrix(1 0 0 1 2286.59 1271)"> </text><text font-family="Noto Sans JP,Noto Sans JP_MSFontService,sans-serif" font-weight="400" font-size="55" transform="matrix(1 0 0 1 2161.42 1337)">402</text><text font-family="Noto Sans JP,Noto Sans JP_MSFontService,sans-serif" font-weight="400" font-size="55" transform="matrix(1 0 0 1 2252.52 1337)"> </text><path d="M0 23 22 0 44 23Z" stroke="#000000" stroke-width="4.58333" stroke-linecap="round" stroke-linejoin="round" stroke-miterlimit="10" fill="#FFFFFF" fill-rule="evenodd" transform="matrix(1 -1.22465e-16 -1.22465e-16 -1 1337.5 1714.5)"/><path d="M0 0 0.000360892 141.328" stroke="#000000" stroke-width="4.58333" stroke-linecap="round" stroke-linejoin="round" stroke-miterlimit="10" fill="none" fill-rule="evenodd" transform="matrix(1 0 0 -1 2214.5 1788.83)"/><path d="M0 22 21.5 0 43 22Z" stroke="#000000" stroke-width="4.58333" stroke-linecap="round" stroke-linejoin="round" stroke-miterlimit="10" fill="#FFFFFF" fill-rule="evenodd" transform="matrix(1 -1.22465e-16 -1.22465e-16 -1 2191.5 1810.5)"/><text font-family="Noto Sans JP,Noto Sans JP_MSFontService,sans-serif" font-weight="400" font-size="55" transform="matrix(1 0 0 1 2086.38 1707)">GND</text><text font-family="Noto Sans JP,Noto Sans JP_MSFontService,sans-serif" font-weight="400" font-size="55" transform="matrix(1 0 0 1 2201.54 1707)"> </text><text font-family="Noto Sans JP,Noto Sans JP_MSFontService,sans-serif" font-weight="400" font-size="55" transform="matrix(1 0 0 1 2092.68 899)">VCC</text><text font-family="Noto Sans JP,Noto Sans JP_MSFontService,sans-serif" font-weight="400" font-size="55" transform="matrix(1 0 0 1 2191.79 899)"> </text><text font-family="Noto Sans JP,Noto Sans JP_MSFontService,sans-serif" font-weight="400" font-size="55" transform="matrix(1 0 0 1 1365.89 892)">OSUB5161P</text><text font-family="Noto Sans JP,Noto Sans JP_MSFontService,sans-serif" font-weight="400" font-size="55" transform="matrix(1 0 0 1 1671.25 892)"> </text><text font-family="Noto Sans JP,Noto Sans JP_MSFontService,sans-serif" font-weight="400" font-size="55" transform="matrix(1 0 0 1 2429.51 782)">0.1u</text><text font-family="Noto Sans JP,Noto Sans JP_MSFontService,sans-serif" font-weight="400" font-size="55" transform="matrix(1 0 0 1 2538.94 782)"> </text><path d="M2856.5 818.5 2214.5 818.5 2214.5 920.5" stroke="#000000" stroke-width="4.58333" stroke-linecap="round" stroke-linejoin="round" stroke-miterlimit="10" fill="none" fill-rule="evenodd"/><text font-family="Noto Sans JP,Noto Sans JP_MSFontService,sans-serif" font-weight="400" font-size="55" transform="matrix(1 0 0 1 2662.36 894)">+</text><text font-family="Noto Sans JP,Noto Sans JP_MSFontService,sans-serif" font-weight="400" font-size="55" transform="matrix(1 0 0 1 2692.73 894)"> </text><text font-family="Noto Sans JP,Noto Sans JP_MSFontService,sans-serif" font-weight="400" font-size="55" transform="matrix(1 0 0 1 2587.35 782)">100u</text><text font-family="Noto Sans JP,Noto Sans JP_MSFontService,sans-serif" font-weight="400" font-size="55" transform="matrix(1 0 0 1 2711.67 782)"> </text><path d="M2.29167-4.03728e-06 2.29203 204.852C2.29203 206.118 1.26602 207.144 0.00036493 207.144-1.26529 207.144-2.2913 206.118-2.29131 204.852L-2.29167 4.03728e-06C-2.29167-1.26565-1.26566-2.29166-4.03728e-06-2.29167 1.26565-2.29167 2.29166-1.26566 2.29167-4.03728e-06ZM13.7504 204.852C13.7504 212.446 7.5943 218.602 0.000385116 218.602-7.59353 218.602-13.7496 212.446-13.7496 204.852-13.7497 197.258-7.59358 191.102 0.000336669 191.102 7.59425 191.102 13.7503 197.258 13.7504 204.852Z" transform="matrix(1 0 0 -1 2488.5 1023.35)"/><path d="M2.29167-4.05064e-06 2.29203 204.176C2.29203 205.442 1.26602 206.468 0.000364943 206.468-1.26529 206.468-2.2913 205.442-2.29131 204.176L-2.29167 4.05064e-06C-2.29167-1.26565-1.26566-2.29166-4.05064e-06-2.29167 1.26565-2.29167 2.29166-1.26566 2.29167-4.05064e-06ZM13.7504 204.176C13.7504 211.77 7.5943 217.926 0.000385196 217.926-7.59353 217.926-13.7496 211.77-13.7496 204.176-13.7497 196.582-7.59358 190.426 0.000336589 190.426 7.59425 190.426 13.7503 196.582 13.7504 204.176Z" transform="matrix(1 0 0 -1 2651.5 1022.68)"/><path d="M0 23 21.5 0 43 23Z" stroke="#000000" stroke-width="4.58333" stroke-linecap="round" stroke-linejoin="round" stroke-miterlimit="10" fill="#FFFFFF" fill-rule="evenodd" transform="matrix(1 -1.22465e-16 -1.22465e-16 -1 2465.5 1044.5)"/><path d="M0 23 22 0 44 23Z" stroke="#000000" stroke-width="4.58333" stroke-linecap="round" stroke-linejoin="round" stroke-miterlimit="10" fill="#FFFFFF" fill-rule="evenodd" transform="matrix(1 -1.22465e-16 -1.22465e-16 -1 2629.5 1044.5)"/><rect x="0" y="0" width="89" height="38.9998" fill="#FFFFFF" transform="matrix(-1 0 0 1 2698 902)"/><path d="M0 0 88.9513 0.000360892" stroke="#000000" stroke-width="9.16667" stroke-miterlimit="8" fill-rule="evenodd" transform="matrix(-1 0 0 1 2698.45 901.5)"/><path d="M0 0 88.9513 0.000360892" stroke="#000000" stroke-width="9.16667" stroke-miterlimit="8" fill-rule="evenodd" transform="matrix(-1 0 0 1 2698.45 941.5)"/><path d="M0 0 24.187 36.4364" stroke="#000000" stroke-width="4.58333" stroke-linecap="round" stroke-linejoin="round" stroke-miterlimit="10" fill="none" fill-rule="evenodd" transform="matrix(1 0 0 -1 2642.5 937.937)"/><path d="M0 0 24.187 36.4364" stroke="#000000" stroke-width="4.58333" stroke-linecap="round" stroke-linejoin="round" stroke-miterlimit="10" fill="none" fill-rule="evenodd" transform="matrix(1 0 0 -1 2669.5 937.937)"/><path d="M0 0 24.187 36.4364" stroke="#000000" stroke-width="4.58333" stroke-linecap="round" stroke-linejoin="round" stroke-miterlimit="10" fill="none" fill-rule="evenodd" transform="matrix(1 0 0 -1 2615.5 937.937)"/><path d="M2846.5 771.5 2976.5 859 2846.5 946.5Z" stroke="#000000" stroke-width="4.58333" stroke-linecap="round" stroke-linejoin="round" stroke-miterlimit="10" fill="#F2F2F2" fill-rule="evenodd"/><path d="M57.0001 93.9998 0 93.9998 0 0" stroke="#000000" stroke-width="4.58333" stroke-linecap="round" stroke-linejoin="round" stroke-miterlimit="10" fill="none" fill-rule="evenodd" transform="matrix(1 0 0 -1 2787.5 991.5)"/><path d="M239 132.292 0 132.292C-1.26565 132.292-2.29167 131.266-2.29167 130L-2.29167 0C-2.29167-1.26565-1.26565-2.29167 0-2.29167 1.26565-2.29167 2.29167-1.26565 2.29167 0L2.29167 130 0 127.708 239 127.708C240.266 127.708 241.292 128.734 241.292 130 241.292 131.266 240.266 132.292 239 132.292ZM-13.75 0C-13.75-7.59392-7.59392-13.75 0-13.75 7.59392-13.75 13.75-7.59392 13.75 0 13.75 7.59392 7.59392 13.75 0 13.75-7.59392 13.75-13.75 7.59392-13.75 0Z" transform="matrix(-1 0 0 1 3026.5 861.5)"/><text font-family="Noto Sans JP,Noto Sans JP_MSFontService,sans-serif" font-weight="400" font-size="55" transform="matrix(1 0 0 1 2840.15 742)">Buffer</text><text font-family="Noto Sans JP,Noto Sans JP_MSFontService,sans-serif" font-weight="400" font-size="55" transform="matrix(1 0 0 1 2995.41 742)"> </text><text font-family="Noto Sans JP,Noto Sans JP_MSFontService,sans-serif" font-weight="400" font-size="41" transform="matrix(1 0 0 1 2853.44 834)">＋</text><text font-family="Noto Sans JP,Noto Sans JP_MSFontService,sans-serif" font-weight="400" font-size="41" transform="matrix(1 0 0 1 2894.69 834)"> </text><text font-family="Noto Sans JP,Noto Sans JP_MSFontService,sans-serif" font-weight="400" font-size="41" transform="matrix(1 0 0 1 2853.44 912)">－</text><text font-family="Noto Sans JP,Noto Sans JP_MSFontService,sans-serif" font-weight="400" font-size="41" transform="matrix(1 0 0 1 2894.69 912)"> </text><rect x="0" y="0" width="89" height="38.9998" fill="#FFFFFF" transform="matrix(-1 0 0 1 2533 902)"/><path d="M0 0 88.9513 0.000360892" stroke="#000000" stroke-width="9.16667" stroke-miterlimit="8" fill-rule="evenodd" transform="matrix(-1 0 0 1 2533.45 901.5)"/><path d="M0 0 88.9513 0.000360892" stroke="#000000" stroke-width="9.16667" stroke-miterlimit="8" fill-rule="evenodd" transform="matrix(-1 0 0 1 2533.45 941.5)"/><path d="M2969.5 861.5 3141.5 861.5 3141.5 1152.5" stroke="#000000" stroke-width="4.58333" stroke-linecap="round" stroke-linejoin="round" stroke-miterlimit="10" fill="none" fill-rule="evenodd"/><path d="M0 48.5C-6.17469e-15 21.7142 21.7142-6.17469e-15 48.5-1.23494e-14 75.2858-2.46988e-14 96.9999 21.7142 96.9999 48.5 96.9999 75.2858 75.2858 96.9999 48.5 96.9999 21.7142 96.9999-3.08735e-14 75.2858 0 48.5Z" stroke="#000000" stroke-width="4.58333" stroke-linecap="round" stroke-linejoin="round" stroke-miterlimit="10" fill="#FFFFFF" fill-rule="evenodd" transform="matrix(-1 0 0 1 3190.5 955.5)"/><text font-family="Meiryo,Meiryo_MSFontService,sans-serif" font-weight="400" font-size="73" transform="matrix(1 0 0 1 3116.53 1034)">V</text><text font-family="Noto Sans JP,Noto Sans JP_MSFontService,sans-serif" font-weight="400" font-size="55" transform="matrix(1 0 0 1 3218.19 1020)">Voltmeter</text><text font-family="Noto Sans JP,Noto Sans JP_MSFontService,sans-serif" font-weight="400" font-size="55" transform="matrix(1 0 0 1 3469.7 1020)"> </text><path d="M0 23 21.5 0 43 23Z" stroke="#000000" stroke-width="4.58333" stroke-linecap="round" stroke-linejoin="round" stroke-miterlimit="10" fill="#FFFFFF" fill-rule="evenodd" transform="matrix(1 -1.22465e-16 -1.22465e-16 -1 3120.5 1175.5)"/><path d="M4.8018e-06-2.29167 172.237-2.29131C173.502-2.2913 174.528-1.26529 174.528 0.000365694 174.528 1.26602 173.502 2.29203 172.237 2.29203L-4.8018e-06 2.29167C-1.26566 2.29166-2.29167 1.26565-2.29167-4.8018e-06-2.29166-1.26566-1.26565-2.29167 4.8018e-06-2.29167ZM172.237-13.7496C179.831-13.7496 185.987-7.59353 185.987 0.000389703 185.987 7.59431 179.831 13.7504 172.237 13.7504 164.643 13.7503 158.487 7.59425 158.487 0.000332082 158.487-7.59358 164.643-13.7497 172.237-13.7496Z" transform="matrix(-1 0 0 1 2048.74 1524.5)"/><path d="M4.8018e-06-2.29167 172.237-2.29131C173.502-2.2913 174.528-1.26529 174.528 0.000365694 174.528 1.26602 173.502 2.29203 172.237 2.29203L-4.8018e-06 2.29167C-1.26566 2.29166-2.29167 1.26565-2.29167-4.8018e-06-2.29166-1.26566-1.26565-2.29167 4.8018e-06-2.29167ZM172.237-13.7496C179.831-13.7496 185.987-7.59353 185.987 0.000389703 185.987 7.59431 179.831 13.7504 172.237 13.7504 164.643 13.7503 158.487 7.59425 158.487 0.000332082 158.487-7.59358 164.643-13.7497 172.237-13.7496Z" transform="matrix(-1 0 0 1 2048.74 1272.5)"/><path d="M4.8018e-06-2.29167 172.237-2.29131C173.502-2.2913 174.528-1.26529 174.528 0.000365694 174.528 1.26602 173.502 2.29203 172.237 2.29203L-4.8018e-06 2.29167C-1.26566 2.29166-2.29167 1.26565-2.29167-4.8018e-06-2.29166-1.26566-1.26565-2.29167 4.8018e-06-2.29167ZM172.237-13.7496C179.831-13.7496 185.987-7.59353 185.987 0.000389703 185.987 7.59431 179.831 13.7504 172.237 13.7504 164.643 13.7503 158.487 7.59425 158.487 0.000332082 158.487-7.59358 164.643-13.7497 172.237-13.7496Z" transform="matrix(-1 0 0 1 2048.74 1019.5)"/><path d="M519 2.29167 0 2.29167 2.29167 0 2.29167 169 0 166.708 519 166.708C520.266 166.708 521.292 167.734 521.292 169 521.292 170.265 520.266 171.291 519 171.291L0 171.291C-1.26565 171.291-2.29167 170.265-2.29167 169L-2.29167 0C-2.29167-1.26565-1.26565-2.29167 0-2.29167L519-2.29167C520.266-2.29167 521.292-1.26565 521.292 0 521.292 1.26565 520.266 2.29167 519 2.29167ZM519-13.75C526.594-13.75 532.75-7.59392 532.75 0 532.75 7.59392 526.594 13.75 519 13.75 511.406 13.75 505.25 7.59392 505.25 0 505.25-7.59392 511.406-13.75 519-13.75ZM519 155.25C526.594 155.25 532.75 161.406 532.75 169 532.75 176.594 526.594 182.75 519 182.75 511.406 182.75 505.25 176.594 505.25 169 505.25 161.406 511.406 155.25 519 155.25Z" transform="matrix(-1 0 0 1 1878.5 1440.5)"/><path d="M519 2.29167 0 2.29167 2.29167 0 2.29167 170 0 167.708 519 167.708C520.266 167.708 521.292 168.734 521.292 170 521.292 171.265 520.266 172.291 519 172.291L0 172.291C-1.26565 172.291-2.29167 171.265-2.29167 170L-2.29167 0C-2.29167-1.26565-1.26565-2.29167 0-2.29167L519-2.29167C520.266-2.29167 521.292-1.26565 521.292 0 521.292 1.26565 520.266 2.29167 519 2.29167ZM519-13.75C526.594-13.75 532.75-7.59392 532.75 0 532.75 7.59392 526.594 13.75 519 13.75 511.406 13.75 505.25 7.59392 505.25 0 505.25-7.59392 511.406-13.75 519-13.75ZM519 156.25C526.594 156.25 532.75 162.406 532.75 170 532.75 177.594 526.594 183.75 519 183.75 511.406 183.75 505.25 177.594 505.25 170 505.25 162.406 511.406 156.25 519 156.25Z" transform="matrix(-1 0 0 1 1878.5 1187.5)"/><path d="M519 2.29167 0 2.29167 2.29167 0 2.29167 170 0 167.708 519 167.708C520.266 167.708 521.292 168.734 521.292 170 521.292 171.265 520.266 172.291 519 172.291L0 172.291C-1.26565 172.291-2.29167 171.265-2.29167 170L-2.29167 0C-2.29167-1.26565-1.26565-2.29167 0-2.29167L519-2.29167C520.266-2.29167 521.292-1.26565 521.292 0 521.292 1.26565 520.266 2.29167 519 2.29167ZM519 156.25C526.594 156.25 532.75 162.406 532.75 170 532.75 177.594 526.594 183.75 519 183.75 511.406 183.75 505.25 177.594 505.25 170 505.25 162.406 511.406 156.25 519 156.25Z" transform="matrix(-1 0 0 1 1878.5 934.5)"/><path d="M1.58624e-06-2.29167 521.386-2.29131C522.652-2.2913 523.678-1.26529 523.678 0.000362479 523.678 1.26602 522.652 2.29203 521.386 2.29203L-1.58624e-06 2.29167C-1.26565 2.29167-2.29167 1.26565-2.29167-1.58624e-06-2.29167-1.26565-1.26565-2.29167 1.58624e-06-2.29167ZM-9.51747e-06 13.75C-7.59393 13.75-13.75 7.59391-13.75-9.51747e-06-13.75-7.59393-7.59391-13.75 9.51747e-06-13.75 7.59393-13.75 13.75-7.59391 13.75 9.51747e-06 13.75 7.59393 7.59391 13.75-9.51747e-06 13.75ZM521.386-13.7496C528.98-13.7496 535.136-7.59354 535.136 0.00037041 535.136 7.59429 528.98 13.7504 521.386 13.7504 513.792 13.7504 507.636 7.59427 507.636 0.000351375 507.636-7.59356 513.792-13.7496 521.386-13.7496Z" transform="matrix(-1 0 0 1 1880.89 1524.5)"/><path d="M1.58624e-06-2.29167 521.386-2.29131C522.652-2.2913 523.678-1.26529 523.678 0.000362479 523.678 1.26602 522.652 2.29203 521.386 2.29203L-1.58624e-06 2.29167C-1.26565 2.29167-2.29167 1.26565-2.29167-1.58624e-06-2.29167-1.26565-1.26565-2.29167 1.58624e-06-2.29167ZM-9.51747e-06 13.75C-7.59393 13.75-13.75 7.59391-13.75-9.51747e-06-13.75-7.59393-7.59391-13.75 9.51747e-06-13.75 7.59393-13.75 13.75-7.59391 13.75 9.51747e-06 13.75 7.59393 7.59391 13.75-9.51747e-06 13.75ZM521.386-13.7496C528.98-13.7496 535.136-7.59354 535.136 0.00037041 535.136 7.59429 528.98 13.7504 521.386 13.7504 513.792 13.7504 507.636 7.59427 507.636 0.000351375 507.636-7.59356 513.792-13.7496 521.386-13.7496Z" transform="matrix(-1 0 0 1 1880.89 1272.5)"/><path d="M1.58624e-06-2.29167 521.386-2.29131C522.652-2.2913 523.678-1.26529 523.678 0.000362479 523.678 1.26602 522.652 2.29203 521.386 2.29203L-1.58624e-06 2.29167C-1.26565 2.29167-2.29167 1.26565-2.29167-1.58624e-06-2.29167-1.26565-1.26565-2.29167 1.58624e-06-2.29167ZM-9.51747e-06 13.75C-7.59393 13.75-13.75 7.59391-13.75-9.51747e-06-13.75-7.59393-7.59391-13.75 9.51747e-06-13.75 7.59393-13.75 13.75-7.59391 13.75 9.51747e-06 13.75 7.59393 7.59391 13.75-9.51747e-06 13.75ZM521.386-13.7496C528.98-13.7496 535.136-7.59354 535.136 0.00037041 535.136 7.59429 528.98 13.7504 521.386 13.7504 513.792 13.7504 507.636 7.59427 507.636 0.000351375 507.636-7.59356 513.792-13.7496 521.386-13.7496Z" transform="matrix(-1 0 0 1 1880.89 1019.5)"/><text font-family="Noto Sans JP,Noto Sans JP_MSFontService,sans-serif" font-weight="400" font-size="55" transform="matrix(1 0 0 1 1938.37 1000)">PA3</text><text font-family="Noto Sans JP,Noto Sans JP_MSFontService,sans-serif" font-weight="400" font-size="55" transform="matrix(1 0 0 1 2033.48 1000)"> </text><text font-family="Noto Sans JP,Noto Sans JP_MSFontService,sans-serif" font-weight="400" font-size="55" transform="matrix(1 0 0 1 1938.37 1254)">PA6</text><text font-family="Noto Sans JP,Noto Sans JP_MSFontService,sans-serif" font-weight="400" font-size="55" transform="matrix(1 0 0 1 2033.48 1254)"> </text><text font-family="Noto Sans JP,Noto Sans JP_MSFontService,sans-serif" font-weight="400" font-size="55" transform="matrix(1 0 0 1 1938.37 1506)">PA7</text><text font-family="Noto Sans JP,Noto Sans JP_MSFontService,sans-serif" font-weight="400" font-size="55" transform="matrix(1 0 0 1 2033.48 1506)"> </text><text font-family="Noto Sans JP,Noto Sans JP_MSFontService,sans-serif" font-weight="400" font-size="55" transform="matrix(1 0 0 1 1723.27 892)">470</text><text font-family="Noto Sans JP,Noto Sans JP_MSFontService,sans-serif" font-weight="400" font-size="55" transform="matrix(1 0 0 1 1814.37 892)"> </text><path d="M982.381 917.385 1267.1 1036.04C1268.27 1036.53 1268.82 1037.87 1268.33 1039.04 1267.85 1040.21 1266.5 1040.76 1265.34 1040.27L980.618 921.615C979.45 921.128 978.898 919.787 979.385 918.618 979.871 917.45 981.213 916.898 982.381 917.385ZM1267.28 1023.7 1287.37 1046.98 1256.7 1049.09Z" fill="#F79325"/><path d="M958.93 947.709 1268.27 1194.77C1269.26 1195.56 1269.42 1197 1268.63 1197.99 1267.84 1198.98 1266.4 1199.14 1265.41 1198.35L956.07 951.291C955.081 950.501 954.919 949.059 955.709 948.07 956.499 947.081 957.941 946.919 958.93 947.709ZM1271.84 1182.96 1284.75 1210.86 1254.68 1204.45Z" fill="#F79325"/><path d="M933.26 971.032 1266.51 1370.52C1267.32 1371.49 1267.19 1372.94 1266.22 1373.75 1265.25 1374.56 1263.8 1374.43 1262.99 1373.45L929.74 973.968C928.93 972.996 929.06 971.551 930.032 970.74 931.004 969.929 932.449 970.06 933.26 971.032ZM1272.37 1359.66 1279.43 1389.58 1251.26 1377.27Z" fill="#F79325"/><text font-family="Noto Sans JP,Noto Sans JP_MSFontService,sans-serif" font-weight="400" font-size="55" transform="matrix(1 0 0 1 2583.34 1373)">4.</text><text font-family="Noto Sans JP,Noto Sans JP_MSFontService,sans-serif" font-weight="400" font-size="55" transform="matrix(1 0 0 1 2629.17 1373)">7</text><text font-family="Noto Sans JP,Noto Sans JP_MSFontService,sans-serif" font-weight="400" font-size="55" transform="matrix(1 0 0 1 2659.54 1373)">k</text><text font-family="Noto Sans JP,Noto Sans JP_MSFontService,sans-serif" font-weight="400" font-size="55" transform="matrix(1 0 0 1 2689.9 1373)"> </text><text font-family="Noto Sans JP,Noto Sans JP_MSFontService,sans-serif" font-weight="400" font-size="55" transform="matrix(1 0 0 1 2632.79 1498)">Red</text><text font-family="Noto Sans JP,Noto Sans JP_MSFontService,sans-serif" font-weight="400" font-size="55" transform="matrix(1 0 0 1 2731.91 1498)"> </text><path d="M181 0 0 0 0 285" stroke="#000000" stroke-width="4.58333" stroke-linecap="round" stroke-linejoin="round" stroke-miterlimit="10" fill="none" fill-rule="evenodd" transform="matrix(-1 0 0 1 2548.5 1265.5)"/><rect x="2530.5" y="1309.5" width="35" height="89" stroke="#000000" stroke-width="4.58333" stroke-linecap="round" stroke-linejoin="round" stroke-miterlimit="10" fill="#E8E8E8"/><path d="M0 46.0001 28.5 0 57.0001 46.0001Z" stroke="#000000" stroke-width="4.58333" stroke-linecap="round" stroke-linejoin="round" stroke-miterlimit="10" fill-rule="evenodd" transform="matrix(1 -1.22465e-16 -1.22465e-16 -1 2519.5 1494.5)"/><path d="M0 0 0.000360892 57.0325" stroke="#000000" stroke-width="9.16667" stroke-miterlimit="8" fill-rule="evenodd" transform="matrix(1.83697e-16 1 1 -1.83697e-16 2519.5 1494.5)"/><path d="M2.14087-0.817554 11.5987 23.949 7.31696 25.5842-2.14087 0.817554ZM16.3862 17.2146 14.3632 37.6118-0.740771 23.7551Z" transform="matrix(1.83697e-16 1 1 -1.83697e-16 2580.5 1460.5)"/><path d="M2.14087-0.817554 11.5987 23.949 7.31696 25.5842-2.14087 0.817554ZM16.3862 17.2146 14.3632 37.6118-0.740771 23.7551Z" transform="matrix(1.83697e-16 1 1 -1.83697e-16 2580.5 1481.5)"/><path d="M2569.5 1548.5 2548 1571.5 2526.5 1548.5Z" stroke="#000000" stroke-width="4.58333" stroke-linecap="round" stroke-linejoin="round" stroke-miterlimit="10" fill="#FFFFFF" fill-rule="evenodd"/><text font-family="Noto Sans JP,Noto Sans JP_MSFontService,sans-serif" font-weight="400" font-size="55" transform="matrix(1 0 0 1 2384.27 1249)">PA2</text><text font-family="Noto Sans JP,Noto Sans JP_MSFontService,sans-serif" font-weight="400" font-size="55" transform="matrix(1 0 0 1 2479.37 1249)"> </text><rect x="1725.5" y="1590.5" width="89" height="35.0001" stroke="#000000" stroke-width="4.58333" stroke-linecap="round" stroke-linejoin="round" stroke-miterlimit="10" fill="#E8E8E8"/><rect x="1725.5" y="1506.5" width="89" height="34.9998" stroke="#000000" stroke-width="4.58333" stroke-linecap="round" stroke-linejoin="round" stroke-miterlimit="10" fill="#E8E8E8"/><rect x="1725.5" y="1422.5" width="89" height="35.0001" stroke="#000000" stroke-width="4.58333" stroke-linecap="round" stroke-linejoin="round" stroke-miterlimit="10" fill="#E8E8E8"/><rect x="1725.5" y="1338.5" width="89" height="35.0001" stroke="#000000" stroke-width="4.58333" stroke-linecap="round" stroke-linejoin="round" stroke-miterlimit="10" fill="#E8E8E8"/><rect x="1725.5" y="1253.5" width="89" height="35.9998" stroke="#000000" stroke-width="4.58333" stroke-linecap="round" stroke-linejoin="round" stroke-miterlimit="10" fill="#E8E8E8"/><rect x="1725.5" y="1169.5" width="89" height="35.0001" stroke="#000000" stroke-width="4.58333" stroke-linecap="round" stroke-linejoin="round" stroke-miterlimit="10" fill="#E8E8E8"/><rect x="1725.5" y="1085.5" width="89" height="35.0001" stroke="#000000" stroke-width="4.58333" stroke-linecap="round" stroke-linejoin="round" stroke-miterlimit="10" fill="#E8E8E8"/><rect x="1725.5" y="1001.5" width="89" height="35.0001" stroke="#000000" stroke-width="4.58333" stroke-linecap="round" stroke-linejoin="round" stroke-miterlimit="10" fill="#E8E8E8"/><rect x="1725.5" y="917.5" width="89" height="35.0001" stroke="#000000" stroke-width="4.58333" stroke-linecap="round" stroke-linejoin="round" stroke-miterlimit="10" fill="#E8E8E8"/><path d="M0 46.9997 28.5 0 57.0001 46.9997Z" stroke="#000000" stroke-width="4.58333" stroke-linecap="round" stroke-linejoin="round" stroke-miterlimit="10" fill-rule="evenodd" transform="matrix(1.83697e-16 1 1 -1.83697e-16 1615.5 907.5)"/><path d="M0 0 0.000360892 57.0325" stroke="#000000" stroke-width="9.16667" stroke-miterlimit="8" fill-rule="evenodd" transform="matrix(-1 0 0 1 1615.5 907.5)"/><path d="M2.14087-0.817554 11.5987 23.949 7.31696 25.5842-2.14087 0.817554ZM16.3862 17.2146 14.3632 37.6118-0.740771 23.7551Z" transform="matrix(-1 0 0 1 1649.86 967.5)"/><path d="M2.14087-0.817554 11.5987 23.949 7.31696 25.5842-2.14087 0.817554ZM16.3862 17.2146 14.3632 37.6118-0.740771 23.7551Z" transform="matrix(-1 0 0 1 1628.86 967.5)"/><path d="M0 46.9997 28.5 0 57.0001 46.9997Z" stroke="#000000" stroke-width="4.58333" stroke-linecap="round" stroke-linejoin="round" stroke-miterlimit="10" fill-rule="evenodd" transform="matrix(1.83697e-16 1 1 -1.83697e-16 1615.5 1159.5)"/><path d="M0 0 0.000360892 57.0325" stroke="#000000" stroke-width="9.16667" stroke-miterlimit="8" fill-rule="evenodd" transform="matrix(-1 0 0 1 1615.5 1159.5)"/><path d="M2.14087-0.817554 11.5987 23.949 7.31696 25.5842-2.14087 0.817554ZM16.3862 17.2146 14.3632 37.6118-0.740771 23.7551Z" transform="matrix(-1 0 0 1 1649.86 1220.5)"/><path d="M2.14087-0.817554 11.5987 23.949 7.31696 25.5842-2.14087 0.817554ZM16.3862 17.2146 14.3632 37.6118-0.740771 23.7551Z" transform="matrix(-1 0 0 1 1628.86 1220.5)"/><path d="M0 46.9997 28.5 0 57.0001 46.9997Z" stroke="#000000" stroke-width="4.58333" stroke-linecap="round" stroke-linejoin="round" stroke-miterlimit="10" fill-rule="evenodd" transform="matrix(1.83697e-16 1 1 -1.83697e-16 1615.5 1412.5)"/><path d="M0 0 0.000360892 57.0325" stroke="#000000" stroke-width="9.16667" stroke-miterlimit="8" fill-rule="evenodd" transform="matrix(-1 0 0 1 1615.5 1412.5)"/><path d="M2.14087-0.817554 11.5987 23.949 7.31696 25.5842-2.14087 0.817554ZM16.3862 17.2146 14.3632 37.6118-0.740771 23.7551Z" transform="matrix(-1 0 0 1 1649.86 1472.5)"/><path d="M2.14087-0.817554 11.5987 23.949 7.31696 25.5842-2.14087 0.817554ZM16.3862 17.2146 14.3632 37.6118-0.740771 23.7551Z" transform="matrix(-1 0 0 1 1628.86 1472.5)"/><path d="M0 47.0001 28.5 0 57.0001 47.0001Z" stroke="#000000" stroke-width="4.58333" stroke-linecap="round" stroke-linejoin="round" stroke-miterlimit="10" fill-rule="evenodd" transform="matrix(1.83697e-16 1 1 -1.83697e-16 1521.5 991.5)"/><path d="M0 0 0.000360892 57.0325" stroke="#000000" stroke-width="9.16667" stroke-miterlimit="8" fill-rule="evenodd" transform="matrix(-1 0 0 1 1521.5 991.5)"/><path d="M2.14087-0.817554 11.5987 23.949 7.31696 25.5842-2.14087 0.817554ZM16.3862 17.2146 14.3632 37.6118-0.740771 23.7551Z" transform="matrix(-1 0 0 1 1555.86 1051.5)"/><path d="M2.14087-0.817554 11.5987 23.949 7.31696 25.5842-2.14087 0.817554ZM16.3862 17.2146 14.3632 37.6118-0.740771 23.7551Z" transform="matrix(-1 0 0 1 1534.86 1051.5)"/><path d="M0 47.0001 28.5 0 57.0001 47.0001Z" stroke="#000000" stroke-width="4.58333" stroke-linecap="round" stroke-linejoin="round" stroke-miterlimit="10" fill-rule="evenodd" transform="matrix(1.83697e-16 1 1 -1.83697e-16 1521.5 1244.5)"/><path d="M0 0 0.000360892 57.0325" stroke="#000000" stroke-width="9.16667" stroke-miterlimit="8" fill-rule="evenodd" transform="matrix(-1 0 0 1 1521.5 1244.5)"/><path d="M2.14087-0.817554 11.5987 23.949 7.31696 25.5842-2.14087 0.817554ZM16.3862 17.2146 14.3632 37.6118-0.740771 23.7551Z" transform="matrix(-1 0 0 1 1555.86 1304.5)"/><path d="M2.14087-0.817554 11.5987 23.949 7.31696 25.5842-2.14087 0.817554ZM16.3862 17.2146 14.3632 37.6118-0.740771 23.7551Z" transform="matrix(-1 0 0 1 1534.86 1304.5)"/><path d="M0 47.0001 28.5 0 57.0001 47.0001Z" stroke="#000000" stroke-width="4.58333" stroke-linecap="round" stroke-linejoin="round" stroke-miterlimit="10" fill-rule="evenodd" transform="matrix(1.83697e-16 1 1 -1.83697e-16 1521.5 1496.5)"/><path d="M0 0 0.000360892 57.0325" stroke="#000000" stroke-width="9.16667" stroke-miterlimit="8" fill-rule="evenodd" transform="matrix(-1 0 0 1 1521.5 1496.5)"/><path d="M2.14087-0.817554 11.5987 23.949 7.31696 25.5842-2.14087 0.817554ZM16.3862 17.2146 14.3632 37.6118-0.740771 23.7551Z" transform="matrix(-1 0 0 1 1555.86 1557.5)"/><path d="M2.14087-0.817554 11.5987 23.949 7.31696 25.5842-2.14087 0.817554ZM16.3862 17.2146 14.3632 37.6118-0.740771 23.7551Z" transform="matrix(-1 0 0 1 1534.86 1557.5)"/><path d="M0 46.9997 28.5 0 57.0001 46.9997Z" stroke="#000000" stroke-width="4.58333" stroke-linecap="round" stroke-linejoin="round" stroke-miterlimit="10" fill-rule="evenodd" transform="matrix(1.83697e-16 1 1 -1.83697e-16 1427.5 1075.5)"/><path d="M0 0 0.000360892 57.0325" stroke="#000000" stroke-width="9.16667" stroke-miterlimit="8" fill-rule="evenodd" transform="matrix(-1 0 0 1 1427.5 1075.5)"/><path d="M2.14087-0.817554 11.5987 23.949 7.31696 25.5842-2.14087 0.817554ZM16.3862 17.2146 14.3632 37.6118-0.740771 23.7551Z" transform="matrix(-1 0 0 1 1461.86 1136.5)"/><path d="M2.14087-0.817554 11.5987 23.949 7.31696 25.5842-2.14087 0.817554ZM16.3862 17.2146 14.3632 37.6118-0.740771 23.7551Z" transform="matrix(-1 0 0 1 1440.86 1136.5)"/><path d="M0 46.9997 28.5 0 57.0001 46.9997Z" stroke="#000000" stroke-width="4.58333" stroke-linecap="round" stroke-linejoin="round" stroke-miterlimit="10" fill-rule="evenodd" transform="matrix(1.83697e-16 1 1 -1.83697e-16 1427.5 1328.5)"/><path d="M0 0 0.000360892 57.0325" stroke="#000000" stroke-width="9.16667" stroke-miterlimit="8" fill-rule="evenodd" transform="matrix(-1 0 0 1 1427.5 1328.5)"/><path d="M2.14087-0.817554 11.5987 23.949 7.31696 25.5842-2.14087 0.817554ZM16.3862 17.2146 14.3632 37.6118-0.740771 23.7551Z" transform="matrix(-1 0 0 1 1461.86 1388.5)"/><path d="M2.14087-0.817554 11.5987 23.949 7.31696 25.5842-2.14087 0.817554ZM16.3862 17.2146 14.3632 37.6118-0.740771 23.7551Z" transform="matrix(-1 0 0 1 1440.86 1388.5)"/><path d="M0 46.9997 28.5 0 57.0001 46.9997Z" stroke="#000000" stroke-width="4.58333" stroke-linecap="round" stroke-linejoin="round" stroke-miterlimit="10" fill-rule="evenodd" transform="matrix(1.83697e-16 1 1 -1.83697e-16 1427.5 1581.5)"/><path d="M0 0 0.000360892 57.0325" stroke="#000000" stroke-width="9.16667" stroke-miterlimit="8" fill-rule="evenodd" transform="matrix(-1 0 0 1 1427.5 1581.5)"/><path d="M2.14087-0.817554 11.5987 23.949 7.31696 25.5842-2.14087 0.817554ZM16.3862 17.2146 14.3632 37.6118-0.740771 23.7551Z" transform="matrix(-1 0 0 1 1461.86 1641.5)"/><path d="M2.14087-0.817554 11.5987 23.949 7.31696 25.5842-2.14087 0.817554ZM16.3862 17.2146 14.3632 37.6118-0.740771 23.7551Z" transform="matrix(-1 0 0 1 1440.86 1641.5)"/><path d="M728 860 762.274 845.878 736.221 820.201 773.498 819.784 759.632 786.46 794.238 799.813 794.671 763.916 821.335 789.004 836 756 850.665 789.004 877.329 763.916 877.762 799.813 912.368 786.46 898.502 819.784 935.779 820.201 909.726 845.878 944 860 909.726 874.122 935.779 899.799 898.502 900.215 912.368 933.539 877.762 920.187 877.329 956.083 850.665 930.995 836 964 821.335 930.995 794.671 956.083 794.238 920.187 759.632 933.539 773.498 900.215 736.221 899.799 762.274 874.122Z" fill="#F79325" fill-rule="evenodd"/><path d="M765 859.5C765 820.012 797.011 788 836.5 788 875.988 788 908 820.012 908 859.5 908 898.988 875.988 931 836.5 931 797.011 931 765 898.988 765 859.5Z" fill="#FFFF00" fill-rule="evenodd"/></g></svg>