<svg width="4326" height="1815" xmlns="http://www.w3.org/2000/svg" xmlns:xlink="http://www.w3.org/1999/xlink" xml:space="preserve" overflow="hidden"><defs><clipPath id="clip0"><rect x="37" y="284" width="4326" height="1815"/></clipPath></defs><g clip-path="url(#clip0)" transform="translate(-37 -284)"><rect x="37.0001" y="284" width="4326" height="1815" fill="#FFFFFF"/><rect x="0" y="0" width="619" height="665" stroke="#000000" stroke-width="4.58333" stroke-linecap="round" stroke-linejoin="round" stroke-miterlimit="10" fill="#E8E8E8" transform="matrix(-1 0 0 1 1246.5 1138.5)"/><path d="M2.29167-3.84173e-06 2.29203 215.279C2.29203 216.545 1.26602 217.571 0.000364734 217.571-1.26529 217.571-2.2913 216.545-2.29131 215.279L-2.29167 3.84173e-06C-2.29167-1.26565-1.26566-2.29166-3.84173e-06-2.29167 1.26565-2.29167 2.29166-1.26566 2.29167-3.84173e-06ZM13.7504 215.279C13.7504 222.873 7.5943 229.029 0.000383943 229.029-7.59353 229.029-13.7496 222.873-13.7496 215.279-13.7497 207.685-7.59358 201.529 0.000337842 201.529 7.59425 201.529 13.7503 207.685 13.7504 215.279Z" transform="matrix(1 0 0 -1 1057.5 1931.78)"/><path d="M0 23 21.5 0 43 23Z" stroke="#000000" stroke-width="4.58333" stroke-linecap="round" stroke-linejoin="round" stroke-miterlimit="10" fill="#FFFFFF" fill-rule="evenodd" transform="matrix(1 -1.22465e-16 -1.22465e-16 -1 1037.5 1953.5)"/><path d="M699.5 1716.5 1156.17 1716.5" stroke="#000000" stroke-width="4.58333" stroke-linecap="round" stroke-linejoin="round" stroke-miterlimit="10" fill="none" fill-rule="evenodd"/><path d="M699.5 1229.5 1156.17 1229.5" stroke="#000000" stroke-width="4.58333" stroke-linecap="round" stroke-linejoin="round" stroke-miterlimit="10" fill="none" fill-rule="evenodd"/><path d="M742.792 1230.5 742.792 1716.58C742.792 1717.85 741.766 1718.87 740.5 1718.87 739.235 1718.87 738.209 1717.85 738.209 1716.58L738.208 1230.5C738.208 1229.23 739.234 1228.21 740.5 1228.21 741.766 1228.21 742.792 1229.23 742.792 1230.5ZM726.75 1230.5C726.75 1222.91 732.906 1216.75 740.5 1216.75 748.094 1216.75 754.25 1222.91 754.25 1230.5 754.25 1238.09 748.094 1244.25 740.5 1244.25 732.906 1244.25 726.75 1238.09 726.75 1230.5ZM754.25 1716.58C754.25 1724.18 748.094 1730.33 740.5 1730.33 732.906 1730.33 726.75 1724.18 726.75 1716.58 726.75 1708.99 732.906 1702.83 740.5 1702.83 748.094 1702.83 754.25 1708.99 754.25 1716.58Z"/><path d="M0 47.0001 28.4999 0 56.9997 47.0001Z" stroke="#000000" stroke-width="4.58333" stroke-linecap="round" stroke-linejoin="round" stroke-miterlimit="10" fill-rule="evenodd" transform="matrix(-1 0 0 1 770.5 1323.5)"/><path d="M0 0 0.000360892 57.0307" stroke="#000000" stroke-width="9.16667" stroke-miterlimit="8" fill-rule="evenodd" transform="matrix(-6.12323e-17 -1 -1 6.12323e-17 770.531 1323.5)"/><path d="M0 46.0001 28.4999 0 56.9997 46.0001Z" stroke="#000000" stroke-width="4.58333" stroke-linecap="round" stroke-linejoin="round" stroke-miterlimit="10" fill-rule="evenodd" transform="matrix(-1 0 0 1 770.5 1573.5)"/><path d="M0 0 0.000360892 57.0307" stroke="#000000" stroke-width="9.16667" stroke-miterlimit="8" fill-rule="evenodd" transform="matrix(-6.12323e-17 -1 -1 6.12323e-17 770.531 1573.5)"/><path d="M946.5 1471.21 978.583 1471.21C979.849 1471.21 980.875 1472.23 980.875 1473.5 980.875 1474.77 979.849 1475.79 978.583 1475.79L946.5 1475.79C945.234 1475.79 944.208 1474.77 944.208 1473.5 944.208 1472.23 945.234 1471.21 946.5 1471.21ZM996.917 1471.21 1029 1471.21C1030.27 1471.21 1031.29 1472.23 1031.29 1473.5 1031.29 1474.77 1030.27 1475.79 1029 1475.79L996.917 1475.79C995.651 1475.79 994.625 1474.77 994.625 1473.5 994.625 1472.23 995.651 1471.21 996.917 1471.21ZM1047.33 1471.21 1079.42 1471.21C1080.68 1471.21 1081.71 1472.23 1081.71 1473.5 1081.71 1474.77 1080.68 1475.79 1079.42 1475.79L1047.33 1475.79C1046.07 1475.79 1045.04 1474.77 1045.04 1473.5 1045.04 1472.23 1046.07 1471.21 1047.33 1471.21ZM1097.75 1471.21 1129.83 1471.21C1131.1 1471.21 1132.12 1472.23 1132.12 1473.5 1132.12 1474.77 1131.1 1475.79 1129.83 1475.79L1097.75 1475.79C1096.48 1475.79 1095.46 1474.77 1095.46 1473.5 1095.46 1472.23 1096.48 1471.21 1097.75 1471.21ZM946.5 1487.25C938.906 1487.25 932.75 1481.09 932.75 1473.5 932.75 1465.91 938.906 1459.75 946.5 1459.75 954.094 1459.75 960.25 1465.91 960.25 1473.5 960.25 1481.09 954.094 1487.25 946.5 1487.25Z"/><text font-family="Noto Sans JP,Noto Sans JP_MSFontService,sans-serif" font-weight="700" font-size="55" transform="matrix(1 0 0 1 1073.78 1107)">V</text><text font-family="Noto Sans JP,Noto Sans JP_MSFontService,sans-serif" font-weight="700" font-size="37" transform="matrix(1 0 0 1 1107.58 1120)">CC</text><text font-family="Noto Sans JP,Noto Sans JP_MSFontService,sans-serif" font-weight="700" font-size="37" transform="matrix(1 0 0 1 1153.99 1120)"> </text><path d="M745.5 1475.79 335.5 1475.79 337.792 1473.5 337.792 1934.5C337.792 1935.77 336.766 1936.79 335.5 1936.79 334.234 1936.79 333.208 1935.77 333.208 1934.5L333.208 1473.5C333.208 1472.23 334.234 1471.21 335.5 1471.21L745.5 1471.21C746.766 1471.21 747.792 1472.23 747.792 1473.5 747.792 1474.77 746.766 1475.79 745.5 1475.79ZM745.5 1459.75C753.094 1459.75 759.25 1465.91 759.25 1473.5 759.25 1481.09 753.094 1487.25 745.5 1487.25 737.906 1487.25 731.75 1481.09 731.75 1473.5 731.75 1465.91 737.906 1459.75 745.5 1459.75Z"/><rect x="0" y="0" width="88.9997" height="35.9997" stroke="#000000" stroke-width="4.58333" stroke-linecap="round" stroke-linejoin="round" stroke-miterlimit="10" fill="#E8E8E8" transform="matrix(1.83697e-16 1 1 -1.83697e-16 317.5 1539.5)"/><path d="M0 47.0001 28.4999 0 56.9997 47.0001Z" stroke="#000000" stroke-width="4.58333" stroke-linecap="round" stroke-linejoin="round" stroke-miterlimit="10" fill-rule="evenodd" transform="matrix(1 -1.22465e-16 -1.22465e-16 -1 306.5 1753.5)"/><path d="M0 0 0.000360892 57.0325" stroke="#000000" stroke-width="9.16667" stroke-miterlimit="8" fill-rule="evenodd" transform="matrix(1.83697e-16 1 1 -1.83697e-16 306.5 1753.5)"/><path d="M2.14087-0.817554 11.5987 23.949 7.31696 25.5842-2.14087 0.817554ZM16.3862 17.2146 14.3632 37.6118-0.740771 23.7551Z" transform="matrix(1.83697e-16 1 1 -1.83697e-16 367.5 1719.5)"/><path d="M2.14087-0.817554 11.5987 23.949 7.31696 25.5842-2.14087 0.817554ZM16.3862 17.2146 14.3632 37.6118-0.740771 23.7551Z" transform="matrix(1.83697e-16 1 1 -1.83697e-16 367.5 1739.5)"/><path d="M0 23 22 0 44 23Z" stroke="#000000" stroke-width="4.58333" stroke-linecap="round" stroke-linejoin="round" stroke-miterlimit="10" fill="#FFFFFF" fill-rule="evenodd" transform="matrix(1 -1.22465e-16 -1.22465e-16 -1 313.5 1953.5)"/><path d="M174 1720.12 256.5 1720.13 256.5 1733.88 174 1733.88ZM249.625 1706.38 290.875 1727 249.625 1747.63Z" fill="#D86ECC"/><text font-family="Noto Sans JP,Noto Sans JP_MSFontService,sans-serif" font-weight="400" font-size="55" transform="matrix(1 0 0 1 1073.78 1868)">GND</text><text font-family="Noto Sans JP,Noto Sans JP_MSFontService,sans-serif" font-weight="400" font-size="55" transform="matrix(1 0 0 1 1188.94 1868)"> </text><text font-family="Noto Sans JP,Noto Sans JP_MSFontService,sans-serif" font-weight="700" font-size="55" transform="matrix(1 0 0 1 481.759 1532)">V</text><text font-family="Noto Sans JP,Noto Sans JP_MSFontService,sans-serif" font-weight="700" font-size="37" transform="matrix(1 0 0 1 515.561 1545)">GPIO</text><text font-family="Noto Sans JP,Noto Sans JP_MSFontService,sans-serif" font-weight="700" font-size="37" transform="matrix(1 0 0 1 606.655 1545)"> </text><path d="M740.5 1471.21 945.466 1471.21C946.732 1471.21 947.758 1472.23 947.758 1473.5 947.758 1474.77 946.732 1475.79 945.466 1475.79L740.5 1475.79C739.234 1475.79 738.208 1474.77 738.208 1473.5 738.208 1472.23 739.234 1471.21 740.5 1471.21ZM740.5 1487.25C732.906 1487.25 726.75 1481.09 726.75 1473.5 726.75 1465.91 732.906 1459.75 740.5 1459.75 748.094 1459.75 754.25 1465.91 754.25 1473.5 754.25 1481.09 748.094 1487.25 740.5 1487.25ZM945.466 1459.75C953.06 1459.75 959.216 1465.91 959.216 1473.5 959.216 1481.09 953.06 1487.25 945.466 1487.25 937.872 1487.25 931.716 1481.09 931.716 1473.5 931.716 1465.91 937.872 1459.75 945.466 1459.75Z"/><path d="M947.792 1405.5 947.792 1472.89C947.792 1474.16 946.766 1475.18 945.501 1475.18 944.235 1475.18 943.209 1474.16 943.209 1472.89L943.208 1405.5C943.208 1404.23 944.234 1403.21 945.5 1403.21 946.766 1403.21 947.792 1404.23 947.792 1405.5ZM959.251 1472.89C959.251 1480.49 953.095 1486.64 945.501 1486.64 937.907 1486.64 931.751 1480.49 931.751 1472.89 931.75 1465.3 937.907 1459.14 945.5 1459.14 953.094 1459.14 959.25 1465.3 959.251 1472.89Z"/><path d="M2.29167-6.94893e-06 2.29203 119.018C2.29203 120.283 1.26602 121.309 0.000367841 121.309-1.26528 121.309-2.2913 120.283-2.29131 119.018L-2.29167 6.94893e-06C-2.29167-1.26565-1.26566-2.29166-6.94893e-06-2.29167 1.26565-2.29167 2.29166-1.26566 2.29167-6.94893e-06ZM13.7504 119.018C13.7504 126.611 7.59432 132.768 0.000402586 132.768-7.59351 132.768-13.7496 126.612-13.7496 119.018-13.7497 111.424-7.5936 105.268 0.000319199 105.268 7.59424 105.268 13.7503 111.424 13.7504 119.018Z" transform="matrix(1 0 0 -1 945.5 1348.52)"/><text font-family="Noto Sans JP,Noto Sans JP_MSFontService,sans-serif" font-weight="700" font-size="55" transform="matrix(1 0 0 1 786.416 1366)">V</text><text font-family="Noto Sans JP,Noto Sans JP_MSFontService,sans-serif" font-weight="700" font-size="37" transform="matrix(1 0 0 1 820.218 1379)">F</text><text font-family="Noto Sans JP,Noto Sans JP_MSFontService,sans-serif" font-weight="700" font-size="37" transform="matrix(1 0 0 1 841.416 1379)"> </text><text fill="#0070C0" font-family="Noto Sans JP,Noto Sans JP_MSFontService,sans-serif" font-weight="700" font-size="55" transform="matrix(1 0 0 1 962.347 1334)">OFF</text><text fill="#0070C0" font-family="Noto Sans JP,Noto Sans JP_MSFontService,sans-serif" font-weight="700" font-size="55" transform="matrix(1 0 0 1 1068.91 1334)"> </text><path d="M1003.5 1375.5 1145.69 1375.5" stroke="#000000" stroke-width="4.58333" stroke-linecap="round" stroke-linejoin="round" stroke-miterlimit="10" stroke-dasharray="32.0833 18.3333" fill="none" fill-rule="evenodd"/><path d="M945.5 1350.5 985.5 1350.5 985.5 1402.5 945.558 1402.5" stroke="#0070C0" stroke-width="4.58333" stroke-linecap="round" stroke-linejoin="round" stroke-miterlimit="10" fill="none" fill-rule="evenodd"/><path d="M1003.5 1350.5 1003.5 1402.84" stroke="#0070C0" stroke-width="9.16667" stroke-miterlimit="8" fill-rule="evenodd"/><path d="M947.792 1649.5 947.792 1716.89C947.792 1718.16 946.766 1719.18 945.501 1719.18 944.235 1719.18 943.209 1718.16 943.209 1716.89L943.208 1649.5C943.208 1648.23 944.234 1647.21 945.5 1647.21 946.766 1647.21 947.792 1648.23 947.792 1649.5ZM959.251 1716.89C959.251 1724.49 953.095 1730.64 945.501 1730.64 937.907 1730.64 931.751 1724.49 931.751 1716.89 931.75 1709.3 937.907 1703.14 945.5 1703.14 953.094 1703.14 959.25 1709.3 959.251 1716.89Z"/><path d="M2.29167-6.94893e-06 2.29203 119.018C2.29203 120.283 1.26602 121.309 0.000367841 121.309-1.26528 121.309-2.2913 120.283-2.29131 119.018L-2.29167 6.94893e-06C-2.29167-1.26565-1.26566-2.29166-6.94893e-06-2.29167 1.26565-2.29167 2.29166-1.26566 2.29167-6.94893e-06ZM13.7504 119.018C13.7504 126.611 7.59432 132.768 0.000402586 132.768-7.59351 132.768-13.7496 126.612-13.7496 119.018-13.7497 111.424-7.5936 105.268 0.000319199 105.268 7.59424 105.268 13.7503 111.424 13.7504 119.018Z" transform="matrix(1 0 0 -1 945.5 1592.52)"/><text fill="#0070C0" font-family="Noto Sans JP,Noto Sans JP_MSFontService,sans-serif" font-weight="700" font-size="55" transform="matrix(1 0 0 1 962.347 1578)">OFF</text><text fill="#0070C0" font-family="Noto Sans JP,Noto Sans JP_MSFontService,sans-serif" font-weight="700" font-size="55" transform="matrix(1 0 0 1 1068.91 1578)"> </text><path d="M1003.5 1619.5 1145.69 1619.5" stroke="#000000" stroke-width="4.58333" stroke-linecap="round" stroke-linejoin="round" stroke-miterlimit="10" stroke-dasharray="32.0833 18.3333" fill="none" fill-rule="evenodd"/><path d="M945.5 1594.5 985.5 1594.5 985.5 1646.5 945.558 1646.5" stroke="#0070C0" stroke-width="4.58333" stroke-linecap="round" stroke-linejoin="round" stroke-miterlimit="10" fill="none" fill-rule="evenodd"/><path d="M1003.5 1594.5 1003.5 1646.84" stroke="#0070C0" stroke-width="9.16667" stroke-miterlimit="8" fill-rule="evenodd"/><text font-family="Noto Sans JP,Noto Sans JP_MSFontService,sans-serif" font-weight="700" font-size="73" transform="matrix(1 0 0 1 588.718 729)">V</text><text font-family="Noto Sans JP,Noto Sans JP_MSFontService,sans-serif" font-weight="700" font-size="49" transform="matrix(1 0 0 1 633.979 746)">CC </text><text font-family="Cambria Math,Cambria Math_MSFontService,sans-serif" font-weight="400" font-size="73" transform="matrix(1 0 0 1 706.739 729)">≒</text><text font-family="Noto Sans JP,Noto Sans JP_MSFontService,sans-serif" font-weight="700" font-size="73" transform="matrix(1 0 0 1 761.739 729)"> </text><text font-family="Noto Sans JP,Noto Sans JP_MSFontService,sans-serif" font-weight="700" font-size="73" transform="matrix(1 0 0 1 778.354 729)">V</text><text font-family="Noto Sans JP,Noto Sans JP_MSFontService,sans-serif" font-weight="700" font-size="49" transform="matrix(1 0 0 1 823.614 746)">GPIO</text><text font-family="Noto Sans JP,Noto Sans JP_MSFontService,sans-serif" font-weight="700" font-size="73" transform="matrix(1 0 0 1 945.072 729)"> </text><text font-family="Noto Sans JP,Noto Sans JP_MSFontService,sans-serif" font-weight="400" font-size="73" transform="matrix(1 0 0 1 961.687 729)">－</text><text font-family="Noto Sans JP,Noto Sans JP_MSFontService,sans-serif" font-weight="700" font-size="73" transform="matrix(1 0 0 1 1035.02 729)"> </text><text font-family="Noto Sans JP,Noto Sans JP_MSFontService,sans-serif" font-weight="700" font-size="73" transform="matrix(1 0 0 1 1051.64 729)">V</text><text font-family="Noto Sans JP,Noto Sans JP_MSFontService,sans-serif" font-weight="700" font-size="49" transform="matrix(1 0 0 1 1096.9 746)">F</text><text font-family="Noto Sans JP,Noto Sans JP_MSFontService,sans-serif" font-weight="700" font-size="49" transform="matrix(1 0 0 1 1125.54 746)"> </text><text font-family="Noto Sans JP,Noto Sans JP_MSFontService,sans-serif" font-weight="700" font-size="73" transform="matrix(1 0 0 1 405.455 477)">GPIO configured </text><text font-family="Noto Sans JP,Noto Sans JP_MSFontService,sans-serif" font-weight="700" font-size="73" transform="matrix(1 0 0 1 1009.88 477)">as </text><text fill="#C00000" font-family="Noto Sans JP,Noto Sans JP_MSFontService,sans-serif" font-weight="700" font-size="73" transform="matrix(1 0 0 1 1106.13 477)">Input</text><text fill="#C00000" font-family="Noto Sans JP,Noto Sans JP_MSFontService,sans-serif" font-weight="700" font-size="49" transform="matrix(1 0 0 1 1302.07 494)"> </text><path d="M807 578.5 831.75 578.5 831.75 540 881.25 540 881.25 578.5 906 578.5 856.5 617Z" fill="#7F7F7F" fill-rule="evenodd"/><path d="M678 1218.5C678 1198.89 693.67 1183 713 1183" stroke="#C00000" stroke-width="13.75" stroke-linecap="round" stroke-linejoin="round" stroke-miterlimit="10" fill="none" fill-rule="evenodd"/><path d="M679 1404C679 1423.33 663.106 1439 643.5 1439" stroke="#C00000" stroke-width="13.75" stroke-linecap="round" stroke-linejoin="round" stroke-miterlimit="10" fill="none" fill-rule="evenodd"/><path d="M414 1439 643.453 1439" stroke="#C00000" stroke-width="13.75" stroke-linejoin="round" stroke-miterlimit="10" fill="none" fill-rule="evenodd"/><path d="M0 0 0.000360892 184.615" stroke="#C00000" stroke-width="13.75" stroke-linecap="round" stroke-linejoin="round" stroke-miterlimit="10" fill="none" fill-rule="evenodd" transform="matrix(1 0 0 -1 678 1401.61)"/><path d="M1017 1147C1017 1166.33 1001.33 1182 982 1182" stroke="#C00000" stroke-width="13.75" stroke-linecap="round" stroke-linejoin="round" stroke-miterlimit="10" fill="none" fill-rule="evenodd"/><path d="M708 1182 982.188 1182" stroke="#C00000" stroke-width="13.75" stroke-linecap="round" stroke-linejoin="round" stroke-miterlimit="10" fill="none" fill-rule="evenodd"/><path d="M6.875-1.87456e-05 6.87527 97.983-6.87473 97.983-6.875 1.87456e-05ZM20.6252 91.1079 0.000360892 132.358-20.6248 91.1081Z" fill="#C00000" transform="matrix(1 0 0 -1 1017 1145.36)"/><rect x="0" y="0" width="619" height="665" stroke="#000000" stroke-width="4.58333" stroke-linecap="round" stroke-linejoin="round" stroke-miterlimit="10" fill="#E8E8E8" transform="matrix(-1 0 0 1 2657.5 1138.5)"/><path d="M2.29167-3.84173e-06 2.29203 215.279C2.29203 216.545 1.26602 217.571 0.000364734 217.571-1.26529 217.571-2.2913 216.545-2.29131 215.279L-2.29167 3.84173e-06C-2.29167-1.26565-1.26566-2.29166-3.84173e-06-2.29167 1.26565-2.29167 2.29166-1.26566 2.29167-3.84173e-06ZM13.7504 215.279C13.7504 222.873 7.5943 229.029 0.000383943 229.029-7.59353 229.029-13.7496 222.873-13.7496 215.279-13.7497 207.685-7.59358 201.529 0.000337842 201.529 7.59425 201.529 13.7503 207.685 13.7504 215.279Z" transform="matrix(1 0 0 -1 2467.5 1931.78)"/><path d="M0 23 21.5 0 43 23Z" stroke="#000000" stroke-width="4.58333" stroke-linecap="round" stroke-linejoin="round" stroke-miterlimit="10" fill="#FFFFFF" fill-rule="evenodd" transform="matrix(1 -1.22465e-16 -1.22465e-16 -1 2448.5 1953.5)"/><path d="M2110.5 1716.5 2567.17 1716.5" stroke="#000000" stroke-width="4.58333" stroke-linecap="round" stroke-linejoin="round" stroke-miterlimit="10" fill="none" fill-rule="evenodd"/><path d="M2110.5 1229.5 2567.17 1229.5" stroke="#000000" stroke-width="4.58333" stroke-linecap="round" stroke-linejoin="round" stroke-miterlimit="10" fill="none" fill-rule="evenodd"/><path d="M2153.79 1230.5 2153.79 1716.58C2153.79 1717.85 2152.77 1718.87 2151.5 1718.87 2150.23 1718.87 2149.21 1717.85 2149.21 1716.58L2149.21 1230.5C2149.21 1229.23 2150.23 1228.21 2151.5 1228.21 2152.77 1228.21 2153.79 1229.23 2153.79 1230.5ZM2137.75 1230.5C2137.75 1222.91 2143.91 1216.75 2151.5 1216.75 2159.09 1216.75 2165.25 1222.91 2165.25 1230.5 2165.25 1238.09 2159.09 1244.25 2151.5 1244.25 2143.91 1244.25 2137.75 1238.09 2137.75 1230.5ZM2165.25 1716.58C2165.25 1724.18 2159.09 1730.33 2151.5 1730.33 2143.91 1730.33 2137.75 1724.18 2137.75 1716.58 2137.75 1708.99 2143.91 1702.83 2151.5 1702.83 2159.09 1702.83 2165.25 1708.99 2165.25 1716.58Z"/><path d="M0 47.0001 29 0 58.0001 47.0001Z" stroke="#000000" stroke-width="4.58333" stroke-linecap="round" stroke-linejoin="round" stroke-miterlimit="10" fill-rule="evenodd" transform="matrix(-1 0 0 1 2181.5 1323.5)"/><path d="M0 0 0.000360892 57.0307" stroke="#000000" stroke-width="9.16667" stroke-miterlimit="8" fill-rule="evenodd" transform="matrix(-6.12323e-17 -1 -1 6.12323e-17 2180.53 1323.5)"/><path d="M0 46.0001 28.5 0 57.0001 46.0001Z" stroke="#000000" stroke-width="4.58333" stroke-linecap="round" stroke-linejoin="round" stroke-miterlimit="10" fill-rule="evenodd" transform="matrix(-1 0 0 1 2181.5 1573.5)"/><path d="M0 0 0.000360892 57.0307" stroke="#000000" stroke-width="9.16667" stroke-miterlimit="8" fill-rule="evenodd" transform="matrix(-6.12323e-17 -1 -1 6.12323e-17 2181.53 1573.5)"/><path d="M2357.5 1471.21 2389.58 1471.21C2390.85 1471.21 2391.88 1472.23 2391.88 1473.5 2391.88 1474.77 2390.85 1475.79 2389.58 1475.79L2357.5 1475.79C2356.23 1475.79 2355.21 1474.77 2355.21 1473.5 2355.21 1472.23 2356.23 1471.21 2357.5 1471.21ZM2407.92 1471.21 2440 1471.21C2441.27 1471.21 2442.29 1472.23 2442.29 1473.5 2442.29 1474.77 2441.27 1475.79 2440 1475.79L2407.92 1475.79C2406.65 1475.79 2405.62 1474.77 2405.62 1473.5 2405.62 1472.23 2406.65 1471.21 2407.92 1471.21ZM2458.33 1471.21 2490.42 1471.21C2491.68 1471.21 2492.71 1472.23 2492.71 1473.5 2492.71 1474.77 2491.68 1475.79 2490.42 1475.79L2458.33 1475.79C2457.07 1475.79 2456.04 1474.77 2456.04 1473.5 2456.04 1472.23 2457.07 1471.21 2458.33 1471.21ZM2508.75 1471.21 2540.83 1471.21C2542.1 1471.21 2543.12 1472.23 2543.12 1473.5 2543.12 1474.77 2542.1 1475.79 2540.83 1475.79L2508.75 1475.79C2507.48 1475.79 2506.46 1474.77 2506.46 1473.5 2506.46 1472.23 2507.48 1471.21 2508.75 1471.21ZM2357.5 1487.25C2349.91 1487.25 2343.75 1481.09 2343.75 1473.5 2343.75 1465.91 2349.91 1459.75 2357.5 1459.75 2365.09 1459.75 2371.25 1465.91 2371.25 1473.5 2371.25 1481.09 2365.09 1487.25 2357.5 1487.25Z"/><text font-family="Noto Sans JP,Noto Sans JP_MSFontService,sans-serif" font-weight="700" font-size="55" transform="matrix(1 0 0 1 2484.7 1107)">V</text><text font-family="Noto Sans JP,Noto Sans JP_MSFontService,sans-serif" font-weight="700" font-size="37" transform="matrix(1 0 0 1 2518.5 1120)">CC</text><text font-family="Noto Sans JP,Noto Sans JP_MSFontService,sans-serif" font-weight="700" font-size="37" transform="matrix(1 0 0 1 2564.91 1120)"> </text><path d="M2156.5 1475.79 1746.5 1475.79 1748.79 1473.5 1748.79 1934.5C1748.79 1935.77 1747.77 1936.79 1746.5 1936.79 1745.23 1936.79 1744.21 1935.77 1744.21 1934.5L1744.21 1473.5C1744.21 1472.23 1745.23 1471.21 1746.5 1471.21L2156.5 1471.21C2157.77 1471.21 2158.79 1472.23 2158.79 1473.5 2158.79 1474.77 2157.77 1475.79 2156.5 1475.79ZM2156.5 1459.75C2164.09 1459.75 2170.25 1465.91 2170.25 1473.5 2170.25 1481.09 2164.09 1487.25 2156.5 1487.25 2148.91 1487.25 2142.75 1481.09 2142.75 1473.5 2142.75 1465.91 2148.91 1459.75 2156.5 1459.75Z"/><rect x="0" y="0" width="88.9997" height="35.0001" stroke="#000000" stroke-width="4.58333" stroke-linecap="round" stroke-linejoin="round" stroke-miterlimit="10" fill="#E8E8E8" transform="matrix(1.83697e-16 1 1 -1.83697e-16 1728.5 1539.5)"/><path d="M0 47.0001 28.5 0 57.0001 47.0001Z" stroke="#000000" stroke-width="4.58333" stroke-linecap="round" stroke-linejoin="round" stroke-miterlimit="10" fill-rule="evenodd" transform="matrix(1 -1.22465e-16 -1.22465e-16 -1 1717.5 1753.5)"/><path d="M0 0 0.000360892 57.0325" stroke="#000000" stroke-width="9.16667" stroke-miterlimit="8" fill-rule="evenodd" transform="matrix(1.83697e-16 1 1 -1.83697e-16 1717.5 1753.5)"/><path d="M2.14087-0.817554 11.5987 23.949 7.31696 25.5842-2.14087 0.817554ZM16.3862 17.2146 14.3632 37.6118-0.740771 23.7551Z" transform="matrix(1.83697e-16 1 1 -1.83697e-16 1778.5 1719.5)"/><path d="M2.14087-0.817554 11.5987 23.949 7.31696 25.5842-2.14087 0.817554ZM16.3862 17.2146 14.3632 37.6118-0.740771 23.7551Z" transform="matrix(1.83697e-16 1 1 -1.83697e-16 1778.5 1739.5)"/><path d="M0 23 22 0 44 23Z" stroke="#000000" stroke-width="4.58333" stroke-linecap="round" stroke-linejoin="round" stroke-miterlimit="10" fill="#FFFFFF" fill-rule="evenodd" transform="matrix(1 -1.22465e-16 -1.22465e-16 -1 1724.5 1953.5)"/><path d="M1585 1720.12 1667.5 1720.13 1667.5 1733.88 1585 1733.88ZM1660.63 1706.38 1701.88 1727 1660.62 1747.63Z" fill="#D86ECC"/><text font-family="Noto Sans JP,Noto Sans JP_MSFontService,sans-serif" font-weight="400" font-size="55" transform="matrix(1 0 0 1 2484.7 1868)">GND</text><text font-family="Noto Sans JP,Noto Sans JP_MSFontService,sans-serif" font-weight="400" font-size="55" transform="matrix(1 0 0 1 2599.85 1868)"> </text><text font-family="Noto Sans JP,Noto Sans JP_MSFontService,sans-serif" font-weight="700" font-size="55" transform="matrix(1 0 0 1 1892.68 1532)">V</text><text font-family="Noto Sans JP,Noto Sans JP_MSFontService,sans-serif" font-weight="700" font-size="37" transform="matrix(1 0 0 1 1926.48 1545)">GPIO</text><text font-family="Noto Sans JP,Noto Sans JP_MSFontService,sans-serif" font-weight="700" font-size="37" transform="matrix(1 0 0 1 2017.57 1545)"> </text><path d="M2151.5 1471.21 2356.47 1471.21C2357.73 1471.21 2358.76 1472.23 2358.76 1473.5 2358.76 1474.77 2357.73 1475.79 2356.47 1475.79L2151.5 1475.79C2150.23 1475.79 2149.21 1474.77 2149.21 1473.5 2149.21 1472.23 2150.23 1471.21 2151.5 1471.21ZM2151.5 1487.25C2143.91 1487.25 2137.75 1481.09 2137.75 1473.5 2137.75 1465.91 2143.91 1459.75 2151.5 1459.75 2159.09 1459.75 2165.25 1465.91 2165.25 1473.5 2165.25 1481.09 2159.09 1487.25 2151.5 1487.25ZM2356.47 1459.75C2364.06 1459.75 2370.22 1465.91 2370.22 1473.5 2370.22 1481.09 2364.06 1487.25 2356.47 1487.25 2348.87 1487.25 2342.72 1481.09 2342.72 1473.5 2342.72 1465.91 2348.87 1459.75 2356.47 1459.75Z"/><path d="M2358.79 1405.5 2358.79 1472.89C2358.79 1474.16 2357.77 1475.18 2356.5 1475.18 2355.23 1475.18 2354.21 1474.16 2354.21 1472.89L2354.21 1405.5C2354.21 1404.23 2355.23 1403.21 2356.5 1403.21 2357.77 1403.21 2358.79 1404.23 2358.79 1405.5ZM2370.25 1472.89C2370.25 1480.49 2364.09 1486.64 2356.5 1486.64 2348.91 1486.64 2342.75 1480.49 2342.75 1472.89 2342.75 1465.3 2348.91 1459.14 2356.5 1459.14 2364.09 1459.14 2370.25 1465.3 2370.25 1472.89Z"/><path d="M2.29167-6.94893e-06 2.29203 119.018C2.29203 120.283 1.26602 121.309 0.000367841 121.309-1.26528 121.309-2.2913 120.283-2.29131 119.018L-2.29167 6.94893e-06C-2.29167-1.26565-1.26566-2.29166-6.94893e-06-2.29167 1.26565-2.29167 2.29166-1.26566 2.29167-6.94893e-06ZM13.7504 119.018C13.7504 126.611 7.59432 132.768 0.000402586 132.768-7.59351 132.768-13.7496 126.612-13.7496 119.018-13.7497 111.424-7.5936 105.268 0.000319199 105.268 7.59424 105.268 13.7503 111.424 13.7504 119.018Z" transform="matrix(1 0 0 -1 2356.5 1348.52)"/><text font-family="Noto Sans JP,Noto Sans JP_MSFontService,sans-serif" font-weight="700" font-size="55" transform="matrix(1 0 0 1 2197.33 1366)">V</text><text font-family="Noto Sans JP,Noto Sans JP_MSFontService,sans-serif" font-weight="700" font-size="37" transform="matrix(1 0 0 1 2231.14 1379)">F</text><text font-family="Noto Sans JP,Noto Sans JP_MSFontService,sans-serif" font-weight="700" font-size="37" transform="matrix(1 0 0 1 2252.33 1379)"> </text><text fill="#00B050" font-family="Noto Sans JP,Noto Sans JP_MSFontService,sans-serif" font-weight="700" font-size="55" transform="matrix(1 0 0 1 2373.27 1334)">ON</text><text fill="#00B050" font-family="Noto Sans JP,Noto Sans JP_MSFontService,sans-serif" font-weight="700" font-size="55" transform="matrix(1 0 0 1 2456.91 1334)"> </text><path d="M2414.5 1375.5 2556.69 1375.5" stroke="#000000" stroke-width="4.58333" stroke-linecap="round" stroke-linejoin="round" stroke-miterlimit="10" stroke-dasharray="32.0833 18.3333" fill="none" fill-rule="evenodd"/><path d="M2356.5 1350.5 2396.5 1350.5 2396.5 1402.5 2356.56 1402.5" stroke="#00B050" stroke-width="4.58333" stroke-linecap="round" stroke-linejoin="round" stroke-miterlimit="10" fill="none" fill-rule="evenodd"/><path d="M2414.5 1350.5 2414.5 1402.84" stroke="#00B050" stroke-width="9.16667" stroke-miterlimit="8" fill-rule="evenodd"/><path d="M2358.79 1649.5 2358.79 1716.89C2358.79 1718.16 2357.77 1719.18 2356.5 1719.18 2355.23 1719.18 2354.21 1718.16 2354.21 1716.89L2354.21 1649.5C2354.21 1648.23 2355.23 1647.21 2356.5 1647.21 2357.77 1647.21 2358.79 1648.23 2358.79 1649.5ZM2370.25 1716.89C2370.25 1724.49 2364.09 1730.64 2356.5 1730.64 2348.91 1730.64 2342.75 1724.49 2342.75 1716.89 2342.75 1709.3 2348.91 1703.14 2356.5 1703.14 2364.09 1703.14 2370.25 1709.3 2370.25 1716.89Z"/><path d="M2.29167-6.94893e-06 2.29203 119.018C2.29203 120.283 1.26602 121.309 0.000367841 121.309-1.26528 121.309-2.2913 120.283-2.29131 119.018L-2.29167 6.94893e-06C-2.29167-1.26565-1.26566-2.29166-6.94893e-06-2.29167 1.26565-2.29167 2.29166-1.26566 2.29167-6.94893e-06ZM13.7504 119.018C13.7504 126.611 7.59432 132.768 0.000402586 132.768-7.59351 132.768-13.7496 126.612-13.7496 119.018-13.7497 111.424-7.5936 105.268 0.000319199 105.268 7.59424 105.268 13.7503 111.424 13.7504 119.018Z" transform="matrix(1 0 0 -1 2356.5 1592.52)"/><text fill="#0070C0" font-family="Noto Sans JP,Noto Sans JP_MSFontService,sans-serif" font-weight="700" font-size="55" transform="matrix(1 0 0 1 2373.27 1578)">OFF</text><text fill="#0070C0" font-family="Noto Sans JP,Noto Sans JP_MSFontService,sans-serif" font-weight="700" font-size="55" transform="matrix(1 0 0 1 2479.83 1578)"> </text><path d="M2414.5 1619.5 2556.69 1619.5" stroke="#000000" stroke-width="4.58333" stroke-linecap="round" stroke-linejoin="round" stroke-miterlimit="10" stroke-dasharray="32.0833 18.3333" fill="none" fill-rule="evenodd"/><path d="M2356.5 1594.5 2396.5 1594.5 2396.5 1646.5 2356.56 1646.5" stroke="#0070C0" stroke-width="4.58333" stroke-linecap="round" stroke-linejoin="round" stroke-miterlimit="10" fill="none" fill-rule="evenodd"/><path d="M2414.5 1594.5 2414.5 1646.84" stroke="#0070C0" stroke-width="9.16667" stroke-miterlimit="8" fill-rule="evenodd"/><text font-family="Noto Sans JP,Noto Sans JP_MSFontService,sans-serif" font-weight="700" font-size="73" transform="matrix(1 0 0 1 2089.87 692)">V</text><text font-family="Noto Sans JP,Noto Sans JP_MSFontService,sans-serif" font-weight="700" font-size="49" transform="matrix(1 0 0 1 2135.13 709)">CC </text><text font-family="Cambria Math,Cambria Math_MSFontService,sans-serif" font-weight="400" font-size="73" transform="matrix(1 0 0 1 2207.89 692)">≒</text><text font-family="Noto Sans JP,Noto Sans JP_MSFontService,sans-serif" font-weight="700" font-size="73" transform="matrix(1 0 0 1 2262.89 692)"> </text><text font-family="Noto Sans JP,Noto Sans JP_MSFontService,sans-serif" font-weight="700" font-size="73" transform="matrix(1 0 0 1 2279.51 692)">V</text><text font-family="Noto Sans JP,Noto Sans JP_MSFontService,sans-serif" font-weight="700" font-size="49" transform="matrix(1 0 0 1 2324.77 709)">GPIO</text><text font-family="Noto Sans JP,Noto Sans JP_MSFontService,sans-serif" font-weight="700" font-size="49" transform="matrix(1 0 0 1 2446.23 709)"> </text><text font-family="Noto Sans JP,Noto Sans JP_MSFontService,sans-serif" font-weight="700" font-size="73" transform="matrix(1 0 0 1 1692.05 477)">GPIO configured </text><text font-family="Noto Sans JP,Noto Sans JP_MSFontService,sans-serif" font-weight="700" font-size="73" transform="matrix(1 0 0 1 2296.48 477)">as </text><text fill="#C00000" font-family="Noto Sans JP,Noto Sans JP_MSFontService,sans-serif" font-weight="700" font-size="73" transform="matrix(1 0 0 1 2392.73 477)">High Output</text><text fill="#C00000" font-family="Noto Sans JP,Noto Sans JP_MSFontService,sans-serif" font-weight="700" font-size="49" transform="matrix(1 0 0 1 2837.31 494)"> </text><path d="M2217 578.5 2242 578.5 2242 540 2292 540 2292 578.5 2317 578.5 2267 617Z" fill="#7F7F7F" fill-rule="evenodd"/><path d="M1822 1439 2281.84 1439" stroke="#C00000" stroke-width="13.75" stroke-linejoin="round" stroke-miterlimit="10" fill="none" fill-rule="evenodd"/><path d="M2425 1147C2425 1166.33 2409.11 1182 2389.5 1182" stroke="#C00000" stroke-width="13.75" stroke-linecap="round" stroke-linejoin="round" stroke-miterlimit="10" fill="none" fill-rule="evenodd"/><path d="M2351 1182 2389.36 1182" stroke="#C00000" stroke-width="13.75" stroke-linecap="round" stroke-linejoin="round" stroke-miterlimit="10" fill="none" fill-rule="evenodd"/><path d="M6.875-1.87456e-05 6.87527 97.983-6.87473 97.983-6.875 1.87456e-05ZM20.6252 91.1079 0.000360892 132.358-20.6248 91.1081Z" fill="#C00000" transform="matrix(1 0 0 -1 2425 1145.36)"/><path d="M2316 1217.5C2316 1197.89 2331.67 1182 2351 1182" stroke="#C00000" stroke-width="13.75" stroke-linecap="round" stroke-linejoin="round" stroke-miterlimit="10" fill="none" fill-rule="evenodd"/><path d="M2315 1404C2315 1423.33 2299.33 1439 2280 1439" stroke="#C00000" stroke-width="13.75" stroke-linecap="round" stroke-linejoin="round" stroke-miterlimit="10" fill="none" fill-rule="evenodd"/><path d="M0 0 0.000360892 184.615" stroke="#C00000" stroke-width="13.75" stroke-linecap="round" stroke-linejoin="round" stroke-miterlimit="10" fill="none" fill-rule="evenodd" transform="matrix(1 0 0 -1 2316 1401.61)"/><rect x="0" y="0" width="619" height="665" stroke="#000000" stroke-width="4.58333" stroke-linecap="round" stroke-linejoin="round" stroke-miterlimit="10" fill="#E8E8E8" transform="matrix(-1 0 0 1 4051.5 1138.5)"/><path d="M2.29167-3.84173e-06 2.29203 215.279C2.29203 216.545 1.26602 217.571 0.000364734 217.571-1.26529 217.571-2.2913 216.545-2.29131 215.279L-2.29167 3.84173e-06C-2.29167-1.26565-1.26566-2.29166-3.84173e-06-2.29167 1.26565-2.29167 2.29166-1.26566 2.29167-3.84173e-06ZM13.7504 215.279C13.7504 222.873 7.5943 229.029 0.000383943 229.029-7.59353 229.029-13.7496 222.873-13.7496 215.279-13.7497 207.685-7.59358 201.529 0.000337842 201.529 7.59425 201.529 13.7503 207.685 13.7504 215.279Z" transform="matrix(1 0 0 -1 3862.5 1931.78)"/><path d="M0 23 21.5 0 43 23Z" stroke="#000000" stroke-width="4.58333" stroke-linecap="round" stroke-linejoin="round" stroke-miterlimit="10" fill="#FFFFFF" fill-rule="evenodd" transform="matrix(1 -1.22465e-16 -1.22465e-16 -1 3842.5 1953.5)"/><path d="M3504.5 1716.5 3961.17 1716.5" stroke="#000000" stroke-width="4.58333" stroke-linecap="round" stroke-linejoin="round" stroke-miterlimit="10" fill="none" fill-rule="evenodd"/><path d="M3504.5 1229.5 3961.17 1229.5" stroke="#000000" stroke-width="4.58333" stroke-linecap="round" stroke-linejoin="round" stroke-miterlimit="10" fill="none" fill-rule="evenodd"/><path d="M3547.79 1230.5 3547.79 1716.58C3547.79 1717.85 3546.77 1718.87 3545.5 1718.87 3544.23 1718.87 3543.21 1717.85 3543.21 1716.58L3543.21 1230.5C3543.21 1229.23 3544.23 1228.21 3545.5 1228.21 3546.77 1228.21 3547.79 1229.23 3547.79 1230.5ZM3531.75 1230.5C3531.75 1222.91 3537.91 1216.75 3545.5 1216.75 3553.09 1216.75 3559.25 1222.91 3559.25 1230.5 3559.25 1238.09 3553.09 1244.25 3545.5 1244.25 3537.91 1244.25 3531.75 1238.09 3531.75 1230.5ZM3559.25 1716.58C3559.25 1724.18 3553.09 1730.33 3545.5 1730.33 3537.91 1730.33 3531.75 1724.18 3531.75 1716.58 3531.75 1708.99 3537.91 1702.83 3545.5 1702.83 3553.09 1702.83 3559.25 1708.99 3559.25 1716.58Z"/><path d="M0 47.0001 28.4999 0 56.9997 47.0001Z" stroke="#000000" stroke-width="4.58333" stroke-linecap="round" stroke-linejoin="round" stroke-miterlimit="10" fill-rule="evenodd" transform="matrix(-1 0 0 1 3575.5 1323.5)"/><path d="M0 0 0.000360892 57.0307" stroke="#000000" stroke-width="9.16667" stroke-miterlimit="8" fill-rule="evenodd" transform="matrix(-6.12323e-17 -1 -1 6.12323e-17 3575.53 1323.5)"/><path d="M0 46.0001 28.4999 0 56.9997 46.0001Z" stroke="#000000" stroke-width="4.58333" stroke-linecap="round" stroke-linejoin="round" stroke-miterlimit="10" fill-rule="evenodd" transform="matrix(-1 0 0 1 3575.5 1573.5)"/><path d="M0 0 0.000360892 57.0307" stroke="#000000" stroke-width="9.16667" stroke-miterlimit="8" fill-rule="evenodd" transform="matrix(-6.12323e-17 -1 -1 6.12323e-17 3575.53 1573.5)"/><path d="M3751.5 1471.21 3783.58 1471.21C3784.85 1471.21 3785.87 1472.23 3785.87 1473.5 3785.87 1474.77 3784.85 1475.79 3783.58 1475.79L3751.5 1475.79C3750.23 1475.79 3749.21 1474.77 3749.21 1473.5 3749.21 1472.23 3750.23 1471.21 3751.5 1471.21ZM3801.92 1471.21 3834 1471.21C3835.27 1471.21 3836.29 1472.23 3836.29 1473.5 3836.29 1474.77 3835.27 1475.79 3834 1475.79L3801.92 1475.79C3800.65 1475.79 3799.62 1474.77 3799.62 1473.5 3799.62 1472.23 3800.65 1471.21 3801.92 1471.21ZM3852.33 1471.21 3884.42 1471.21C3885.68 1471.21 3886.71 1472.23 3886.71 1473.5 3886.71 1474.77 3885.68 1475.79 3884.42 1475.79L3852.33 1475.79C3851.07 1475.79 3850.04 1474.77 3850.04 1473.5 3850.04 1472.23 3851.07 1471.21 3852.33 1471.21ZM3902.75 1471.21 3934.83 1471.21C3936.1 1471.21 3937.12 1472.23 3937.12 1473.5 3937.12 1474.77 3936.1 1475.79 3934.83 1475.79L3902.75 1475.79C3901.48 1475.79 3900.46 1474.77 3900.46 1473.5 3900.46 1472.23 3901.48 1471.21 3902.75 1471.21ZM3751.5 1487.25C3743.91 1487.25 3737.75 1481.09 3737.75 1473.5 3737.75 1465.91 3743.91 1459.75 3751.5 1459.75 3759.09 1459.75 3765.25 1465.91 3765.25 1473.5 3765.25 1481.09 3759.09 1487.25 3751.5 1487.25Z"/><text font-family="Noto Sans JP,Noto Sans JP_MSFontService,sans-serif" font-weight="700" font-size="55" transform="matrix(1 0 0 1 3878.78 1107)">V</text><text font-family="Noto Sans JP,Noto Sans JP_MSFontService,sans-serif" font-weight="700" font-size="37" transform="matrix(1 0 0 1 3912.58 1120)">CC</text><text font-family="Noto Sans JP,Noto Sans JP_MSFontService,sans-serif" font-weight="700" font-size="37" transform="matrix(1 0 0 1 3958.99 1120)"> </text><path d="M3550.5 1475.79 3140.5 1475.79 3142.79 1473.5 3142.79 1934.5C3142.79 1935.77 3141.77 1936.79 3140.5 1936.79 3139.23 1936.79 3138.21 1935.77 3138.21 1934.5L3138.21 1473.5C3138.21 1472.23 3139.23 1471.21 3140.5 1471.21L3550.5 1471.21C3551.77 1471.21 3552.79 1472.23 3552.79 1473.5 3552.79 1474.77 3551.77 1475.79 3550.5 1475.79ZM3550.5 1459.75C3558.09 1459.75 3564.25 1465.91 3564.25 1473.5 3564.25 1481.09 3558.09 1487.25 3550.5 1487.25 3542.91 1487.25 3536.75 1481.09 3536.75 1473.5 3536.75 1465.91 3542.91 1459.75 3550.5 1459.75Z"/><rect x="0" y="0" width="88.9997" height="35.9997" stroke="#000000" stroke-width="4.58333" stroke-linecap="round" stroke-linejoin="round" stroke-miterlimit="10" fill="#E8E8E8" transform="matrix(1.83697e-16 1 1 -1.83697e-16 3122.5 1539.5)"/><path d="M0 47.0001 28.4999 0 56.9997 47.0001Z" stroke="#000000" stroke-width="4.58333" stroke-linecap="round" stroke-linejoin="round" stroke-miterlimit="10" fill-rule="evenodd" transform="matrix(1 -1.22465e-16 -1.22465e-16 -1 3111.5 1753.5)"/><path d="M0 0 0.000360892 57.0325" stroke="#000000" stroke-width="9.16667" stroke-miterlimit="8" fill-rule="evenodd" transform="matrix(1.83697e-16 1 1 -1.83697e-16 3111.5 1753.5)"/><path d="M2.14087-0.817554 11.5987 23.949 7.31696 25.5842-2.14087 0.817554ZM16.3862 17.2146 14.3632 37.6118-0.740771 23.7551Z" transform="matrix(1.83697e-16 1 1 -1.83697e-16 3172.5 1719.5)"/><path d="M2.14087-0.817554 11.5987 23.949 7.31696 25.5842-2.14087 0.817554ZM16.3862 17.2146 14.3632 37.6118-0.740771 23.7551Z" transform="matrix(1.83697e-16 1 1 -1.83697e-16 3172.5 1739.5)"/><path d="M0 23 22 0 44 23Z" stroke="#000000" stroke-width="4.58333" stroke-linecap="round" stroke-linejoin="round" stroke-miterlimit="10" fill="#FFFFFF" fill-rule="evenodd" transform="matrix(1 -1.22465e-16 -1.22465e-16 -1 3118.5 1953.5)"/><path d="M2979 1720.12 3061.5 1720.13 3061.5 1733.88 2979 1733.88ZM3054.62 1706.38 3095.88 1727 3054.62 1747.63Z" fill="#D86ECC"/><text font-family="Noto Sans JP,Noto Sans JP_MSFontService,sans-serif" font-weight="400" font-size="55" transform="matrix(1 0 0 1 3878.78 1868)">GND</text><text font-family="Noto Sans JP,Noto Sans JP_MSFontService,sans-serif" font-weight="400" font-size="55" transform="matrix(1 0 0 1 3993.94 1868)"> </text><text font-family="Noto Sans JP,Noto Sans JP_MSFontService,sans-serif" font-weight="700" font-size="55" transform="matrix(1 0 0 1 3286.76 1532)">V</text><text font-family="Noto Sans JP,Noto Sans JP_MSFontService,sans-serif" font-weight="700" font-size="37" transform="matrix(1 0 0 1 3320.56 1545)">GPIO</text><text font-family="Noto Sans JP,Noto Sans JP_MSFontService,sans-serif" font-weight="700" font-size="37" transform="matrix(1 0 0 1 3411.65 1545)"> </text><path d="M1059.79 993.5 1059.79 1229.2C1059.79 1230.46 1058.77 1231.49 1057.5 1231.49 1056.23 1231.49 1055.21 1230.46 1055.21 1229.2L1055.21 993.5C1055.21 992.234 1056.23 991.208 1057.5 991.208 1058.77 991.208 1059.79 992.234 1059.79 993.5ZM1071.25 1229.2C1071.25 1236.79 1065.09 1242.95 1057.5 1242.95 1049.91 1242.95 1043.75 1236.79 1043.75 1229.2 1043.75 1221.6 1049.91 1215.45 1057.5 1215.45 1065.09 1215.45 1071.25 1221.6 1071.25 1229.2Z"/><path d="M2469.79 993.5 2469.79 1229.2C2469.79 1230.46 2468.77 1231.49 2467.5 1231.49 2466.23 1231.49 2465.21 1230.46 2465.21 1229.2L2465.21 993.5C2465.21 992.234 2466.23 991.208 2467.5 991.208 2468.77 991.208 2469.79 992.234 2469.79 993.5ZM2481.25 1229.2C2481.25 1236.79 2475.09 1242.95 2467.5 1242.95 2459.91 1242.95 2453.75 1236.79 2453.75 1229.2 2453.75 1221.6 2459.91 1215.45 2467.5 1215.45 2475.09 1215.45 2481.25 1221.6 2481.25 1229.2Z"/><path d="M3864.79 913.5 3864.79 1229.56C3864.79 1230.83 3863.77 1231.85 3862.5 1231.85 3861.23 1231.85 3860.21 1230.83 3860.21 1229.56L3860.21 913.5C3860.21 912.234 3861.23 911.208 3862.5 911.208 3863.77 911.208 3864.79 912.234 3864.79 913.5ZM3876.25 1229.56C3876.25 1237.16 3870.09 1243.31 3862.5 1243.31 3854.91 1243.31 3848.75 1237.16 3848.75 1229.56 3848.75 1221.97 3854.91 1215.81 3862.5 1215.81 3870.09 1215.81 3876.25 1221.97 3876.25 1229.56Z"/><path d="M3545.5 1471.21 3750.47 1471.21C3751.73 1471.21 3752.76 1472.23 3752.76 1473.5 3752.76 1474.77 3751.73 1475.79 3750.47 1475.79L3545.5 1475.79C3544.23 1475.79 3543.21 1474.77 3543.21 1473.5 3543.21 1472.23 3544.23 1471.21 3545.5 1471.21ZM3545.5 1487.25C3537.91 1487.25 3531.75 1481.09 3531.75 1473.5 3531.75 1465.91 3537.91 1459.75 3545.5 1459.75 3553.09 1459.75 3559.25 1465.91 3559.25 1473.5 3559.25 1481.09 3553.09 1487.25 3545.5 1487.25ZM3750.47 1459.75C3758.06 1459.75 3764.22 1465.91 3764.22 1473.5 3764.22 1481.09 3758.06 1487.25 3750.47 1487.25 3742.87 1487.25 3736.72 1481.09 3736.72 1473.5 3736.72 1465.91 3742.87 1459.75 3750.47 1459.75Z"/><path d="M3752.79 1405.5 3752.79 1472.89C3752.79 1474.16 3751.77 1475.18 3750.5 1475.18 3749.23 1475.18 3748.21 1474.16 3748.21 1472.89L3748.21 1405.5C3748.21 1404.23 3749.23 1403.21 3750.5 1403.21 3751.77 1403.21 3752.79 1404.23 3752.79 1405.5ZM3764.25 1472.89C3764.25 1480.49 3758.09 1486.64 3750.5 1486.64 3742.91 1486.64 3736.75 1480.49 3736.75 1472.89 3736.75 1465.3 3742.91 1459.14 3750.5 1459.14 3758.09 1459.14 3764.25 1465.3 3764.25 1472.89Z"/><path d="M2.29167-6.94893e-06 2.29203 119.018C2.29203 120.283 1.26602 121.309 0.000367841 121.309-1.26528 121.309-2.2913 120.283-2.29131 119.018L-2.29167 6.94893e-06C-2.29167-1.26565-1.26566-2.29166-6.94893e-06-2.29167 1.26565-2.29167 2.29166-1.26566 2.29167-6.94893e-06ZM13.7504 119.018C13.7504 126.611 7.59432 132.768 0.000402586 132.768-7.59351 132.768-13.7496 126.612-13.7496 119.018-13.7497 111.424-7.5936 105.268 0.000319199 105.268 7.59424 105.268 13.7503 111.424 13.7504 119.018Z" transform="matrix(1 0 0 -1 3750.5 1348.52)"/><text font-family="Noto Sans JP,Noto Sans JP_MSFontService,sans-serif" font-weight="700" font-size="55" transform="matrix(1 0 0 1 3591.42 1366)">V</text><text font-family="Noto Sans JP,Noto Sans JP_MSFontService,sans-serif" font-weight="700" font-size="37" transform="matrix(1 0 0 1 3625.22 1379)">F</text><text font-family="Noto Sans JP,Noto Sans JP_MSFontService,sans-serif" font-weight="700" font-size="37" transform="matrix(1 0 0 1 3646.42 1379)"> </text><text fill="#0070C0" font-family="Noto Sans JP,Noto Sans JP_MSFontService,sans-serif" font-weight="700" font-size="55" transform="matrix(1 0 0 1 3767.35 1334)">OFF</text><text fill="#0070C0" font-family="Noto Sans JP,Noto Sans JP_MSFontService,sans-serif" font-weight="700" font-size="55" transform="matrix(1 0 0 1 3873.91 1334)"> </text><path d="M3808.5 1375.5 3950.69 1375.5" stroke="#000000" stroke-width="4.58333" stroke-linecap="round" stroke-linejoin="round" stroke-miterlimit="10" stroke-dasharray="32.0833 18.3333" fill="none" fill-rule="evenodd"/><path d="M3750.5 1350.5 3790.5 1350.5 3790.5 1402.5 3750.56 1402.5" stroke="#0070C0" stroke-width="4.58333" stroke-linecap="round" stroke-linejoin="round" stroke-miterlimit="10" fill="none" fill-rule="evenodd"/><path d="M3808.5 1350.5 3808.5 1402.84" stroke="#0070C0" stroke-width="9.16667" stroke-miterlimit="8" fill-rule="evenodd"/><path d="M3752.79 1649.5 3752.79 1716.89C3752.79 1718.16 3751.77 1719.18 3750.5 1719.18 3749.23 1719.18 3748.21 1718.16 3748.21 1716.89L3748.21 1649.5C3748.21 1648.23 3749.23 1647.21 3750.5 1647.21 3751.77 1647.21 3752.79 1648.23 3752.79 1649.5ZM3764.25 1716.89C3764.25 1724.49 3758.09 1730.64 3750.5 1730.64 3742.91 1730.64 3736.75 1724.49 3736.75 1716.89 3736.75 1709.3 3742.91 1703.14 3750.5 1703.14 3758.09 1703.14 3764.25 1709.3 3764.25 1716.89Z"/><path d="M2.29167-6.94893e-06 2.29203 119.018C2.29203 120.283 1.26602 121.309 0.000367841 121.309-1.26528 121.309-2.2913 120.283-2.29131 119.018L-2.29167 6.94893e-06C-2.29167-1.26565-1.26566-2.29166-6.94893e-06-2.29167 1.26565-2.29167 2.29166-1.26566 2.29167-6.94893e-06ZM13.7504 119.018C13.7504 126.611 7.59432 132.768 0.000402586 132.768-7.59351 132.768-13.7496 126.612-13.7496 119.018-13.7497 111.424-7.5936 105.268 0.000319199 105.268 7.59424 105.268 13.7503 111.424 13.7504 119.018Z" transform="matrix(1 0 0 -1 3750.5 1592.52)"/><text fill="#00B050" font-family="Noto Sans JP,Noto Sans JP_MSFontService,sans-serif" font-weight="700" font-size="55" transform="matrix(1 0 0 1 3767.35 1578)">ON</text><text fill="#00B050" font-family="Noto Sans JP,Noto Sans JP_MSFontService,sans-serif" font-weight="700" font-size="55" transform="matrix(1 0 0 1 3850.99 1578)"> </text><path d="M3808.5 1619.5 3950.69 1619.5" stroke="#000000" stroke-width="4.58333" stroke-linecap="round" stroke-linejoin="round" stroke-miterlimit="10" stroke-dasharray="32.0833 18.3333" fill="none" fill-rule="evenodd"/><path d="M3750.5 1594.5 3790.5 1594.5 3790.5 1646.5 3750.56 1646.5" stroke="#00B050" stroke-width="4.58333" stroke-linecap="round" stroke-linejoin="round" stroke-miterlimit="10" fill="none" fill-rule="evenodd"/><path d="M3808.5 1594.5 3808.5 1646.84" stroke="#00B050" stroke-width="9.16667" stroke-miterlimit="8" fill-rule="evenodd"/><text font-family="Noto Sans JP,Noto Sans JP_MSFontService,sans-serif" font-weight="700" font-size="73" transform="matrix(1 0 0 1 3288.79 693)">V</text><text font-family="Noto Sans JP,Noto Sans JP_MSFontService,sans-serif" font-weight="700" font-size="49" transform="matrix(1 0 0 1 3334.05 710)">CC</text><text font-family="Noto Sans JP,Noto Sans JP_MSFontService,sans-serif" font-weight="400" font-size="73" transform="matrix(1 0 0 1 3395.93 693)"> </text><text font-family="Noto Sans JP,Noto Sans JP_MSFontService,sans-serif" font-weight="400" font-size="73" transform="matrix(1 0 0 1 3412.54 693)">is</text><text font-family="Noto Sans JP,Noto Sans JP_MSFontService,sans-serif" font-weight="700" font-size="73" transform="matrix(1 0 0 1 3466.97 693)"> </text><text font-family="Noto Sans JP,Noto Sans JP_MSFontService,sans-serif" font-weight="700" font-size="73" transform="matrix(1 0 0 1 3483.58 693)">Hi</text><text font-family="Noto Sans JP,Noto Sans JP_MSFontService,sans-serif" font-weight="700" font-size="73" transform="matrix(1 0 0 1 3561.5 693)">-</text><text font-family="Noto Sans JP,Noto Sans JP_MSFontService,sans-serif" font-weight="700" font-size="73" transform="matrix(1 0 0 1 3588.43 693)">Impedance</text><text font-family="Noto Sans JP,Noto Sans JP_MSFontService,sans-serif" font-weight="700" font-size="49" transform="matrix(1 0 0 1 3988.32 710)"> </text><text font-family="Noto Sans JP,Noto Sans JP_MSFontService,sans-serif" font-weight="700" font-size="73" transform="matrix(1 0 0 1 3096.16 477)">GPIO configured </text><text font-family="Noto Sans JP,Noto Sans JP_MSFontService,sans-serif" font-weight="700" font-size="73" transform="matrix(1 0 0 1 3700.58 477)">as </text><text fill="#C00000" font-family="Noto Sans JP,Noto Sans JP_MSFontService,sans-serif" font-weight="700" font-size="73" transform="matrix(1 0 0 1 3796.83 477)">Low Output</text><text fill="#C00000" font-family="Noto Sans JP,Noto Sans JP_MSFontService,sans-serif" font-weight="700" font-size="49" transform="matrix(1 0 0 1 4221.37 494)"> </text><path d="M3612 562 3636.75 562 3636.75 524 3686.25 524 3686.25 562 3711 562 3661.5 600Z" fill="#7F7F7F" fill-rule="evenodd"/><path d="M0 0 459.841 0.000360892" stroke="#C00000" stroke-width="13.75" stroke-linejoin="round" stroke-miterlimit="10" fill="none" fill-rule="evenodd" transform="matrix(1 0 0 -1 3216 1435)"/><path d="M35.4999 0C55.1059-9.03927e-15 70.9998 15.8939 70.9998 35.5001" stroke="#C00000" stroke-width="13.75" stroke-linecap="round" stroke-linejoin="round" stroke-miterlimit="10" fill="none" fill-rule="evenodd" transform="matrix(-1.83697e-16 -1 -1 1.83697e-16 3819 1832)"/><path d="M0 0 38.3564 0.000360892" stroke="#C00000" stroke-width="13.75" stroke-linecap="round" stroke-linejoin="round" stroke-miterlimit="10" fill="none" fill-rule="evenodd" transform="matrix(1 0 0 -1 3745 1761)"/><path d="M3825.88 1798 3825.88 1895.98 3812.13 1895.98 3812.12 1798ZM3839.63 1889.11 3819 1930.36 3798.38 1889.11Z" fill="#C00000"/><path d="M35.5001 0C55.1062-9.03927e-15 71.0002 15.6701 71.0002 35" stroke="#C00000" stroke-width="13.75" stroke-linecap="round" stroke-linejoin="round" stroke-miterlimit="10" fill="none" fill-rule="evenodd" transform="matrix(6.12323e-17 1 1 -6.12323e-17 3710 1691)"/><path d="M34.9998 0C54.3298-8.91195e-15 69.9998 15.6701 69.9998 35.0001" stroke="#C00000" stroke-width="13.75" stroke-linecap="round" stroke-linejoin="round" stroke-miterlimit="10" fill="none" fill-rule="evenodd" transform="matrix(-1.83697e-16 -1 -1 1.83697e-16 3709 1505)"/><path d="M3710 1470 3710 1726.13" stroke="#C00000" stroke-width="13.75" stroke-linecap="round" stroke-linejoin="round" stroke-miterlimit="10" fill="none" fill-rule="evenodd"/><text font-family="Noto Sans JP,Noto Sans JP_MSFontService,sans-serif" font-weight="400" font-size="73" transform="matrix(1 0 0 1 3322.31 817)">(MCU will be reset)</text><text font-family="Noto Sans JP,Noto Sans JP_MSFontService,sans-serif" font-weight="400" font-size="49" transform="matrix(1 0 0 1 3954.81 834)"> </text><text font-family="Noto Sans JP,Noto Sans JP_MSFontService,sans-serif" font-weight="400" font-size="73" transform="matrix(1 0 0 1 1612.99 817)">(MCU </text><text font-family="Noto Sans JP,Noto Sans JP_MSFontService,sans-serif" font-weight="400" font-size="73" transform="matrix(1 0 0 1 1811.79 817)">will continue to </text><text font-family="Noto Sans JP,Noto Sans JP_MSFontService,sans-serif" font-weight="400" font-size="73" transform="matrix(1 0 0 1 2355.49 817)">run </text><text font-family="Noto Sans JP,Noto Sans JP_MSFontService,sans-serif" font-weight="400" font-size="73" transform="matrix(1 0 0 1 2490.12 817)">more </text><text font-family="Noto Sans JP,Noto Sans JP_MSFontService,sans-serif" font-weight="400" font-size="73" transform="matrix(1 0 0 1 2687.78 817)">stably)</text><text font-family="Noto Sans JP,Noto Sans JP_MSFontService,sans-serif" font-weight="400" font-size="49" transform="matrix(1 0 0 1 2916.37 834)"> </text><path d="M3862.5 979.792 3702.5 979.792 3704.79 977.5 3704.79 1084.5C3704.79 1085.77 3703.77 1086.79 3702.5 1086.79 3701.23 1086.79 3700.21 1085.77 3700.21 1084.5L3700.21 977.5C3700.21 976.234 3701.23 975.208 3702.5 975.208L3862.5 975.208C3863.77 975.208 3864.79 976.234 3864.79 977.5 3864.79 978.766 3863.77 979.792 3862.5 979.792ZM3862.5 963.75C3870.09 963.75 3876.25 969.906 3876.25 977.5 3876.25 985.094 3870.09 991.25 3862.5 991.25 3854.91 991.25 3848.75 985.094 3848.75 977.5 3848.75 969.906 3854.91 963.75 3862.5 963.75Z"/><path d="M3722.5 1085.5 3701 1107.5 3679.5 1085.5Z" stroke="#000000" stroke-width="4.58333" stroke-linecap="round" stroke-linejoin="round" stroke-miterlimit="10" fill="#FFFFFF" fill-rule="evenodd"/><rect x="3670" y="1016" width="67" height="28.9999" fill="#FFFFFF"/><path d="M3670.5 1015.5 3737.3 1015.5" stroke="#000000" stroke-width="9.16667" stroke-miterlimit="8" fill-rule="evenodd"/><path d="M3670.5 1045.5 3737.3 1045.5" stroke="#000000" stroke-width="9.16667" stroke-miterlimit="8" fill-rule="evenodd"/><path d="M0 0 0.000360892 53.2237" stroke="#7F7F7F" stroke-width="9.16667" stroke-linejoin="round" stroke-miterlimit="10" fill="none" fill-rule="evenodd" transform="matrix(1 0 0 -1 3760.5 1091.72)"/><path d="M3760.5 1041.5C3760.5 1022.72 3775.95 1007.5 3795 1007.5" stroke="#7F7F7F" stroke-width="9.16667" stroke-linecap="round" stroke-linejoin="round" stroke-miterlimit="10" fill="none" fill-rule="evenodd"/><path d="M3836.08 1040.5 3836.08 1186.78 3826.92 1186.78 3826.92 1040.5ZM3845.25 1182.2 3831.5 1209.7 3817.75 1182.2Z" fill="#7F7F7F"/><path d="M3796.5 1007.5C3815.28 1007.5 3830.5 1022.72 3830.5 1041.5" stroke="#7F7F7F" stroke-width="9.16667" stroke-linecap="round" stroke-linejoin="round" stroke-miterlimit="10" fill="none" fill-rule="evenodd"/></g></svg>