<svg width="2219" height="1313" xmlns="http://www.w3.org/2000/svg" xmlns:xlink="http://www.w3.org/1999/xlink" xml:space="preserve" overflow="hidden"><defs><clipPath id="clip0"><rect x="1792" y="730" width="2219" height="1313"/></clipPath></defs><g clip-path="url(#clip0)" transform="translate(-1792 -730)"><rect x="1792" y="730" width="2219" height="1313" fill="#FFFFFF"/><g><path d="M2053.5 1600.55 3757.5 1600.55M2053.5 1436.55 3757.5 1436.55M2053.5 1272.54 3757.5 1272.54M2053.5 1109.54 3757.5 1109.54M2053.5 945.5 3757.5 945.5" stroke="#D9D9D9" stroke-width="3.4375" stroke-linejoin="round" stroke-miterlimit="10" fill="none"/></g><g><path d="M2098.07 1178.04 2138.07 1178.04 2138.07 1764 2098.07 1764ZM2382.08 1675.05 2423.08 1675.05 2423.08 1764 2382.08 1764ZM2666.09 1757.06 2707.09 1757.06 2707.09 1764 2666.09 1764Z" fill="#47D45A"/></g><g><path d="M2149.07 998.033 2190.07 998.033 2190.07 1764 2149.07 1764ZM2433.08 998.033 2474.08 998.033 2474.08 1764 2433.08 1764ZM2718.09 1001.03 2758.09 1001.03 2758.09 1764 2718.09 1764ZM3002.1 1168.04 3042.1 1168.04 3042.1 1764 3002.1 1764ZM3286.11 1708.06 3326.11 1708.06 3326.11 1764 3286.11 1764ZM3570.12 1757.06 3610.12 1757.06 3610.12 1764 3570.12 1764Z" fill="#00B0F0"/></g><g><path d="M2201.07 981.032 2242.07 981.032 2242.07 1764 2201.07 1764ZM2485.08 981.032 2526.08 981.032 2526.08 1764 2485.08 1764ZM2769.09 981.032 2810.09 981.032 2810.09 1764 2769.09 1764ZM3053.1 981.032 3094.1 981.032 3094.1 1764 3053.1 1764ZM3337.11 1338.04 3378.11 1338.04 3378.11 1764 3337.11 1764ZM3621.12 1721.06 3662.12 1721.06 3662.12 1764 3621.12 1764Z" fill="#D86ECC"/></g><g><path d="M2252.07 1034.03 2293.08 1034.03 2293.08 1764 2252.07 1764ZM2537.08 1034.03 2577.08 1034.03 2577.08 1764 2537.08 1764ZM2821.09 1070.04 2861.09 1070.04 2861.09 1764 2821.09 1764ZM3105.1 1669.05 3145.1 1669.05 3145.1 1764 3105.1 1764ZM3389.11 1754.06 3429.11 1754.06 3429.11 1764 3389.11 1764Z" fill="#7F7F7F"/></g><g><path d="M2053.5 1763.5 3757.5 1763.5" stroke="#D9D9D9" stroke-width="3.4375" stroke-linejoin="round" stroke-miterlimit="10" fill="none" fill-rule="evenodd"/></g><g><text font-family="Noto Sans JP,Noto Sans JP_MSFontService,sans-serif" font-weight="400" font-size="41" transform="matrix(1 0 0 1 1984.8 1777)">0</text></g><g><text font-family="Noto Sans JP,Noto Sans JP_MSFontService,sans-serif" font-weight="400" font-size="41" transform="matrix(1 0 0 1 1950.44 1614)">0.5</text></g><g><text font-family="Noto Sans JP,Noto Sans JP_MSFontService,sans-serif" font-weight="400" font-size="41" transform="matrix(1 0 0 1 1984.8 1450)">1</text></g><g><text font-family="Noto Sans JP,Noto Sans JP_MSFontService,sans-serif" font-weight="400" font-size="41" transform="matrix(1 0 0 1 1950.44 1286)">1.5</text></g><g><text font-family="Noto Sans JP,Noto Sans JP_MSFontService,sans-serif" font-weight="400" font-size="41" transform="matrix(1 0 0 1 1984.8 1123)">2</text></g><g><text font-family="Noto Sans JP,Noto Sans JP_MSFontService,sans-serif" font-weight="400" font-size="41" transform="matrix(1 0 0 1 1950.44 959)">2.5</text></g><g><text font-family="Noto Sans JP,Noto Sans JP_MSFontService,sans-serif" font-weight="400" font-size="41" transform="matrix(1 0 0 1 2143.43 1844)">Open</text></g><g><text font-family="Noto Sans JP,Noto Sans JP_MSFontService,sans-serif" font-weight="400" font-size="41" transform="matrix(1 0 0 1 2451.4 1844)">1M</text></g><g><text font-family="Noto Sans JP,Noto Sans JP_MSFontService,sans-serif" font-weight="400" font-size="41" transform="matrix(1 0 0 1 2717.93 1844)">100k</text></g><g><text font-family="Noto Sans JP,Noto Sans JP_MSFontService,sans-serif" font-weight="400" font-size="41" transform="matrix(1 0 0 1 3013.44 1844)">10k</text></g><g><text font-family="Noto Sans JP,Noto Sans JP_MSFontService,sans-serif" font-weight="400" font-size="41" transform="matrix(1 0 0 1 3308.95 1844)">1k</text></g><g><text font-family="Noto Sans JP,Noto Sans JP_MSFontService,sans-serif" font-weight="400" font-size="41" transform="matrix(1 0 0 1 3581.51 1844)">100</text></g><g><rect x="2593" y="1958" width="26.0002" height="27.0001" fill="#47D45A"/></g><g><text font-family="Noto Sans JP,Noto Sans JP_MSFontService,sans-serif" font-weight="400" font-size="41" transform="matrix(1 0 0 1 2631.1 1985)">Green</text></g><g><rect x="2785" y="1958" width="26.9998" height="27.0001" fill="#00B0F0"/></g><g><text font-family="Noto Sans JP,Noto Sans JP_MSFontService,sans-serif" font-weight="400" font-size="41" transform="matrix(1 0 0 1 2823.38 1985)">Blue</text></g><g><rect x="2949" y="1958" width="26.0002" height="27.0001" fill="#D86ECC"/></g><g><text font-family="Noto Sans JP,Noto Sans JP_MSFontService,sans-serif" font-weight="400" font-size="41" transform="matrix(1 0 0 1 2987.1 1985)">UV</text></g><g><rect x="3079" y="1958" width="27.0002" height="27.0001" fill="#7F7F7F"/></g><g><text font-family="Noto Sans JP,Noto Sans JP_MSFontService,sans-serif" font-weight="400" font-size="41" transform="matrix(1 0 0 1 3117.57 1985)">White</text></g><g><g><text font-family="Aptos Narrow,Aptos Narrow_MSFontService,sans-serif" font-weight="400" font-stretch="semi-condensed" font-size="50" transform="matrix(1 0 0 1 1891.34 859)">R</text></g></g><g><g><text font-family="Aptos Narrow,Aptos Narrow_MSFontService,sans-serif" font-weight="400" font-stretch="semi-condensed" font-size="34" transform="matrix(1 0 0 1 1919.32 871)">L</text></g></g><g><g><text font-family="Aptos Narrow,Aptos Narrow_MSFontService,sans-serif" font-weight="400" font-stretch="semi-condensed" font-size="50" transform="matrix(1 0 0 1 1944.09 859)">Voltage</text></g></g><g><g><text font-family="Aptos Narrow,Aptos Narrow_MSFontService,sans-serif" font-weight="400" font-stretch="semi-condensed" font-size="50" transform="matrix(1 0 0 1 3761.36 1843)">R</text></g></g><g><g><text font-family="Aptos Narrow,Aptos Narrow_MSFontService,sans-serif" font-weight="400" font-stretch="semi-condensed" font-size="34" transform="matrix(1 0 0 1 3789.34 1855)">L</text></g></g><g><g><text font-family="Aptos Narrow,Aptos Narrow_MSFontService,sans-serif" font-weight="400" font-stretch="semi-condensed" font-size="50" transform="matrix(1 0 0 1 3814.12 1843)">[Ω]</text></g></g></g></svg>